M48
;DRILL file {KiCad (5.0.1)-3} date 2018-12-03 23:59:21
;FORMAT={-:-/ absolute / inch / decimal}
FMAT,2
INCH,TZ
T1C0.0157
T2C0.0276
T3C0.0315
T4C0.0394
%
G90
G05
M72
T1
X0.89Y-3.467
X0.94Y-3.967
X0.94Y-4.617
X0.99Y-0.867
X0.99Y-1.167
X1.09Y-2.867
X1.09Y-3.067
X1.187Y-3.242
X1.19Y-3.817
X1.19Y-4.617
X1.24Y-2.367
X1.24Y-3.517
X1.287Y-3.195
X1.29Y-0.867
X1.29Y-1.617
X1.29Y-2.817
X1.374Y-3.382
X1.39Y-2.567
X1.44Y-3.017
X1.44Y-4.617
X1.49Y-1.167
X1.54Y-2.767
X1.59Y-0.867
X1.6323Y-3.1568
X1.649Y-3.471
X1.652Y-3.049
X1.652Y-3.091
X1.6523Y-3.6068
X1.673Y-4.172
X1.678Y-2.589
X1.682Y-3.12
X1.684Y-2.999
X1.69Y-4.617
X1.692Y-2.718
X1.732Y-3.945
X1.75Y-3.717
X1.756Y-2.96
X1.784Y-3.756
X1.7937Y-1.9483
X1.834Y-3.157
X1.8348Y-2.9293
X1.838Y-3.393
X1.89Y-0.867
X1.9048Y-2.9318
X1.9048Y-3.1218
X1.94Y-4.617
X1.9523Y-2.9168
X1.975Y-3.1256
X1.979Y-3.537
X2.011Y-2.817
X2.0137Y-1.5883
X2.014Y-3.577
X2.03Y-3.117
X2.04Y-3.758
X2.066Y-3.957
X2.102Y-3.126
X2.1037Y-1.9083
X2.105Y-4.179
X2.1148Y-2.9193
X2.15Y-2.954
X2.167Y-3.19
X2.18Y-3.519
X2.18Y-3.577
X2.19Y-1.167
X2.19Y-4.617
X2.1998Y-2.9418
X2.22Y-4.087
X2.221Y-3.132
X2.231Y-2.72
X2.238Y-3.522
X2.24Y-2.967
X2.25Y-4.047
X2.258Y-3.595
X2.285Y-3.219
X2.29Y-2.317
X2.29Y-3.398
X2.3Y-4.017
X2.3026Y-3.2906
X2.312Y-2.773
X2.317Y-3.941
X2.3423Y-3.7068
X2.352Y-2.662
X2.363Y-3.973
X2.37Y-2.959
X2.39Y-4.617
X2.44Y-3.637
X2.4445Y-3.162
X2.45Y-4.007
X2.451Y-2.988
X2.456Y-2.807
X2.456Y-3.592
X2.463Y-3.541
X2.4723Y-3.1068
X2.486Y-3.173
X2.49Y-1.167
X2.494Y-3.488
X2.5225Y-3.539
X2.524Y-2.9
X2.537Y-2.836
X2.54Y-1.717
X2.552Y-2.581
X2.557Y-3.721
X2.578Y-2.663
X2.58Y-4.297
X2.593Y-3.227
X2.607Y-3.67
X2.62Y-2.927
X2.63Y-4.337
X2.67Y-2.827
X2.68Y-4.297
X2.72Y-4.267
X2.74Y-2.997
X2.78Y-2.927
X2.89Y-3.117
X2.897Y-2.189
X2.94Y-2.467
X2.944Y-2.24
X2.992Y-2.269
X3.09Y-2.917
X3.14Y-2.417
X3.166Y-2.188
X3.19Y-1.567
X3.19Y-3.667
X3.19Y-3.817
X3.19Y-4.017
X3.19Y-4.217
X3.19Y-4.417
X3.19Y-4.617
X3.29Y-0.867
X3.29Y-1.167
X3.39Y-1.867
X3.44Y-2.017
X3.44Y-3.667
X3.44Y-3.817
X3.49Y-4.217
X3.49Y-4.417
X3.49Y-4.617
X3.52Y-3.337
X3.58Y-1.487
X3.59Y-2.417
X3.61Y-1.267
X3.619Y-2.6552
X3.619Y-3.1352
X3.64Y-3.317
X3.69Y-0.867
X3.69Y-1.167
X3.69Y-4.417
X3.69Y-4.617
X3.74Y-2.317
X3.74Y-2.867
X3.79Y-3.567
X3.869Y-3.3152
X3.879Y-2.4352
X3.94Y-1.717
X3.99Y-0.867
X3.99Y-1.167
X3.99Y-2.867
X3.99Y-4.417
X3.99Y-4.617
X4.04Y-3.367
X4.04Y-3.617
X4.09Y-2.267
X4.091Y-1.753
X4.129Y-3.0552
T2
X2.7583Y-4.5359
X2.9217Y-4.5359
T3
X0.996Y-2.729
X1.2237Y-1.8883
X1.4437Y-2.1383
X1.499Y-2.315
X1.8853Y-3.9284
X1.958Y-2.292
X2.087Y-1.409
X2.23Y-1.567
X2.34Y-1.327
X2.47Y-2.577
X2.59Y-3.367
X3.4Y-1.051
X3.577Y-2.182
X4.Y-2.06
X1.9577Y-2.5593
X2.1498Y-2.5593
X2.69Y-1.847
X2.69Y-2.0391
T4
X1.1845Y-4.3379
X1.2845Y-4.3379
X1.3845Y-4.3379
X1.4845Y-4.3379
X1.5845Y-4.3379
X1.6845Y-4.3379
X1.7845Y-4.3379
X1.8845Y-4.3379
X1.9845Y-4.3379
X2.0845Y-4.3379
X2.1845Y-4.3379
X2.2845Y-4.3379
X2.3845Y-4.3379
X2.4845Y-4.3379
X2.78Y-1.177
X2.78Y-1.277
X1.6829Y-1.1174
X1.7829Y-1.1174
X1.8829Y-1.1174
X1.9829Y-1.1174
X2.96Y-3.67
X2.96Y-3.77
X2.96Y-3.87
X2.34Y-0.867
X2.44Y-0.867
X2.93Y-1.177
X2.93Y-1.277
T0
M30
