G04 #@! TF.GenerationSoftware,KiCad,Pcbnew,(5.0.1)-3*
G04 #@! TF.CreationDate,2018-12-03T23:59:26+01:00*
G04 #@! TF.ProjectId,antennaanalyzernx,616E74656E6E61616E616C797A65726E,rev?*
G04 #@! TF.SameCoordinates,Original*
G04 #@! TF.FileFunction,Legend,Top*
G04 #@! TF.FilePolarity,Positive*
%FSLAX46Y46*%
G04 Gerber Fmt 4.6, Leading zero omitted, Abs format (unit mm)*
G04 Created by KiCad (PCBNEW (5.0.1)-3) date 2018-12-03 23:59:26*
%MOMM*%
%LPD*%
G01*
G04 APERTURE LIST*
%ADD10C,0.150000*%
%ADD11C,0.300000*%
%ADD12C,0.120000*%
%ADD13C,0.381000*%
G04 APERTURE END LIST*
D10*
X21336000Y-119811800D02*
X21336000Y-19989800D01*
X107696000Y-119781800D02*
X21336000Y-119811800D01*
X107696000Y-19989800D02*
X107696000Y-119781800D01*
X21336000Y-19989800D02*
X107696000Y-19989800D01*
D11*
X69898857Y-27437514D02*
X69827428Y-27508942D01*
X69613142Y-27580371D01*
X69470285Y-27580371D01*
X69256000Y-27508942D01*
X69113142Y-27366085D01*
X69041714Y-27223228D01*
X68970285Y-26937514D01*
X68970285Y-26723228D01*
X69041714Y-26437514D01*
X69113142Y-26294657D01*
X69256000Y-26151800D01*
X69470285Y-26080371D01*
X69613142Y-26080371D01*
X69827428Y-26151800D01*
X69898857Y-26223228D01*
X71184571Y-27580371D02*
X71184571Y-26794657D01*
X71113142Y-26651800D01*
X70970285Y-26580371D01*
X70684571Y-26580371D01*
X70541714Y-26651800D01*
X71184571Y-27508942D02*
X71041714Y-27580371D01*
X70684571Y-27580371D01*
X70541714Y-27508942D01*
X70470285Y-27366085D01*
X70470285Y-27223228D01*
X70541714Y-27080371D01*
X70684571Y-27008942D01*
X71041714Y-27008942D01*
X71184571Y-26937514D01*
X72113142Y-27580371D02*
X71970285Y-27508942D01*
X71898857Y-27366085D01*
X71898857Y-26080371D01*
X73553142Y-26080371D02*
X73910285Y-27580371D01*
X74196000Y-26508942D01*
X74481714Y-27580371D01*
X74838857Y-26080371D01*
X75624571Y-27580371D02*
X75481714Y-27508942D01*
X75410285Y-27437514D01*
X75338857Y-27294657D01*
X75338857Y-26866085D01*
X75410285Y-26723228D01*
X75481714Y-26651800D01*
X75624571Y-26580371D01*
X75838857Y-26580371D01*
X75981714Y-26651800D01*
X76053142Y-26723228D01*
X76124571Y-26866085D01*
X76124571Y-27294657D01*
X76053142Y-27437514D01*
X75981714Y-27508942D01*
X75838857Y-27580371D01*
X75624571Y-27580371D01*
X76767428Y-27580371D02*
X76767428Y-26580371D01*
X76767428Y-26866085D02*
X76838857Y-26723228D01*
X76910285Y-26651800D01*
X77053142Y-26580371D01*
X77196000Y-26580371D01*
X77696000Y-27580371D02*
X77696000Y-26080371D01*
X77838857Y-27008942D02*
X78267428Y-27580371D01*
X78267428Y-26580371D02*
X77696000Y-27151800D01*
D10*
X78264095Y-23204466D02*
X78740285Y-23204466D01*
X78168857Y-23490180D02*
X78502190Y-22490180D01*
X78835523Y-23490180D01*
X79168857Y-22823514D02*
X79168857Y-23490180D01*
X79168857Y-22918752D02*
X79216476Y-22871133D01*
X79311714Y-22823514D01*
X79454571Y-22823514D01*
X79549809Y-22871133D01*
X79597428Y-22966371D01*
X79597428Y-23490180D01*
X79930761Y-22823514D02*
X80311714Y-22823514D01*
X80073619Y-22490180D02*
X80073619Y-23347323D01*
X80121238Y-23442561D01*
X80216476Y-23490180D01*
X80311714Y-23490180D01*
X81026000Y-23442561D02*
X80930761Y-23490180D01*
X80740285Y-23490180D01*
X80645047Y-23442561D01*
X80597428Y-23347323D01*
X80597428Y-22966371D01*
X80645047Y-22871133D01*
X80740285Y-22823514D01*
X80930761Y-22823514D01*
X81026000Y-22871133D01*
X81073619Y-22966371D01*
X81073619Y-23061609D01*
X80597428Y-23156847D01*
X81502190Y-22823514D02*
X81502190Y-23490180D01*
X81502190Y-22918752D02*
X81549809Y-22871133D01*
X81645047Y-22823514D01*
X81787904Y-22823514D01*
X81883142Y-22871133D01*
X81930761Y-22966371D01*
X81930761Y-23490180D01*
X82406952Y-22823514D02*
X82406952Y-23490180D01*
X82406952Y-22918752D02*
X82454571Y-22871133D01*
X82549809Y-22823514D01*
X82692666Y-22823514D01*
X82787904Y-22871133D01*
X82835523Y-22966371D01*
X82835523Y-23490180D01*
X83740285Y-23490180D02*
X83740285Y-22966371D01*
X83692666Y-22871133D01*
X83597428Y-22823514D01*
X83406952Y-22823514D01*
X83311714Y-22871133D01*
X83740285Y-23442561D02*
X83645047Y-23490180D01*
X83406952Y-23490180D01*
X83311714Y-23442561D01*
X83264095Y-23347323D01*
X83264095Y-23252085D01*
X83311714Y-23156847D01*
X83406952Y-23109228D01*
X83645047Y-23109228D01*
X83740285Y-23061609D01*
G04 #@! TO.C,U4*
X58857500Y-77882800D02*
X58857500Y-76357800D01*
X59507500Y-92132800D02*
X59507500Y-91372800D01*
X45257500Y-92132800D02*
X45257500Y-91372800D01*
X45257500Y-77882800D02*
X45257500Y-78642800D01*
X59507500Y-77882800D02*
X59507500Y-78642800D01*
X45257500Y-77882800D02*
X46017500Y-77882800D01*
X45257500Y-92132800D02*
X46017500Y-92132800D01*
X59507500Y-92132800D02*
X58747500Y-92132800D01*
X59507500Y-77882800D02*
X58857500Y-77882800D01*
D12*
G04 #@! TO.C,JP1*
X73092000Y-33765800D02*
X75752000Y-33765800D01*
X73092000Y-31165800D02*
X73092000Y-33765800D01*
X75752000Y-31165800D02*
X75752000Y-33765800D01*
X73092000Y-31165800D02*
X75752000Y-31165800D01*
X73092000Y-29895800D02*
X73092000Y-28565800D01*
X73092000Y-28565800D02*
X74422000Y-28565800D01*
G04 #@! TO.C,JP2*
X71942000Y-33765800D02*
X70612000Y-33765800D01*
X71942000Y-32435800D02*
X71942000Y-33765800D01*
X71942000Y-31165800D02*
X69282000Y-31165800D01*
X69282000Y-31165800D02*
X69282000Y-28565800D01*
X71942000Y-31165800D02*
X71942000Y-28565800D01*
X71942000Y-28565800D02*
X69282000Y-28565800D01*
G04 #@! TO.C,R26*
X79595007Y-80812258D02*
X79595007Y-82012258D01*
X77835007Y-82012258D02*
X77835007Y-80812258D01*
G04 #@! TO.C,R31*
X88633007Y-83054258D02*
X87433007Y-83054258D01*
X87433007Y-81294258D02*
X88633007Y-81294258D01*
D10*
G04 #@! TO.C,U1*
X89619000Y-43068800D02*
X89619000Y-43118800D01*
X93769000Y-43068800D02*
X93769000Y-43213800D01*
X93769000Y-48218800D02*
X93769000Y-48073800D01*
X89619000Y-48218800D02*
X89619000Y-48073800D01*
X89619000Y-43068800D02*
X93769000Y-43068800D01*
X89619000Y-48218800D02*
X93769000Y-48218800D01*
X89619000Y-43118800D02*
X88219000Y-43118800D01*
D12*
G04 #@! TO.C,R2*
X78350000Y-39121800D02*
X78350000Y-40321800D01*
X76590000Y-40321800D02*
X76590000Y-39121800D01*
G04 #@! TO.C,R5*
X81670000Y-44639800D02*
X81670000Y-43439800D01*
X83430000Y-43439800D02*
X83430000Y-44639800D01*
G04 #@! TO.C,C33*
X103441007Y-79098258D02*
X103441007Y-78098258D01*
X101741007Y-78098258D02*
X101741007Y-79098258D01*
G04 #@! TO.C,C36*
X86561007Y-72434258D02*
X85561007Y-72434258D01*
X85561007Y-74134258D02*
X86561007Y-74134258D01*
G04 #@! TO.C,C37*
X100784200Y-99091000D02*
X99784200Y-99091000D01*
X99784200Y-100791000D02*
X100784200Y-100791000D01*
G04 #@! TO.C,C38*
X99784200Y-98759000D02*
X100784200Y-98759000D01*
X100784200Y-97059000D02*
X99784200Y-97059000D01*
G04 #@! TO.C,C39*
X88379007Y-56686258D02*
X87379007Y-56686258D01*
X87379007Y-58386258D02*
X88379007Y-58386258D01*
G04 #@! TO.C,C42*
X30307400Y-54653800D02*
X31307400Y-54653800D01*
X31307400Y-52953800D02*
X30307400Y-52953800D01*
G04 #@! TO.C,C1*
X95206000Y-50271800D02*
X96206000Y-50271800D01*
X96206000Y-48571800D02*
X95206000Y-48571800D01*
G04 #@! TO.C,C4*
X85510000Y-41059800D02*
X85510000Y-42059800D01*
X87210000Y-42059800D02*
X87210000Y-41059800D01*
G04 #@! TO.C,C40*
X77279007Y-66672258D02*
X77279007Y-65672258D01*
X75579007Y-65672258D02*
X75579007Y-66672258D01*
G04 #@! TO.C,C51*
X88633007Y-65830258D02*
X87633007Y-65830258D01*
X87633007Y-67530258D02*
X88633007Y-67530258D01*
G04 #@! TO.C,C50*
X103695007Y-68394258D02*
X103695007Y-67394258D01*
X101995007Y-67394258D02*
X101995007Y-68394258D01*
G04 #@! TO.C,C49*
X101663007Y-68400258D02*
X101663007Y-67400258D01*
X99963007Y-67400258D02*
X99963007Y-68400258D01*
G04 #@! TO.C,C48*
X58755400Y-54907800D02*
X59755400Y-54907800D01*
X59755400Y-53207800D02*
X58755400Y-53207800D01*
G04 #@! TO.C,C46*
X58271400Y-41523800D02*
X57271400Y-41523800D01*
X57271400Y-43223800D02*
X58271400Y-43223800D01*
G04 #@! TO.C,C44*
X30037400Y-41523800D02*
X29037400Y-41523800D01*
X29037400Y-43223800D02*
X30037400Y-43223800D01*
G04 #@! TO.C,C34*
X88633007Y-79292258D02*
X87633007Y-79292258D01*
X87633007Y-80992258D02*
X88633007Y-80992258D01*
G04 #@! TO.C,C2*
X73748000Y-45147800D02*
X73748000Y-44147800D01*
X72048000Y-44147800D02*
X72048000Y-45147800D01*
G04 #@! TO.C,C5*
X90690000Y-40729800D02*
X89690000Y-40729800D01*
X89690000Y-42429800D02*
X90690000Y-42429800D01*
G04 #@! TO.C,C6*
X95238000Y-42683800D02*
X96238000Y-42683800D01*
X96238000Y-40983800D02*
X95238000Y-40983800D01*
G04 #@! TO.C,C7*
X78320000Y-45147800D02*
X78320000Y-44147800D01*
X76620000Y-44147800D02*
X76620000Y-45147800D01*
G04 #@! TO.C,C30*
X99709007Y-78098258D02*
X99709007Y-79098258D01*
X101409007Y-79098258D02*
X101409007Y-78098258D01*
G04 #@! TO.C,C18*
X84844000Y-35825800D02*
X85844000Y-35825800D01*
X85844000Y-34125800D02*
X84844000Y-34125800D01*
G04 #@! TO.C,C19*
X89690000Y-40397800D02*
X90690000Y-40397800D01*
X90690000Y-38697800D02*
X89690000Y-38697800D01*
G04 #@! TO.C,C20*
X96024000Y-30569800D02*
X95024000Y-30569800D01*
X95024000Y-32269800D02*
X96024000Y-32269800D01*
G04 #@! TO.C,C35*
X69309007Y-77514258D02*
X68309007Y-77514258D01*
X68309007Y-79214258D02*
X69309007Y-79214258D01*
G04 #@! TO.C,C11*
X87130000Y-32523800D02*
X88130000Y-32523800D01*
X88130000Y-30823800D02*
X87130000Y-30823800D01*
G04 #@! TO.C,C52*
X69309007Y-69132258D02*
X68309007Y-69132258D01*
X68309007Y-70832258D02*
X69309007Y-70832258D01*
G04 #@! TO.C,C28*
X75579007Y-80892258D02*
X75579007Y-81892258D01*
X77279007Y-81892258D02*
X77279007Y-80892258D01*
G04 #@! TO.C,C27*
X87339007Y-90136258D02*
X88339007Y-90136258D01*
X88339007Y-88436258D02*
X87339007Y-88436258D01*
G04 #@! TO.C,C3*
X81800000Y-50127800D02*
X80800000Y-50127800D01*
X80800000Y-51827800D02*
X81800000Y-51827800D01*
G04 #@! TO.C,L1*
X100600000Y-39757800D02*
X98600000Y-39757800D01*
X98600000Y-36797800D02*
X100600000Y-36797800D01*
G04 #@! TO.C,L2*
X67100000Y-40515800D02*
X67100000Y-38515800D01*
X70060000Y-38515800D02*
X70060000Y-40515800D01*
G04 #@! TO.C,L3*
X100568000Y-36201800D02*
X98568000Y-36201800D01*
X98568000Y-33241800D02*
X100568000Y-33241800D01*
G04 #@! TO.C,R44*
X68209007Y-67070258D02*
X69409007Y-67070258D01*
X69409007Y-68830258D02*
X68209007Y-68830258D01*
G04 #@! TO.C,R43*
X87513007Y-63768258D02*
X88713007Y-63768258D01*
X88713007Y-65528258D02*
X87513007Y-65528258D01*
G04 #@! TO.C,R42*
X68209007Y-63768258D02*
X69409007Y-63768258D01*
X69409007Y-65528258D02*
X68209007Y-65528258D01*
G04 #@! TO.C,R41*
X87469007Y-60412258D02*
X87469007Y-61612258D01*
X85709007Y-61612258D02*
X85709007Y-60412258D01*
G04 #@! TO.C,R34*
X99579007Y-65238258D02*
X99579007Y-66438258D01*
X97819007Y-66438258D02*
X97819007Y-65238258D01*
G04 #@! TO.C,R38*
X79595007Y-65572258D02*
X79595007Y-66772258D01*
X77835007Y-66772258D02*
X77835007Y-65572258D01*
G04 #@! TO.C,R36*
X87593007Y-67832258D02*
X88793007Y-67832258D01*
X88793007Y-69592258D02*
X87593007Y-69592258D01*
G04 #@! TO.C,R35*
X97859007Y-70154258D02*
X96659007Y-70154258D01*
X96659007Y-68394258D02*
X97859007Y-68394258D01*
G04 #@! TO.C,R4*
X80506000Y-46541800D02*
X81706000Y-46541800D01*
X81706000Y-48301800D02*
X80506000Y-48301800D01*
G04 #@! TO.C,R1*
X74688000Y-39157800D02*
X73488000Y-39157800D01*
X73488000Y-37397800D02*
X74688000Y-37397800D01*
G04 #@! TO.C,R10*
X78350000Y-34055800D02*
X78350000Y-35255800D01*
X76590000Y-35255800D02*
X76590000Y-34055800D01*
G04 #@! TO.C,R23*
X97683007Y-77974258D02*
X96483007Y-77974258D01*
X96483007Y-76214258D02*
X97683007Y-76214258D01*
G04 #@! TO.C,R37*
X80121007Y-66772258D02*
X80121007Y-65572258D01*
X81881007Y-65572258D02*
X81881007Y-66772258D01*
G04 #@! TO.C,R6*
X78902000Y-52637800D02*
X80102000Y-52637800D01*
X80102000Y-54397800D02*
X78902000Y-54397800D01*
G04 #@! TO.C,R7*
X73568000Y-52637800D02*
X74768000Y-52637800D01*
X74768000Y-54397800D02*
X73568000Y-54397800D01*
G04 #@! TO.C,R25*
X81881007Y-80812258D02*
X81881007Y-82012258D01*
X80121007Y-82012258D02*
X80121007Y-80812258D01*
G04 #@! TO.C,R11*
X78876000Y-35255800D02*
X78876000Y-34055800D01*
X80636000Y-34055800D02*
X80636000Y-35255800D01*
G04 #@! TO.C,R15*
X78876000Y-30321800D02*
X78876000Y-29121800D01*
X80636000Y-29121800D02*
X80636000Y-30321800D01*
G04 #@! TO.C,R16*
X68444000Y-28025800D02*
X68444000Y-29225800D01*
X66684000Y-29225800D02*
X66684000Y-28025800D01*
G04 #@! TO.C,R22*
X97535007Y-81330258D02*
X97535007Y-80130258D01*
X99295007Y-80130258D02*
X99295007Y-81330258D01*
G04 #@! TO.C,R24*
X87687007Y-77230258D02*
X88887007Y-77230258D01*
X88887007Y-78990258D02*
X87687007Y-78990258D01*
G04 #@! TO.C,R27*
X90878200Y-102345000D02*
X89678200Y-102345000D01*
X89678200Y-100585000D02*
X90878200Y-100585000D01*
G04 #@! TO.C,R28*
X87469007Y-85210258D02*
X87469007Y-86410258D01*
X85709007Y-86410258D02*
X85709007Y-85210258D01*
G04 #@! TO.C,R29*
X68209007Y-82564258D02*
X69409007Y-82564258D01*
X69409007Y-84324258D02*
X68209007Y-84324258D01*
G04 #@! TO.C,R30*
X94504200Y-100585000D02*
X95704200Y-100585000D01*
X95704200Y-102345000D02*
X94504200Y-102345000D01*
G04 #@! TO.C,R32*
X69409007Y-81276258D02*
X68209007Y-81276258D01*
X68209007Y-79516258D02*
X69409007Y-79516258D01*
D13*
G04 #@! TO.C,J2*
X71915020Y-23776940D02*
X70914260Y-23776940D01*
X74414380Y-23776940D02*
X73413620Y-23776940D01*
X76913740Y-23776940D02*
X75912980Y-23776940D01*
D10*
G04 #@! TO.C,U2*
X73509000Y-47495800D02*
X72284000Y-47495800D01*
X73509000Y-50620800D02*
X76859000Y-50620800D01*
X73509000Y-47270800D02*
X76859000Y-47270800D01*
X73509000Y-50620800D02*
X73509000Y-50320800D01*
X76859000Y-50620800D02*
X76859000Y-50320800D01*
X76859000Y-47270800D02*
X76859000Y-47570800D01*
X73509000Y-47270800D02*
X73509000Y-47495800D01*
D12*
G04 #@! TO.C,C47*
X45815400Y-48471800D02*
X45815400Y-50651800D01*
X45815400Y-55071800D02*
X45815400Y-52891800D01*
X52415400Y-49231800D02*
X52415400Y-50651800D01*
X52415400Y-54311800D02*
X52415400Y-52891800D01*
X45815400Y-48471800D02*
X51655400Y-48471800D01*
X51655400Y-48471800D02*
X52415400Y-49231800D01*
X52415400Y-54311800D02*
X51655400Y-55071800D01*
X51655400Y-55071800D02*
X45815400Y-55071800D01*
G04 #@! TO.C,C45*
X51655400Y-47451800D02*
X45815400Y-47451800D01*
X52415400Y-46691800D02*
X51655400Y-47451800D01*
X51655400Y-40851800D02*
X52415400Y-41611800D01*
X45815400Y-40851800D02*
X51655400Y-40851800D01*
X52415400Y-46691800D02*
X52415400Y-45271800D01*
X52415400Y-41611800D02*
X52415400Y-43031800D01*
X45815400Y-47451800D02*
X45815400Y-45271800D01*
X45815400Y-40851800D02*
X45815400Y-43031800D01*
G04 #@! TO.C,C43*
X42763400Y-47451800D02*
X42763400Y-45271800D01*
X42763400Y-40851800D02*
X42763400Y-43031800D01*
X36163400Y-46691800D02*
X36163400Y-45271800D01*
X36163400Y-41611800D02*
X36163400Y-43031800D01*
X42763400Y-47451800D02*
X36923400Y-47451800D01*
X36923400Y-47451800D02*
X36163400Y-46691800D01*
X36163400Y-41611800D02*
X36923400Y-40851800D01*
X36923400Y-40851800D02*
X42763400Y-40851800D01*
G04 #@! TO.C,C41*
X36923400Y-48471800D02*
X42763400Y-48471800D01*
X36163400Y-49231800D02*
X36923400Y-48471800D01*
X36923400Y-55071800D02*
X36163400Y-54311800D01*
X42763400Y-55071800D02*
X36923400Y-55071800D01*
X36163400Y-49231800D02*
X36163400Y-50651800D01*
X36163400Y-54311800D02*
X36163400Y-52891800D01*
X42763400Y-48471800D02*
X42763400Y-50651800D01*
X42763400Y-55071800D02*
X42763400Y-52891800D01*
G04 #@! TO.C,D4*
X43249400Y-57701800D02*
X43249400Y-56001800D01*
X43249400Y-56001800D02*
X40699400Y-56001800D01*
X43249400Y-57701800D02*
X40699400Y-57701800D01*
G04 #@! TO.C,D5*
X43249400Y-59733800D02*
X43249400Y-58033800D01*
X43249400Y-58033800D02*
X40699400Y-58033800D01*
X43249400Y-59733800D02*
X40699400Y-59733800D01*
D10*
G04 #@! TO.C,U3*
X89619000Y-32908800D02*
X89619000Y-32958800D01*
X93769000Y-32908800D02*
X93769000Y-33053800D01*
X93769000Y-38058800D02*
X93769000Y-37913800D01*
X89619000Y-38058800D02*
X89619000Y-37913800D01*
X89619000Y-32908800D02*
X93769000Y-32908800D01*
X89619000Y-38058800D02*
X93769000Y-38058800D01*
X89619000Y-32958800D02*
X88219000Y-32958800D01*
D12*
G04 #@! TO.C,U7*
X34237400Y-46051800D02*
X32977400Y-46051800D01*
X27417400Y-46051800D02*
X28677400Y-46051800D01*
X34237400Y-49811800D02*
X34237400Y-46051800D01*
X27417400Y-52061800D02*
X27417400Y-46051800D01*
G04 #@! TO.C,U8*
X61415400Y-44115800D02*
X61415400Y-50125800D01*
X54595400Y-46365800D02*
X54595400Y-50125800D01*
X61415400Y-50125800D02*
X60155400Y-50125800D01*
X54595400Y-50125800D02*
X55855400Y-50125800D01*
G04 #@! TO.C,D1*
X67412400Y-98322214D02*
X67412400Y-101522214D01*
X65912400Y-101522214D02*
X65912400Y-98322214D01*
X65912400Y-101522214D02*
X67412400Y-101522214D01*
G04 #@! TO.C,D2*
X67842400Y-101532214D02*
X69342400Y-101532214D01*
X67842400Y-101532214D02*
X67842400Y-98332214D01*
X69342400Y-98332214D02*
X69342400Y-101532214D01*
G04 #@! TO.C,D3*
X69722400Y-101512214D02*
X71222400Y-101512214D01*
X69722400Y-101512214D02*
X69722400Y-98312214D01*
X71222400Y-98312214D02*
X71222400Y-101512214D01*
G04 #@! TO.C,R20*
X68209007Y-84596258D02*
X69409007Y-84596258D01*
X69409007Y-86356258D02*
X68209007Y-86356258D01*
G04 #@! TO.C,R33*
X68209007Y-61736258D02*
X69409007Y-61736258D01*
X69409007Y-63496258D02*
X68209007Y-63496258D01*
G04 #@! TO.C,R12*
X67532400Y-103512214D02*
X67532400Y-104712214D01*
X65772400Y-104712214D02*
X65772400Y-103512214D01*
G04 #@! TO.C,R13*
X67712400Y-104712214D02*
X67712400Y-103512214D01*
X69472400Y-103512214D02*
X69472400Y-104712214D01*
G04 #@! TO.C,R14*
X69632400Y-104722214D02*
X69632400Y-103522214D01*
X71392400Y-103522214D02*
X71392400Y-104722214D01*
G04 #@! TO.C,J5*
X63306000Y-23351800D02*
X63306000Y-20691800D01*
X60706000Y-23351800D02*
X63306000Y-23351800D01*
X60706000Y-20691800D02*
X63306000Y-20691800D01*
X60706000Y-23351800D02*
X60706000Y-20691800D01*
X59436000Y-23351800D02*
X58106000Y-23351800D01*
X58106000Y-23351800D02*
X58106000Y-22021800D01*
G04 #@! TO.C,J6*
X41416000Y-29711800D02*
X41416000Y-28381800D01*
X42746000Y-29711800D02*
X41416000Y-29711800D01*
X44016000Y-29711800D02*
X44016000Y-27051800D01*
X44016000Y-27051800D02*
X51696000Y-27051800D01*
X44016000Y-29711800D02*
X51696000Y-29711800D01*
X51696000Y-29711800D02*
X51696000Y-27051800D01*
G04 #@! TO.C,C8*
X64528000Y-113627800D02*
X63528000Y-113627800D01*
X63528000Y-115327800D02*
X64528000Y-115327800D01*
G04 #@! TO.C,C9*
X38440500Y-91191800D02*
X39440500Y-91191800D01*
X39440500Y-89491800D02*
X38440500Y-89491800D01*
G04 #@! TO.C,C10*
X56612500Y-96445800D02*
X56612500Y-97445800D01*
X58312500Y-97445800D02*
X58312500Y-96445800D01*
G04 #@! TO.C,C29*
X38567500Y-65474300D02*
X39567500Y-65474300D01*
X39567500Y-63774300D02*
X38567500Y-63774300D01*
G04 #@! TO.C,C31*
X58327000Y-63997300D02*
X58327000Y-64997300D01*
X60027000Y-64997300D02*
X60027000Y-63997300D01*
G04 #@! TO.C,C32*
X45803000Y-64997300D02*
X45803000Y-63997300D01*
X44103000Y-63997300D02*
X44103000Y-64997300D01*
G04 #@! TO.C,J7*
X76514000Y-99628000D02*
X75184000Y-99628000D01*
X76514000Y-98298000D02*
X76514000Y-99628000D01*
X76514000Y-97028000D02*
X73854000Y-97028000D01*
X73854000Y-97028000D02*
X73854000Y-91888000D01*
X76514000Y-97028000D02*
X76514000Y-91888000D01*
X76514000Y-91888000D02*
X73854000Y-91888000D01*
G04 #@! TO.C,R3*
X61096000Y-99249800D02*
X61096000Y-98049800D01*
X62856000Y-98049800D02*
X62856000Y-99249800D01*
G04 #@! TO.C,R17*
X26831400Y-69615600D02*
X26831400Y-68415600D01*
X28591400Y-68415600D02*
X28591400Y-69615600D01*
G04 #@! TO.C,R18*
X73016000Y-91351800D02*
X73016000Y-92551800D01*
X71256000Y-92551800D02*
X71256000Y-91351800D01*
G04 #@! TO.C,R19*
X32883400Y-78324600D02*
X31683400Y-78324600D01*
X31683400Y-76564600D02*
X32883400Y-76564600D01*
G04 #@! TO.C,R21*
X47006000Y-106331800D02*
X47006000Y-105131800D01*
X48766000Y-105131800D02*
X48766000Y-106331800D01*
D10*
G04 #@! TO.C,U5*
X95189200Y-99740000D02*
X96589200Y-99740000D01*
X95189200Y-94640000D02*
X91039200Y-94640000D01*
X95189200Y-99790000D02*
X91039200Y-99790000D01*
X95189200Y-94640000D02*
X95189200Y-94785000D01*
X91039200Y-94640000D02*
X91039200Y-94785000D01*
X91039200Y-99790000D02*
X91039200Y-99645000D01*
X95189200Y-99790000D02*
X95189200Y-99740000D01*
G04 #@! TO.C,U6*
X80348007Y-78285258D02*
X81723007Y-78285258D01*
X80348007Y-69410258D02*
X76198007Y-69410258D01*
X80348007Y-78310258D02*
X76198007Y-78310258D01*
X80348007Y-69410258D02*
X80348007Y-69525258D01*
X76198007Y-69410258D02*
X76198007Y-69525258D01*
X76198007Y-78310258D02*
X76198007Y-78195258D01*
X80348007Y-78310258D02*
X80348007Y-78285258D01*
D12*
G04 #@! TO.C,Y1*
X70851000Y-46228800D02*
X70851000Y-52478800D01*
X65801000Y-46228800D02*
X65801000Y-52478800D01*
X65801000Y-46228800D02*
G75*
G02X70851000Y-46228800I2525000J0D01*
G01*
X65801000Y-52478800D02*
G75*
G03X70851000Y-52478800I2525000J0D01*
G01*
G04 #@! TO.C,Y2*
X49040000Y-62480300D02*
G75*
G03X49040000Y-67530300I0J-2525000D01*
G01*
X55290000Y-62480300D02*
G75*
G02X55290000Y-67530300I0J-2525000D01*
G01*
X55290000Y-62480300D02*
X49040000Y-62480300D01*
X55290000Y-67530300D02*
X49040000Y-67530300D01*
G04 #@! TO.C,J4*
X64436000Y-108851800D02*
X64436000Y-110181800D01*
X63106000Y-108851800D02*
X64436000Y-108851800D01*
X61836000Y-108851800D02*
X61836000Y-111511800D01*
X61836000Y-111511800D02*
X28756000Y-111511800D01*
X61836000Y-108851800D02*
X28756000Y-108851800D01*
X28756000Y-108851800D02*
X28756000Y-111511800D01*
D10*
G04 #@! TO.C,J1*
X65786000Y-119810800D02*
X78486000Y-119810800D01*
G04 #@! TD*
G04 #@! TO.C,U4*
X61484880Y-85769704D02*
X62294404Y-85769704D01*
X62389642Y-85722085D01*
X62437261Y-85674466D01*
X62484880Y-85579228D01*
X62484880Y-85388752D01*
X62437261Y-85293514D01*
X62389642Y-85245895D01*
X62294404Y-85198276D01*
X61484880Y-85198276D01*
X61818214Y-84293514D02*
X62484880Y-84293514D01*
X61437261Y-84531609D02*
X62151547Y-84769704D01*
X62151547Y-84150657D01*
G04 #@! TO.C,R26*
X79100205Y-86000997D02*
X78624015Y-86334330D01*
X79100205Y-86572425D02*
X78100205Y-86572425D01*
X78100205Y-86191473D01*
X78147825Y-86096235D01*
X78195444Y-86048616D01*
X78290682Y-86000997D01*
X78433539Y-86000997D01*
X78528777Y-86048616D01*
X78576396Y-86096235D01*
X78624015Y-86191473D01*
X78624015Y-86572425D01*
X78195444Y-85620044D02*
X78147825Y-85572425D01*
X78100205Y-85477187D01*
X78100205Y-85239092D01*
X78147825Y-85143854D01*
X78195444Y-85096235D01*
X78290682Y-85048616D01*
X78385920Y-85048616D01*
X78528777Y-85096235D01*
X79100205Y-85667663D01*
X79100205Y-85048616D01*
X78100205Y-84191473D02*
X78100205Y-84381949D01*
X78147825Y-84477187D01*
X78195444Y-84524806D01*
X78338301Y-84620044D01*
X78528777Y-84667663D01*
X78909729Y-84667663D01*
X79004967Y-84620044D01*
X79052586Y-84572425D01*
X79100205Y-84477187D01*
X79100205Y-84286711D01*
X79052586Y-84191473D01*
X79004967Y-84143854D01*
X78909729Y-84096235D01*
X78671634Y-84096235D01*
X78576396Y-84143854D01*
X78528777Y-84191473D01*
X78481158Y-84286711D01*
X78481158Y-84477187D01*
X78528777Y-84572425D01*
X78576396Y-84620044D01*
X78671634Y-84667663D01*
G04 #@! TO.C,R31*
X91336031Y-82693820D02*
X91002698Y-82217630D01*
X90764603Y-82693820D02*
X90764603Y-81693820D01*
X91145555Y-81693820D01*
X91240793Y-81741440D01*
X91288412Y-81789059D01*
X91336031Y-81884297D01*
X91336031Y-82027154D01*
X91288412Y-82122392D01*
X91240793Y-82170011D01*
X91145555Y-82217630D01*
X90764603Y-82217630D01*
X91669365Y-81693820D02*
X92288412Y-81693820D01*
X91955079Y-82074773D01*
X92097936Y-82074773D01*
X92193174Y-82122392D01*
X92240793Y-82170011D01*
X92288412Y-82265249D01*
X92288412Y-82503344D01*
X92240793Y-82598582D01*
X92193174Y-82646201D01*
X92097936Y-82693820D01*
X91812222Y-82693820D01*
X91716984Y-82646201D01*
X91669365Y-82598582D01*
X93240793Y-82693820D02*
X92669365Y-82693820D01*
X92955079Y-82693820D02*
X92955079Y-81693820D01*
X92859841Y-81836678D01*
X92764603Y-81931916D01*
X92669365Y-81979535D01*
G04 #@! TO.C,U1*
X96012095Y-45096180D02*
X96012095Y-45905704D01*
X96059714Y-46000942D01*
X96107333Y-46048561D01*
X96202571Y-46096180D01*
X96393047Y-46096180D01*
X96488285Y-46048561D01*
X96535904Y-46000942D01*
X96583523Y-45905704D01*
X96583523Y-45096180D01*
X97583523Y-46096180D02*
X97012095Y-46096180D01*
X97297809Y-46096180D02*
X97297809Y-45096180D01*
X97202571Y-45239038D01*
X97107333Y-45334276D01*
X97012095Y-45381895D01*
G04 #@! TO.C,R2*
X79622380Y-39888466D02*
X79146190Y-40221800D01*
X79622380Y-40459895D02*
X78622380Y-40459895D01*
X78622380Y-40078942D01*
X78670000Y-39983704D01*
X78717619Y-39936085D01*
X78812857Y-39888466D01*
X78955714Y-39888466D01*
X79050952Y-39936085D01*
X79098571Y-39983704D01*
X79146190Y-40078942D01*
X79146190Y-40459895D01*
X78717619Y-39507514D02*
X78670000Y-39459895D01*
X78622380Y-39364657D01*
X78622380Y-39126561D01*
X78670000Y-39031323D01*
X78717619Y-38983704D01*
X78812857Y-38936085D01*
X78908095Y-38936085D01*
X79050952Y-38983704D01*
X79622380Y-39555133D01*
X79622380Y-38936085D01*
G04 #@! TO.C,R5*
X81302380Y-44206466D02*
X80826190Y-44539800D01*
X81302380Y-44777895D02*
X80302380Y-44777895D01*
X80302380Y-44396942D01*
X80350000Y-44301704D01*
X80397619Y-44254085D01*
X80492857Y-44206466D01*
X80635714Y-44206466D01*
X80730952Y-44254085D01*
X80778571Y-44301704D01*
X80826190Y-44396942D01*
X80826190Y-44777895D01*
X80302380Y-43301704D02*
X80302380Y-43777895D01*
X80778571Y-43825514D01*
X80730952Y-43777895D01*
X80683333Y-43682657D01*
X80683333Y-43444561D01*
X80730952Y-43349323D01*
X80778571Y-43301704D01*
X80873809Y-43254085D01*
X81111904Y-43254085D01*
X81207142Y-43301704D01*
X81254761Y-43349323D01*
X81302380Y-43444561D01*
X81302380Y-43682657D01*
X81254761Y-43777895D01*
X81207142Y-43825514D01*
G04 #@! TO.C,C33*
X102948149Y-83031115D02*
X102995768Y-83078734D01*
X103043387Y-83221591D01*
X103043387Y-83316829D01*
X102995768Y-83459686D01*
X102900530Y-83554924D01*
X102805292Y-83602543D01*
X102614816Y-83650162D01*
X102471959Y-83650162D01*
X102281483Y-83602543D01*
X102186245Y-83554924D01*
X102091007Y-83459686D01*
X102043387Y-83316829D01*
X102043387Y-83221591D01*
X102091007Y-83078734D01*
X102138626Y-83031115D01*
X102043387Y-82697781D02*
X102043387Y-82078734D01*
X102424340Y-82412067D01*
X102424340Y-82269210D01*
X102471959Y-82173972D01*
X102519578Y-82126353D01*
X102614816Y-82078734D01*
X102852911Y-82078734D01*
X102948149Y-82126353D01*
X102995768Y-82173972D01*
X103043387Y-82269210D01*
X103043387Y-82554924D01*
X102995768Y-82650162D01*
X102948149Y-82697781D01*
X102043387Y-81745400D02*
X102043387Y-81126353D01*
X102424340Y-81459686D01*
X102424340Y-81316829D01*
X102471959Y-81221591D01*
X102519578Y-81173972D01*
X102614816Y-81126353D01*
X102852911Y-81126353D01*
X102948149Y-81173972D01*
X102995768Y-81221591D01*
X103043387Y-81316829D01*
X103043387Y-81602543D01*
X102995768Y-81697781D01*
X102948149Y-81745400D01*
G04 #@! TO.C,C36*
X89518149Y-73471400D02*
X89470530Y-73519019D01*
X89327673Y-73566638D01*
X89232435Y-73566638D01*
X89089578Y-73519019D01*
X88994340Y-73423781D01*
X88946721Y-73328543D01*
X88899102Y-73138067D01*
X88899102Y-72995210D01*
X88946721Y-72804734D01*
X88994340Y-72709496D01*
X89089578Y-72614258D01*
X89232435Y-72566638D01*
X89327673Y-72566638D01*
X89470530Y-72614258D01*
X89518149Y-72661877D01*
X89851483Y-72566638D02*
X90470530Y-72566638D01*
X90137197Y-72947591D01*
X90280054Y-72947591D01*
X90375292Y-72995210D01*
X90422911Y-73042829D01*
X90470530Y-73138067D01*
X90470530Y-73376162D01*
X90422911Y-73471400D01*
X90375292Y-73519019D01*
X90280054Y-73566638D01*
X89994340Y-73566638D01*
X89899102Y-73519019D01*
X89851483Y-73471400D01*
X91327673Y-72566638D02*
X91137197Y-72566638D01*
X91041959Y-72614258D01*
X90994340Y-72661877D01*
X90899102Y-72804734D01*
X90851483Y-72995210D01*
X90851483Y-73376162D01*
X90899102Y-73471400D01*
X90946721Y-73519019D01*
X91041959Y-73566638D01*
X91232435Y-73566638D01*
X91327673Y-73519019D01*
X91375292Y-73471400D01*
X91422911Y-73376162D01*
X91422911Y-73138067D01*
X91375292Y-73042829D01*
X91327673Y-72995210D01*
X91232435Y-72947591D01*
X91041959Y-72947591D01*
X90946721Y-72995210D01*
X90899102Y-73042829D01*
X90851483Y-73138067D01*
G04 #@! TO.C,C37*
X99641342Y-102076142D02*
X99593723Y-102123761D01*
X99450866Y-102171380D01*
X99355628Y-102171380D01*
X99212771Y-102123761D01*
X99117533Y-102028523D01*
X99069914Y-101933285D01*
X99022295Y-101742809D01*
X99022295Y-101599952D01*
X99069914Y-101409476D01*
X99117533Y-101314238D01*
X99212771Y-101219000D01*
X99355628Y-101171380D01*
X99450866Y-101171380D01*
X99593723Y-101219000D01*
X99641342Y-101266619D01*
X99974676Y-101171380D02*
X100593723Y-101171380D01*
X100260390Y-101552333D01*
X100403247Y-101552333D01*
X100498485Y-101599952D01*
X100546104Y-101647571D01*
X100593723Y-101742809D01*
X100593723Y-101980904D01*
X100546104Y-102076142D01*
X100498485Y-102123761D01*
X100403247Y-102171380D01*
X100117533Y-102171380D01*
X100022295Y-102123761D01*
X99974676Y-102076142D01*
X100927057Y-101171380D02*
X101593723Y-101171380D01*
X101165152Y-102171380D01*
G04 #@! TO.C,C38*
X99641342Y-96516142D02*
X99593723Y-96563761D01*
X99450866Y-96611380D01*
X99355628Y-96611380D01*
X99212771Y-96563761D01*
X99117533Y-96468523D01*
X99069914Y-96373285D01*
X99022295Y-96182809D01*
X99022295Y-96039952D01*
X99069914Y-95849476D01*
X99117533Y-95754238D01*
X99212771Y-95659000D01*
X99355628Y-95611380D01*
X99450866Y-95611380D01*
X99593723Y-95659000D01*
X99641342Y-95706619D01*
X99974676Y-95611380D02*
X100593723Y-95611380D01*
X100260390Y-95992333D01*
X100403247Y-95992333D01*
X100498485Y-96039952D01*
X100546104Y-96087571D01*
X100593723Y-96182809D01*
X100593723Y-96420904D01*
X100546104Y-96516142D01*
X100498485Y-96563761D01*
X100403247Y-96611380D01*
X100117533Y-96611380D01*
X100022295Y-96563761D01*
X99974676Y-96516142D01*
X101165152Y-96039952D02*
X101069914Y-95992333D01*
X101022295Y-95944714D01*
X100974676Y-95849476D01*
X100974676Y-95801857D01*
X101022295Y-95706619D01*
X101069914Y-95659000D01*
X101165152Y-95611380D01*
X101355628Y-95611380D01*
X101450866Y-95659000D01*
X101498485Y-95706619D01*
X101546104Y-95801857D01*
X101546104Y-95849476D01*
X101498485Y-95944714D01*
X101450866Y-95992333D01*
X101355628Y-96039952D01*
X101165152Y-96039952D01*
X101069914Y-96087571D01*
X101022295Y-96135190D01*
X100974676Y-96230428D01*
X100974676Y-96420904D01*
X101022295Y-96516142D01*
X101069914Y-96563761D01*
X101165152Y-96611380D01*
X101355628Y-96611380D01*
X101450866Y-96563761D01*
X101498485Y-96516142D01*
X101546104Y-96420904D01*
X101546104Y-96230428D01*
X101498485Y-96135190D01*
X101450866Y-96087571D01*
X101355628Y-96039952D01*
G04 #@! TO.C,C39*
X91236149Y-57923400D02*
X91188530Y-57971019D01*
X91045673Y-58018638D01*
X90950435Y-58018638D01*
X90807578Y-57971019D01*
X90712340Y-57875781D01*
X90664721Y-57780543D01*
X90617102Y-57590067D01*
X90617102Y-57447210D01*
X90664721Y-57256734D01*
X90712340Y-57161496D01*
X90807578Y-57066258D01*
X90950435Y-57018638D01*
X91045673Y-57018638D01*
X91188530Y-57066258D01*
X91236149Y-57113877D01*
X91569483Y-57018638D02*
X92188530Y-57018638D01*
X91855197Y-57399591D01*
X91998054Y-57399591D01*
X92093292Y-57447210D01*
X92140911Y-57494829D01*
X92188530Y-57590067D01*
X92188530Y-57828162D01*
X92140911Y-57923400D01*
X92093292Y-57971019D01*
X91998054Y-58018638D01*
X91712340Y-58018638D01*
X91617102Y-57971019D01*
X91569483Y-57923400D01*
X92664721Y-58018638D02*
X92855197Y-58018638D01*
X92950435Y-57971019D01*
X92998054Y-57923400D01*
X93093292Y-57780543D01*
X93140911Y-57590067D01*
X93140911Y-57209115D01*
X93093292Y-57113877D01*
X93045673Y-57066258D01*
X92950435Y-57018638D01*
X92759959Y-57018638D01*
X92664721Y-57066258D01*
X92617102Y-57113877D01*
X92569483Y-57209115D01*
X92569483Y-57447210D01*
X92617102Y-57542448D01*
X92664721Y-57590067D01*
X92759959Y-57637686D01*
X92950435Y-57637686D01*
X93045673Y-57590067D01*
X93093292Y-57542448D01*
X93140911Y-57447210D01*
G04 #@! TO.C,C42*
X30438542Y-55684942D02*
X30390923Y-55732561D01*
X30248066Y-55780180D01*
X30152828Y-55780180D01*
X30009971Y-55732561D01*
X29914733Y-55637323D01*
X29867114Y-55542085D01*
X29819495Y-55351609D01*
X29819495Y-55208752D01*
X29867114Y-55018276D01*
X29914733Y-54923038D01*
X30009971Y-54827800D01*
X30152828Y-54780180D01*
X30248066Y-54780180D01*
X30390923Y-54827800D01*
X30438542Y-54875419D01*
X31295685Y-55113514D02*
X31295685Y-55780180D01*
X31057590Y-54732561D02*
X30819495Y-55446847D01*
X31438542Y-55446847D01*
X31771876Y-54875419D02*
X31819495Y-54827800D01*
X31914733Y-54780180D01*
X32152828Y-54780180D01*
X32248066Y-54827800D01*
X32295685Y-54875419D01*
X32343304Y-54970657D01*
X32343304Y-55065895D01*
X32295685Y-55208752D01*
X31724257Y-55780180D01*
X32343304Y-55780180D01*
G04 #@! TO.C,C1*
X95539333Y-51302942D02*
X95491714Y-51350561D01*
X95348857Y-51398180D01*
X95253619Y-51398180D01*
X95110761Y-51350561D01*
X95015523Y-51255323D01*
X94967904Y-51160085D01*
X94920285Y-50969609D01*
X94920285Y-50826752D01*
X94967904Y-50636276D01*
X95015523Y-50541038D01*
X95110761Y-50445800D01*
X95253619Y-50398180D01*
X95348857Y-50398180D01*
X95491714Y-50445800D01*
X95539333Y-50493419D01*
X96491714Y-51398180D02*
X95920285Y-51398180D01*
X96206000Y-51398180D02*
X96206000Y-50398180D01*
X96110761Y-50541038D01*
X96015523Y-50636276D01*
X95920285Y-50683895D01*
G04 #@! TO.C,C4*
X84967142Y-41726466D02*
X85014761Y-41774085D01*
X85062380Y-41916942D01*
X85062380Y-42012180D01*
X85014761Y-42155038D01*
X84919523Y-42250276D01*
X84824285Y-42297895D01*
X84633809Y-42345514D01*
X84490952Y-42345514D01*
X84300476Y-42297895D01*
X84205238Y-42250276D01*
X84110000Y-42155038D01*
X84062380Y-42012180D01*
X84062380Y-41916942D01*
X84110000Y-41774085D01*
X84157619Y-41726466D01*
X84395714Y-40869323D02*
X85062380Y-40869323D01*
X84014761Y-41107419D02*
X84729047Y-41345514D01*
X84729047Y-40726466D01*
G04 #@! TO.C,C40*
X76786149Y-62985115D02*
X76833768Y-63032734D01*
X76881387Y-63175591D01*
X76881387Y-63270829D01*
X76833768Y-63413686D01*
X76738530Y-63508924D01*
X76643292Y-63556543D01*
X76452816Y-63604162D01*
X76309959Y-63604162D01*
X76119483Y-63556543D01*
X76024245Y-63508924D01*
X75929007Y-63413686D01*
X75881387Y-63270829D01*
X75881387Y-63175591D01*
X75929007Y-63032734D01*
X75976626Y-62985115D01*
X76214721Y-62127972D02*
X76881387Y-62127972D01*
X75833768Y-62366067D02*
X76548054Y-62604162D01*
X76548054Y-61985115D01*
X75881387Y-61413686D02*
X75881387Y-61318448D01*
X75929007Y-61223210D01*
X75976626Y-61175591D01*
X76071864Y-61127972D01*
X76262340Y-61080353D01*
X76500435Y-61080353D01*
X76690911Y-61127972D01*
X76786149Y-61175591D01*
X76833768Y-61223210D01*
X76881387Y-61318448D01*
X76881387Y-61413686D01*
X76833768Y-61508924D01*
X76786149Y-61556543D01*
X76690911Y-61604162D01*
X76500435Y-61651781D01*
X76262340Y-61651781D01*
X76071864Y-61604162D01*
X75976626Y-61556543D01*
X75929007Y-61508924D01*
X75881387Y-61413686D01*
G04 #@! TO.C,C51*
X91574149Y-67037400D02*
X91526530Y-67085019D01*
X91383673Y-67132638D01*
X91288435Y-67132638D01*
X91145578Y-67085019D01*
X91050340Y-66989781D01*
X91002721Y-66894543D01*
X90955102Y-66704067D01*
X90955102Y-66561210D01*
X91002721Y-66370734D01*
X91050340Y-66275496D01*
X91145578Y-66180258D01*
X91288435Y-66132638D01*
X91383673Y-66132638D01*
X91526530Y-66180258D01*
X91574149Y-66227877D01*
X92478911Y-66132638D02*
X92002721Y-66132638D01*
X91955102Y-66608829D01*
X92002721Y-66561210D01*
X92097959Y-66513591D01*
X92336054Y-66513591D01*
X92431292Y-66561210D01*
X92478911Y-66608829D01*
X92526530Y-66704067D01*
X92526530Y-66942162D01*
X92478911Y-67037400D01*
X92431292Y-67085019D01*
X92336054Y-67132638D01*
X92097959Y-67132638D01*
X92002721Y-67085019D01*
X91955102Y-67037400D01*
X93478911Y-67132638D02*
X92907483Y-67132638D01*
X93193197Y-67132638D02*
X93193197Y-66132638D01*
X93097959Y-66275496D01*
X93002721Y-66370734D01*
X92907483Y-66418353D01*
G04 #@! TO.C,C50*
X103202149Y-64707115D02*
X103249768Y-64754734D01*
X103297387Y-64897591D01*
X103297387Y-64992829D01*
X103249768Y-65135686D01*
X103154530Y-65230924D01*
X103059292Y-65278543D01*
X102868816Y-65326162D01*
X102725959Y-65326162D01*
X102535483Y-65278543D01*
X102440245Y-65230924D01*
X102345007Y-65135686D01*
X102297387Y-64992829D01*
X102297387Y-64897591D01*
X102345007Y-64754734D01*
X102392626Y-64707115D01*
X102297387Y-63802353D02*
X102297387Y-64278543D01*
X102773578Y-64326162D01*
X102725959Y-64278543D01*
X102678340Y-64183305D01*
X102678340Y-63945210D01*
X102725959Y-63849972D01*
X102773578Y-63802353D01*
X102868816Y-63754734D01*
X103106911Y-63754734D01*
X103202149Y-63802353D01*
X103249768Y-63849972D01*
X103297387Y-63945210D01*
X103297387Y-64183305D01*
X103249768Y-64278543D01*
X103202149Y-64326162D01*
X102297387Y-63135686D02*
X102297387Y-63040448D01*
X102345007Y-62945210D01*
X102392626Y-62897591D01*
X102487864Y-62849972D01*
X102678340Y-62802353D01*
X102916435Y-62802353D01*
X103106911Y-62849972D01*
X103202149Y-62897591D01*
X103249768Y-62945210D01*
X103297387Y-63040448D01*
X103297387Y-63135686D01*
X103249768Y-63230924D01*
X103202149Y-63278543D01*
X103106911Y-63326162D01*
X102916435Y-63373781D01*
X102678340Y-63373781D01*
X102487864Y-63326162D01*
X102392626Y-63278543D01*
X102345007Y-63230924D01*
X102297387Y-63135686D01*
G04 #@! TO.C,C49*
X101170149Y-64713115D02*
X101217768Y-64760734D01*
X101265387Y-64903591D01*
X101265387Y-64998829D01*
X101217768Y-65141686D01*
X101122530Y-65236924D01*
X101027292Y-65284543D01*
X100836816Y-65332162D01*
X100693959Y-65332162D01*
X100503483Y-65284543D01*
X100408245Y-65236924D01*
X100313007Y-65141686D01*
X100265387Y-64998829D01*
X100265387Y-64903591D01*
X100313007Y-64760734D01*
X100360626Y-64713115D01*
X100598721Y-63855972D02*
X101265387Y-63855972D01*
X100217768Y-64094067D02*
X100932054Y-64332162D01*
X100932054Y-63713115D01*
X101265387Y-63284543D02*
X101265387Y-63094067D01*
X101217768Y-62998829D01*
X101170149Y-62951210D01*
X101027292Y-62855972D01*
X100836816Y-62808353D01*
X100455864Y-62808353D01*
X100360626Y-62855972D01*
X100313007Y-62903591D01*
X100265387Y-62998829D01*
X100265387Y-63189305D01*
X100313007Y-63284543D01*
X100360626Y-63332162D01*
X100455864Y-63379781D01*
X100693959Y-63379781D01*
X100789197Y-63332162D01*
X100836816Y-63284543D01*
X100884435Y-63189305D01*
X100884435Y-62998829D01*
X100836816Y-62903591D01*
X100789197Y-62855972D01*
X100693959Y-62808353D01*
G04 #@! TO.C,C48*
X58632542Y-56192942D02*
X58584923Y-56240561D01*
X58442066Y-56288180D01*
X58346828Y-56288180D01*
X58203971Y-56240561D01*
X58108733Y-56145323D01*
X58061114Y-56050085D01*
X58013495Y-55859609D01*
X58013495Y-55716752D01*
X58061114Y-55526276D01*
X58108733Y-55431038D01*
X58203971Y-55335800D01*
X58346828Y-55288180D01*
X58442066Y-55288180D01*
X58584923Y-55335800D01*
X58632542Y-55383419D01*
X59489685Y-55621514D02*
X59489685Y-56288180D01*
X59251590Y-55240561D02*
X59013495Y-55954847D01*
X59632542Y-55954847D01*
X60156352Y-55716752D02*
X60061114Y-55669133D01*
X60013495Y-55621514D01*
X59965876Y-55526276D01*
X59965876Y-55478657D01*
X60013495Y-55383419D01*
X60061114Y-55335800D01*
X60156352Y-55288180D01*
X60346828Y-55288180D01*
X60442066Y-55335800D01*
X60489685Y-55383419D01*
X60537304Y-55478657D01*
X60537304Y-55526276D01*
X60489685Y-55621514D01*
X60442066Y-55669133D01*
X60346828Y-55716752D01*
X60156352Y-55716752D01*
X60061114Y-55764371D01*
X60013495Y-55811990D01*
X59965876Y-55907228D01*
X59965876Y-56097704D01*
X60013495Y-56192942D01*
X60061114Y-56240561D01*
X60156352Y-56288180D01*
X60346828Y-56288180D01*
X60442066Y-56240561D01*
X60489685Y-56192942D01*
X60537304Y-56097704D01*
X60537304Y-55907228D01*
X60489685Y-55811990D01*
X60442066Y-55764371D01*
X60346828Y-55716752D01*
G04 #@! TO.C,C46*
X57128542Y-40980942D02*
X57080923Y-41028561D01*
X56938066Y-41076180D01*
X56842828Y-41076180D01*
X56699971Y-41028561D01*
X56604733Y-40933323D01*
X56557114Y-40838085D01*
X56509495Y-40647609D01*
X56509495Y-40504752D01*
X56557114Y-40314276D01*
X56604733Y-40219038D01*
X56699971Y-40123800D01*
X56842828Y-40076180D01*
X56938066Y-40076180D01*
X57080923Y-40123800D01*
X57128542Y-40171419D01*
X57985685Y-40409514D02*
X57985685Y-41076180D01*
X57747590Y-40028561D02*
X57509495Y-40742847D01*
X58128542Y-40742847D01*
X58938066Y-40076180D02*
X58747590Y-40076180D01*
X58652352Y-40123800D01*
X58604733Y-40171419D01*
X58509495Y-40314276D01*
X58461876Y-40504752D01*
X58461876Y-40885704D01*
X58509495Y-40980942D01*
X58557114Y-41028561D01*
X58652352Y-41076180D01*
X58842828Y-41076180D01*
X58938066Y-41028561D01*
X58985685Y-40980942D01*
X59033304Y-40885704D01*
X59033304Y-40647609D01*
X58985685Y-40552371D01*
X58938066Y-40504752D01*
X58842828Y-40457133D01*
X58652352Y-40457133D01*
X58557114Y-40504752D01*
X58509495Y-40552371D01*
X58461876Y-40647609D01*
G04 #@! TO.C,C44*
X28894542Y-40952942D02*
X28846923Y-41000561D01*
X28704066Y-41048180D01*
X28608828Y-41048180D01*
X28465971Y-41000561D01*
X28370733Y-40905323D01*
X28323114Y-40810085D01*
X28275495Y-40619609D01*
X28275495Y-40476752D01*
X28323114Y-40286276D01*
X28370733Y-40191038D01*
X28465971Y-40095800D01*
X28608828Y-40048180D01*
X28704066Y-40048180D01*
X28846923Y-40095800D01*
X28894542Y-40143419D01*
X29751685Y-40381514D02*
X29751685Y-41048180D01*
X29513590Y-40000561D02*
X29275495Y-40714847D01*
X29894542Y-40714847D01*
X30704066Y-40381514D02*
X30704066Y-41048180D01*
X30465971Y-40000561D02*
X30227876Y-40714847D01*
X30846923Y-40714847D01*
G04 #@! TO.C,C34*
X91574149Y-80499400D02*
X91526530Y-80547019D01*
X91383673Y-80594638D01*
X91288435Y-80594638D01*
X91145578Y-80547019D01*
X91050340Y-80451781D01*
X91002721Y-80356543D01*
X90955102Y-80166067D01*
X90955102Y-80023210D01*
X91002721Y-79832734D01*
X91050340Y-79737496D01*
X91145578Y-79642258D01*
X91288435Y-79594638D01*
X91383673Y-79594638D01*
X91526530Y-79642258D01*
X91574149Y-79689877D01*
X91907483Y-79594638D02*
X92526530Y-79594638D01*
X92193197Y-79975591D01*
X92336054Y-79975591D01*
X92431292Y-80023210D01*
X92478911Y-80070829D01*
X92526530Y-80166067D01*
X92526530Y-80404162D01*
X92478911Y-80499400D01*
X92431292Y-80547019D01*
X92336054Y-80594638D01*
X92050340Y-80594638D01*
X91955102Y-80547019D01*
X91907483Y-80499400D01*
X93383673Y-79927972D02*
X93383673Y-80594638D01*
X93145578Y-79547019D02*
X92907483Y-80261305D01*
X93526530Y-80261305D01*
G04 #@! TO.C,C2*
X71505142Y-44814466D02*
X71552761Y-44862085D01*
X71600380Y-45004942D01*
X71600380Y-45100180D01*
X71552761Y-45243038D01*
X71457523Y-45338276D01*
X71362285Y-45385895D01*
X71171809Y-45433514D01*
X71028952Y-45433514D01*
X70838476Y-45385895D01*
X70743238Y-45338276D01*
X70648000Y-45243038D01*
X70600380Y-45100180D01*
X70600380Y-45004942D01*
X70648000Y-44862085D01*
X70695619Y-44814466D01*
X70695619Y-44433514D02*
X70648000Y-44385895D01*
X70600380Y-44290657D01*
X70600380Y-44052561D01*
X70648000Y-43957323D01*
X70695619Y-43909704D01*
X70790857Y-43862085D01*
X70886095Y-43862085D01*
X71028952Y-43909704D01*
X71600380Y-44481133D01*
X71600380Y-43862085D01*
G04 #@! TO.C,C5*
X86701333Y-38888942D02*
X86653714Y-38936561D01*
X86510857Y-38984180D01*
X86415619Y-38984180D01*
X86272761Y-38936561D01*
X86177523Y-38841323D01*
X86129904Y-38746085D01*
X86082285Y-38555609D01*
X86082285Y-38412752D01*
X86129904Y-38222276D01*
X86177523Y-38127038D01*
X86272761Y-38031800D01*
X86415619Y-37984180D01*
X86510857Y-37984180D01*
X86653714Y-38031800D01*
X86701333Y-38079419D01*
X87606095Y-37984180D02*
X87129904Y-37984180D01*
X87082285Y-38460371D01*
X87129904Y-38412752D01*
X87225142Y-38365133D01*
X87463238Y-38365133D01*
X87558476Y-38412752D01*
X87606095Y-38460371D01*
X87653714Y-38555609D01*
X87653714Y-38793704D01*
X87606095Y-38888942D01*
X87558476Y-38936561D01*
X87463238Y-38984180D01*
X87225142Y-38984180D01*
X87129904Y-38936561D01*
X87082285Y-38888942D01*
G04 #@! TO.C,C6*
X99147333Y-42190942D02*
X99099714Y-42238561D01*
X98956857Y-42286180D01*
X98861619Y-42286180D01*
X98718761Y-42238561D01*
X98623523Y-42143323D01*
X98575904Y-42048085D01*
X98528285Y-41857609D01*
X98528285Y-41714752D01*
X98575904Y-41524276D01*
X98623523Y-41429038D01*
X98718761Y-41333800D01*
X98861619Y-41286180D01*
X98956857Y-41286180D01*
X99099714Y-41333800D01*
X99147333Y-41381419D01*
X100004476Y-41286180D02*
X99814000Y-41286180D01*
X99718761Y-41333800D01*
X99671142Y-41381419D01*
X99575904Y-41524276D01*
X99528285Y-41714752D01*
X99528285Y-42095704D01*
X99575904Y-42190942D01*
X99623523Y-42238561D01*
X99718761Y-42286180D01*
X99909238Y-42286180D01*
X100004476Y-42238561D01*
X100052095Y-42190942D01*
X100099714Y-42095704D01*
X100099714Y-41857609D01*
X100052095Y-41762371D01*
X100004476Y-41714752D01*
X99909238Y-41667133D01*
X99718761Y-41667133D01*
X99623523Y-41714752D01*
X99575904Y-41762371D01*
X99528285Y-41857609D01*
G04 #@! TO.C,C7*
X79577142Y-44814466D02*
X79624761Y-44862085D01*
X79672380Y-45004942D01*
X79672380Y-45100180D01*
X79624761Y-45243038D01*
X79529523Y-45338276D01*
X79434285Y-45385895D01*
X79243809Y-45433514D01*
X79100952Y-45433514D01*
X78910476Y-45385895D01*
X78815238Y-45338276D01*
X78720000Y-45243038D01*
X78672380Y-45100180D01*
X78672380Y-45004942D01*
X78720000Y-44862085D01*
X78767619Y-44814466D01*
X78672380Y-44481133D02*
X78672380Y-43814466D01*
X79672380Y-44243038D01*
G04 #@! TO.C,C30*
X100916149Y-83031115D02*
X100963768Y-83078734D01*
X101011387Y-83221591D01*
X101011387Y-83316829D01*
X100963768Y-83459686D01*
X100868530Y-83554924D01*
X100773292Y-83602543D01*
X100582816Y-83650162D01*
X100439959Y-83650162D01*
X100249483Y-83602543D01*
X100154245Y-83554924D01*
X100059007Y-83459686D01*
X100011387Y-83316829D01*
X100011387Y-83221591D01*
X100059007Y-83078734D01*
X100106626Y-83031115D01*
X100011387Y-82697781D02*
X100011387Y-82078734D01*
X100392340Y-82412067D01*
X100392340Y-82269210D01*
X100439959Y-82173972D01*
X100487578Y-82126353D01*
X100582816Y-82078734D01*
X100820911Y-82078734D01*
X100916149Y-82126353D01*
X100963768Y-82173972D01*
X101011387Y-82269210D01*
X101011387Y-82554924D01*
X100963768Y-82650162D01*
X100916149Y-82697781D01*
X100011387Y-81459686D02*
X100011387Y-81364448D01*
X100059007Y-81269210D01*
X100106626Y-81221591D01*
X100201864Y-81173972D01*
X100392340Y-81126353D01*
X100630435Y-81126353D01*
X100820911Y-81173972D01*
X100916149Y-81221591D01*
X100963768Y-81269210D01*
X101011387Y-81364448D01*
X101011387Y-81459686D01*
X100963768Y-81554924D01*
X100916149Y-81602543D01*
X100820911Y-81650162D01*
X100630435Y-81697781D01*
X100392340Y-81697781D01*
X100201864Y-81650162D01*
X100106626Y-81602543D01*
X100059007Y-81554924D01*
X100011387Y-81459686D01*
G04 #@! TO.C,C18*
X84701142Y-37082942D02*
X84653523Y-37130561D01*
X84510666Y-37178180D01*
X84415428Y-37178180D01*
X84272571Y-37130561D01*
X84177333Y-37035323D01*
X84129714Y-36940085D01*
X84082095Y-36749609D01*
X84082095Y-36606752D01*
X84129714Y-36416276D01*
X84177333Y-36321038D01*
X84272571Y-36225800D01*
X84415428Y-36178180D01*
X84510666Y-36178180D01*
X84653523Y-36225800D01*
X84701142Y-36273419D01*
X85653523Y-37178180D02*
X85082095Y-37178180D01*
X85367809Y-37178180D02*
X85367809Y-36178180D01*
X85272571Y-36321038D01*
X85177333Y-36416276D01*
X85082095Y-36463895D01*
X86224952Y-36606752D02*
X86129714Y-36559133D01*
X86082095Y-36511514D01*
X86034476Y-36416276D01*
X86034476Y-36368657D01*
X86082095Y-36273419D01*
X86129714Y-36225800D01*
X86224952Y-36178180D01*
X86415428Y-36178180D01*
X86510666Y-36225800D01*
X86558285Y-36273419D01*
X86605904Y-36368657D01*
X86605904Y-36416276D01*
X86558285Y-36511514D01*
X86510666Y-36559133D01*
X86415428Y-36606752D01*
X86224952Y-36606752D01*
X86129714Y-36654371D01*
X86082095Y-36701990D01*
X86034476Y-36797228D01*
X86034476Y-36987704D01*
X86082095Y-37082942D01*
X86129714Y-37130561D01*
X86224952Y-37178180D01*
X86415428Y-37178180D01*
X86510666Y-37130561D01*
X86558285Y-37082942D01*
X86605904Y-36987704D01*
X86605904Y-36797228D01*
X86558285Y-36701990D01*
X86510666Y-36654371D01*
X86415428Y-36606752D01*
G04 #@! TO.C,C19*
X93591142Y-39904942D02*
X93543523Y-39952561D01*
X93400666Y-40000180D01*
X93305428Y-40000180D01*
X93162571Y-39952561D01*
X93067333Y-39857323D01*
X93019714Y-39762085D01*
X92972095Y-39571609D01*
X92972095Y-39428752D01*
X93019714Y-39238276D01*
X93067333Y-39143038D01*
X93162571Y-39047800D01*
X93305428Y-39000180D01*
X93400666Y-39000180D01*
X93543523Y-39047800D01*
X93591142Y-39095419D01*
X94543523Y-40000180D02*
X93972095Y-40000180D01*
X94257809Y-40000180D02*
X94257809Y-39000180D01*
X94162571Y-39143038D01*
X94067333Y-39238276D01*
X93972095Y-39285895D01*
X95019714Y-40000180D02*
X95210190Y-40000180D01*
X95305428Y-39952561D01*
X95353047Y-39904942D01*
X95448285Y-39762085D01*
X95495904Y-39571609D01*
X95495904Y-39190657D01*
X95448285Y-39095419D01*
X95400666Y-39047800D01*
X95305428Y-39000180D01*
X95114952Y-39000180D01*
X95019714Y-39047800D01*
X94972095Y-39095419D01*
X94924476Y-39190657D01*
X94924476Y-39428752D01*
X94972095Y-39523990D01*
X95019714Y-39571609D01*
X95114952Y-39619228D01*
X95305428Y-39619228D01*
X95400666Y-39571609D01*
X95448285Y-39523990D01*
X95495904Y-39428752D01*
G04 #@! TO.C,C20*
X94881142Y-30026942D02*
X94833523Y-30074561D01*
X94690666Y-30122180D01*
X94595428Y-30122180D01*
X94452571Y-30074561D01*
X94357333Y-29979323D01*
X94309714Y-29884085D01*
X94262095Y-29693609D01*
X94262095Y-29550752D01*
X94309714Y-29360276D01*
X94357333Y-29265038D01*
X94452571Y-29169800D01*
X94595428Y-29122180D01*
X94690666Y-29122180D01*
X94833523Y-29169800D01*
X94881142Y-29217419D01*
X95262095Y-29217419D02*
X95309714Y-29169800D01*
X95404952Y-29122180D01*
X95643047Y-29122180D01*
X95738285Y-29169800D01*
X95785904Y-29217419D01*
X95833523Y-29312657D01*
X95833523Y-29407895D01*
X95785904Y-29550752D01*
X95214476Y-30122180D01*
X95833523Y-30122180D01*
X96452571Y-29122180D02*
X96547809Y-29122180D01*
X96643047Y-29169800D01*
X96690666Y-29217419D01*
X96738285Y-29312657D01*
X96785904Y-29503133D01*
X96785904Y-29741228D01*
X96738285Y-29931704D01*
X96690666Y-30026942D01*
X96643047Y-30074561D01*
X96547809Y-30122180D01*
X96452571Y-30122180D01*
X96357333Y-30074561D01*
X96309714Y-30026942D01*
X96262095Y-29931704D01*
X96214476Y-29741228D01*
X96214476Y-29503133D01*
X96262095Y-29312657D01*
X96309714Y-29217419D01*
X96357333Y-29169800D01*
X96452571Y-29122180D01*
G04 #@! TO.C,C35*
X64336149Y-78721400D02*
X64288530Y-78769019D01*
X64145673Y-78816638D01*
X64050435Y-78816638D01*
X63907578Y-78769019D01*
X63812340Y-78673781D01*
X63764721Y-78578543D01*
X63717102Y-78388067D01*
X63717102Y-78245210D01*
X63764721Y-78054734D01*
X63812340Y-77959496D01*
X63907578Y-77864258D01*
X64050435Y-77816638D01*
X64145673Y-77816638D01*
X64288530Y-77864258D01*
X64336149Y-77911877D01*
X64669483Y-77816638D02*
X65288530Y-77816638D01*
X64955197Y-78197591D01*
X65098054Y-78197591D01*
X65193292Y-78245210D01*
X65240911Y-78292829D01*
X65288530Y-78388067D01*
X65288530Y-78626162D01*
X65240911Y-78721400D01*
X65193292Y-78769019D01*
X65098054Y-78816638D01*
X64812340Y-78816638D01*
X64717102Y-78769019D01*
X64669483Y-78721400D01*
X66193292Y-77816638D02*
X65717102Y-77816638D01*
X65669483Y-78292829D01*
X65717102Y-78245210D01*
X65812340Y-78197591D01*
X66050435Y-78197591D01*
X66145673Y-78245210D01*
X66193292Y-78292829D01*
X66240911Y-78388067D01*
X66240911Y-78626162D01*
X66193292Y-78721400D01*
X66145673Y-78769019D01*
X66050435Y-78816638D01*
X65812340Y-78816638D01*
X65717102Y-78769019D01*
X65669483Y-78721400D01*
G04 #@! TO.C,C11*
X86987142Y-30252942D02*
X86939523Y-30300561D01*
X86796666Y-30348180D01*
X86701428Y-30348180D01*
X86558571Y-30300561D01*
X86463333Y-30205323D01*
X86415714Y-30110085D01*
X86368095Y-29919609D01*
X86368095Y-29776752D01*
X86415714Y-29586276D01*
X86463333Y-29491038D01*
X86558571Y-29395800D01*
X86701428Y-29348180D01*
X86796666Y-29348180D01*
X86939523Y-29395800D01*
X86987142Y-29443419D01*
X87939523Y-30348180D02*
X87368095Y-30348180D01*
X87653809Y-30348180D02*
X87653809Y-29348180D01*
X87558571Y-29491038D01*
X87463333Y-29586276D01*
X87368095Y-29633895D01*
X88891904Y-30348180D02*
X88320476Y-30348180D01*
X88606190Y-30348180D02*
X88606190Y-29348180D01*
X88510952Y-29491038D01*
X88415714Y-29586276D01*
X88320476Y-29633895D01*
G04 #@! TO.C,C52*
X71958031Y-70339400D02*
X71910412Y-70387019D01*
X71767555Y-70434638D01*
X71672317Y-70434638D01*
X71529460Y-70387019D01*
X71434222Y-70291781D01*
X71386603Y-70196543D01*
X71338984Y-70006067D01*
X71338984Y-69863210D01*
X71386603Y-69672734D01*
X71434222Y-69577496D01*
X71529460Y-69482258D01*
X71672317Y-69434638D01*
X71767555Y-69434638D01*
X71910412Y-69482258D01*
X71958031Y-69529877D01*
X72862793Y-69434638D02*
X72386603Y-69434638D01*
X72338984Y-69910829D01*
X72386603Y-69863210D01*
X72481841Y-69815591D01*
X72719936Y-69815591D01*
X72815174Y-69863210D01*
X72862793Y-69910829D01*
X72910412Y-70006067D01*
X72910412Y-70244162D01*
X72862793Y-70339400D01*
X72815174Y-70387019D01*
X72719936Y-70434638D01*
X72481841Y-70434638D01*
X72386603Y-70387019D01*
X72338984Y-70339400D01*
X73291365Y-69529877D02*
X73338984Y-69482258D01*
X73434222Y-69434638D01*
X73672317Y-69434638D01*
X73767555Y-69482258D01*
X73815174Y-69529877D01*
X73862793Y-69625115D01*
X73862793Y-69720353D01*
X73815174Y-69863210D01*
X73243746Y-70434638D01*
X73862793Y-70434638D01*
G04 #@! TO.C,C28*
X78792149Y-80125115D02*
X78839768Y-80172734D01*
X78887387Y-80315591D01*
X78887387Y-80410829D01*
X78839768Y-80553686D01*
X78744530Y-80648924D01*
X78649292Y-80696543D01*
X78458816Y-80744162D01*
X78315959Y-80744162D01*
X78125483Y-80696543D01*
X78030245Y-80648924D01*
X77935007Y-80553686D01*
X77887387Y-80410829D01*
X77887387Y-80315591D01*
X77935007Y-80172734D01*
X77982626Y-80125115D01*
X77982626Y-79744162D02*
X77935007Y-79696543D01*
X77887387Y-79601305D01*
X77887387Y-79363210D01*
X77935007Y-79267972D01*
X77982626Y-79220353D01*
X78077864Y-79172734D01*
X78173102Y-79172734D01*
X78315959Y-79220353D01*
X78887387Y-79791781D01*
X78887387Y-79172734D01*
X78315959Y-78601305D02*
X78268340Y-78696543D01*
X78220721Y-78744162D01*
X78125483Y-78791781D01*
X78077864Y-78791781D01*
X77982626Y-78744162D01*
X77935007Y-78696543D01*
X77887387Y-78601305D01*
X77887387Y-78410829D01*
X77935007Y-78315591D01*
X77982626Y-78267972D01*
X78077864Y-78220353D01*
X78125483Y-78220353D01*
X78220721Y-78267972D01*
X78268340Y-78315591D01*
X78315959Y-78410829D01*
X78315959Y-78601305D01*
X78363578Y-78696543D01*
X78411197Y-78744162D01*
X78506435Y-78791781D01*
X78696911Y-78791781D01*
X78792149Y-78744162D01*
X78839768Y-78696543D01*
X78887387Y-78601305D01*
X78887387Y-78410829D01*
X78839768Y-78315591D01*
X78792149Y-78267972D01*
X78696911Y-78220353D01*
X78506435Y-78220353D01*
X78411197Y-78267972D01*
X78363578Y-78315591D01*
X78315959Y-78410829D01*
G04 #@! TO.C,C27*
X91346149Y-89723400D02*
X91298530Y-89771019D01*
X91155673Y-89818638D01*
X91060435Y-89818638D01*
X90917578Y-89771019D01*
X90822340Y-89675781D01*
X90774721Y-89580543D01*
X90727102Y-89390067D01*
X90727102Y-89247210D01*
X90774721Y-89056734D01*
X90822340Y-88961496D01*
X90917578Y-88866258D01*
X91060435Y-88818638D01*
X91155673Y-88818638D01*
X91298530Y-88866258D01*
X91346149Y-88913877D01*
X91727102Y-88913877D02*
X91774721Y-88866258D01*
X91869959Y-88818638D01*
X92108054Y-88818638D01*
X92203292Y-88866258D01*
X92250911Y-88913877D01*
X92298530Y-89009115D01*
X92298530Y-89104353D01*
X92250911Y-89247210D01*
X91679483Y-89818638D01*
X92298530Y-89818638D01*
X92631864Y-88818638D02*
X93298530Y-88818638D01*
X92869959Y-89818638D01*
G04 #@! TO.C,C3*
X81113333Y-53112942D02*
X81065714Y-53160561D01*
X80922857Y-53208180D01*
X80827619Y-53208180D01*
X80684761Y-53160561D01*
X80589523Y-53065323D01*
X80541904Y-52970085D01*
X80494285Y-52779609D01*
X80494285Y-52636752D01*
X80541904Y-52446276D01*
X80589523Y-52351038D01*
X80684761Y-52255800D01*
X80827619Y-52208180D01*
X80922857Y-52208180D01*
X81065714Y-52255800D01*
X81113333Y-52303419D01*
X81446666Y-52208180D02*
X82065714Y-52208180D01*
X81732380Y-52589133D01*
X81875238Y-52589133D01*
X81970476Y-52636752D01*
X82018095Y-52684371D01*
X82065714Y-52779609D01*
X82065714Y-53017704D01*
X82018095Y-53112942D01*
X81970476Y-53160561D01*
X81875238Y-53208180D01*
X81589523Y-53208180D01*
X81494285Y-53160561D01*
X81446666Y-53112942D01*
G04 #@! TO.C,L1*
X103973333Y-38730180D02*
X103497142Y-38730180D01*
X103497142Y-37730180D01*
X104830476Y-38730180D02*
X104259047Y-38730180D01*
X104544761Y-38730180D02*
X104544761Y-37730180D01*
X104449523Y-37873038D01*
X104354285Y-37968276D01*
X104259047Y-38015895D01*
G04 #@! TO.C,L2*
X71732380Y-39682466D02*
X71732380Y-40158657D01*
X70732380Y-40158657D01*
X70827619Y-39396752D02*
X70780000Y-39349133D01*
X70732380Y-39253895D01*
X70732380Y-39015800D01*
X70780000Y-38920561D01*
X70827619Y-38872942D01*
X70922857Y-38825323D01*
X71018095Y-38825323D01*
X71160952Y-38872942D01*
X71732380Y-39444371D01*
X71732380Y-38825323D01*
G04 #@! TO.C,L3*
X103719333Y-35174180D02*
X103243142Y-35174180D01*
X103243142Y-34174180D01*
X103957428Y-34174180D02*
X104576476Y-34174180D01*
X104243142Y-34555133D01*
X104386000Y-34555133D01*
X104481238Y-34602752D01*
X104528857Y-34650371D01*
X104576476Y-34745609D01*
X104576476Y-34983704D01*
X104528857Y-35078942D01*
X104481238Y-35126561D01*
X104386000Y-35174180D01*
X104100285Y-35174180D01*
X104005047Y-35126561D01*
X103957428Y-35078942D01*
G04 #@! TO.C,R44*
X63890031Y-68469820D02*
X63556698Y-67993630D01*
X63318603Y-68469820D02*
X63318603Y-67469820D01*
X63699555Y-67469820D01*
X63794793Y-67517440D01*
X63842412Y-67565059D01*
X63890031Y-67660297D01*
X63890031Y-67803154D01*
X63842412Y-67898392D01*
X63794793Y-67946011D01*
X63699555Y-67993630D01*
X63318603Y-67993630D01*
X64747174Y-67803154D02*
X64747174Y-68469820D01*
X64509079Y-67422201D02*
X64270984Y-68136487D01*
X64890031Y-68136487D01*
X65699555Y-67803154D02*
X65699555Y-68469820D01*
X65461460Y-67422201D02*
X65223365Y-68136487D01*
X65842412Y-68136487D01*
G04 #@! TO.C,R43*
X91414149Y-65100638D02*
X91080816Y-64624448D01*
X90842721Y-65100638D02*
X90842721Y-64100638D01*
X91223673Y-64100638D01*
X91318911Y-64148258D01*
X91366530Y-64195877D01*
X91414149Y-64291115D01*
X91414149Y-64433972D01*
X91366530Y-64529210D01*
X91318911Y-64576829D01*
X91223673Y-64624448D01*
X90842721Y-64624448D01*
X92271292Y-64433972D02*
X92271292Y-65100638D01*
X92033197Y-64053019D02*
X91795102Y-64767305D01*
X92414149Y-64767305D01*
X92699864Y-64100638D02*
X93318911Y-64100638D01*
X92985578Y-64481591D01*
X93128435Y-64481591D01*
X93223673Y-64529210D01*
X93271292Y-64576829D01*
X93318911Y-64672067D01*
X93318911Y-64910162D01*
X93271292Y-65005400D01*
X93223673Y-65053019D01*
X93128435Y-65100638D01*
X92842721Y-65100638D01*
X92747483Y-65053019D01*
X92699864Y-65005400D01*
G04 #@! TO.C,R42*
X68153331Y-63360756D02*
X67819998Y-62884566D01*
X67581903Y-63360756D02*
X67581903Y-62360756D01*
X67962855Y-62360756D01*
X68058093Y-62408376D01*
X68105712Y-62455995D01*
X68153331Y-62551233D01*
X68153331Y-62694090D01*
X68105712Y-62789328D01*
X68058093Y-62836947D01*
X67962855Y-62884566D01*
X67581903Y-62884566D01*
X69010474Y-62694090D02*
X69010474Y-63360756D01*
X68772379Y-62313137D02*
X68534284Y-63027423D01*
X69153331Y-63027423D01*
X69486665Y-62455995D02*
X69534284Y-62408376D01*
X69629522Y-62360756D01*
X69867617Y-62360756D01*
X69962855Y-62408376D01*
X70010474Y-62455995D01*
X70058093Y-62551233D01*
X70058093Y-62646471D01*
X70010474Y-62789328D01*
X69439046Y-63360756D01*
X70058093Y-63360756D01*
G04 #@! TO.C,R41*
X87071387Y-65735115D02*
X86595197Y-66068448D01*
X87071387Y-66306543D02*
X86071387Y-66306543D01*
X86071387Y-65925591D01*
X86119007Y-65830353D01*
X86166626Y-65782734D01*
X86261864Y-65735115D01*
X86404721Y-65735115D01*
X86499959Y-65782734D01*
X86547578Y-65830353D01*
X86595197Y-65925591D01*
X86595197Y-66306543D01*
X86404721Y-64877972D02*
X87071387Y-64877972D01*
X86023768Y-65116067D02*
X86738054Y-65354162D01*
X86738054Y-64735115D01*
X87071387Y-63830353D02*
X87071387Y-64401781D01*
X87071387Y-64116067D02*
X86071387Y-64116067D01*
X86214245Y-64211305D01*
X86309483Y-64306543D01*
X86357102Y-64401781D01*
G04 #@! TO.C,R34*
X99151387Y-62497115D02*
X98675197Y-62830448D01*
X99151387Y-63068543D02*
X98151387Y-63068543D01*
X98151387Y-62687591D01*
X98199007Y-62592353D01*
X98246626Y-62544734D01*
X98341864Y-62497115D01*
X98484721Y-62497115D01*
X98579959Y-62544734D01*
X98627578Y-62592353D01*
X98675197Y-62687591D01*
X98675197Y-63068543D01*
X98151387Y-62163781D02*
X98151387Y-61544734D01*
X98532340Y-61878067D01*
X98532340Y-61735210D01*
X98579959Y-61639972D01*
X98627578Y-61592353D01*
X98722816Y-61544734D01*
X98960911Y-61544734D01*
X99056149Y-61592353D01*
X99103768Y-61639972D01*
X99151387Y-61735210D01*
X99151387Y-62020924D01*
X99103768Y-62116162D01*
X99056149Y-62163781D01*
X98484721Y-60687591D02*
X99151387Y-60687591D01*
X98103768Y-60925686D02*
X98818054Y-61163781D01*
X98818054Y-60544734D01*
G04 #@! TO.C,R38*
X79421387Y-62751115D02*
X78945197Y-63084448D01*
X79421387Y-63322543D02*
X78421387Y-63322543D01*
X78421387Y-62941591D01*
X78469007Y-62846353D01*
X78516626Y-62798734D01*
X78611864Y-62751115D01*
X78754721Y-62751115D01*
X78849959Y-62798734D01*
X78897578Y-62846353D01*
X78945197Y-62941591D01*
X78945197Y-63322543D01*
X78421387Y-62417781D02*
X78421387Y-61798734D01*
X78802340Y-62132067D01*
X78802340Y-61989210D01*
X78849959Y-61893972D01*
X78897578Y-61846353D01*
X78992816Y-61798734D01*
X79230911Y-61798734D01*
X79326149Y-61846353D01*
X79373768Y-61893972D01*
X79421387Y-61989210D01*
X79421387Y-62274924D01*
X79373768Y-62370162D01*
X79326149Y-62417781D01*
X78849959Y-61227305D02*
X78802340Y-61322543D01*
X78754721Y-61370162D01*
X78659483Y-61417781D01*
X78611864Y-61417781D01*
X78516626Y-61370162D01*
X78469007Y-61322543D01*
X78421387Y-61227305D01*
X78421387Y-61036829D01*
X78469007Y-60941591D01*
X78516626Y-60893972D01*
X78611864Y-60846353D01*
X78659483Y-60846353D01*
X78754721Y-60893972D01*
X78802340Y-60941591D01*
X78849959Y-61036829D01*
X78849959Y-61227305D01*
X78897578Y-61322543D01*
X78945197Y-61370162D01*
X79040435Y-61417781D01*
X79230911Y-61417781D01*
X79326149Y-61370162D01*
X79373768Y-61322543D01*
X79421387Y-61227305D01*
X79421387Y-61036829D01*
X79373768Y-60941591D01*
X79326149Y-60893972D01*
X79230911Y-60846353D01*
X79040435Y-60846353D01*
X78945197Y-60893972D01*
X78897578Y-60941591D01*
X78849959Y-61036829D01*
G04 #@! TO.C,R36*
X91290149Y-69144638D02*
X90956816Y-68668448D01*
X90718721Y-69144638D02*
X90718721Y-68144638D01*
X91099673Y-68144638D01*
X91194911Y-68192258D01*
X91242530Y-68239877D01*
X91290149Y-68335115D01*
X91290149Y-68477972D01*
X91242530Y-68573210D01*
X91194911Y-68620829D01*
X91099673Y-68668448D01*
X90718721Y-68668448D01*
X91623483Y-68144638D02*
X92242530Y-68144638D01*
X91909197Y-68525591D01*
X92052054Y-68525591D01*
X92147292Y-68573210D01*
X92194911Y-68620829D01*
X92242530Y-68716067D01*
X92242530Y-68954162D01*
X92194911Y-69049400D01*
X92147292Y-69097019D01*
X92052054Y-69144638D01*
X91766340Y-69144638D01*
X91671102Y-69097019D01*
X91623483Y-69049400D01*
X93099673Y-68144638D02*
X92909197Y-68144638D01*
X92813959Y-68192258D01*
X92766340Y-68239877D01*
X92671102Y-68382734D01*
X92623483Y-68573210D01*
X92623483Y-68954162D01*
X92671102Y-69049400D01*
X92718721Y-69097019D01*
X92813959Y-69144638D01*
X93004435Y-69144638D01*
X93099673Y-69097019D01*
X93147292Y-69049400D01*
X93194911Y-68954162D01*
X93194911Y-68716067D01*
X93147292Y-68620829D01*
X93099673Y-68573210D01*
X93004435Y-68525591D01*
X92813959Y-68525591D01*
X92718721Y-68573210D01*
X92671102Y-68620829D01*
X92623483Y-68716067D01*
G04 #@! TO.C,R35*
X95386149Y-67966638D02*
X95052816Y-67490448D01*
X94814721Y-67966638D02*
X94814721Y-66966638D01*
X95195673Y-66966638D01*
X95290911Y-67014258D01*
X95338530Y-67061877D01*
X95386149Y-67157115D01*
X95386149Y-67299972D01*
X95338530Y-67395210D01*
X95290911Y-67442829D01*
X95195673Y-67490448D01*
X94814721Y-67490448D01*
X95719483Y-66966638D02*
X96338530Y-66966638D01*
X96005197Y-67347591D01*
X96148054Y-67347591D01*
X96243292Y-67395210D01*
X96290911Y-67442829D01*
X96338530Y-67538067D01*
X96338530Y-67776162D01*
X96290911Y-67871400D01*
X96243292Y-67919019D01*
X96148054Y-67966638D01*
X95862340Y-67966638D01*
X95767102Y-67919019D01*
X95719483Y-67871400D01*
X97243292Y-66966638D02*
X96767102Y-66966638D01*
X96719483Y-67442829D01*
X96767102Y-67395210D01*
X96862340Y-67347591D01*
X97100435Y-67347591D01*
X97195673Y-67395210D01*
X97243292Y-67442829D01*
X97290911Y-67538067D01*
X97290911Y-67776162D01*
X97243292Y-67871400D01*
X97195673Y-67919019D01*
X97100435Y-67966638D01*
X96862340Y-67966638D01*
X96767102Y-67919019D01*
X96719483Y-67871400D01*
G04 #@! TO.C,R4*
X84415333Y-48382180D02*
X84082000Y-47905990D01*
X83843904Y-48382180D02*
X83843904Y-47382180D01*
X84224857Y-47382180D01*
X84320095Y-47429800D01*
X84367714Y-47477419D01*
X84415333Y-47572657D01*
X84415333Y-47715514D01*
X84367714Y-47810752D01*
X84320095Y-47858371D01*
X84224857Y-47905990D01*
X83843904Y-47905990D01*
X85272476Y-47715514D02*
X85272476Y-48382180D01*
X85034380Y-47334561D02*
X84796285Y-48048847D01*
X85415333Y-48048847D01*
G04 #@! TO.C,R1*
X73921333Y-40430180D02*
X73588000Y-39953990D01*
X73349904Y-40430180D02*
X73349904Y-39430180D01*
X73730857Y-39430180D01*
X73826095Y-39477800D01*
X73873714Y-39525419D01*
X73921333Y-39620657D01*
X73921333Y-39763514D01*
X73873714Y-39858752D01*
X73826095Y-39906371D01*
X73730857Y-39953990D01*
X73349904Y-39953990D01*
X74873714Y-40430180D02*
X74302285Y-40430180D01*
X74588000Y-40430180D02*
X74588000Y-39430180D01*
X74492761Y-39573038D01*
X74397523Y-39668276D01*
X74302285Y-39715895D01*
G04 #@! TO.C,R10*
X76144380Y-36126657D02*
X75668190Y-36459990D01*
X76144380Y-36698085D02*
X75144380Y-36698085D01*
X75144380Y-36317133D01*
X75192000Y-36221895D01*
X75239619Y-36174276D01*
X75334857Y-36126657D01*
X75477714Y-36126657D01*
X75572952Y-36174276D01*
X75620571Y-36221895D01*
X75668190Y-36317133D01*
X75668190Y-36698085D01*
X76144380Y-35174276D02*
X76144380Y-35745704D01*
X76144380Y-35459990D02*
X75144380Y-35459990D01*
X75287238Y-35555228D01*
X75382476Y-35650466D01*
X75430095Y-35745704D01*
X75144380Y-34555228D02*
X75144380Y-34459990D01*
X75192000Y-34364752D01*
X75239619Y-34317133D01*
X75334857Y-34269514D01*
X75525333Y-34221895D01*
X75763428Y-34221895D01*
X75953904Y-34269514D01*
X76049142Y-34317133D01*
X76096761Y-34364752D01*
X76144380Y-34459990D01*
X76144380Y-34555228D01*
X76096761Y-34650466D01*
X76049142Y-34698085D01*
X75953904Y-34745704D01*
X75763428Y-34793323D01*
X75525333Y-34793323D01*
X75334857Y-34745704D01*
X75239619Y-34698085D01*
X75192000Y-34650466D01*
X75144380Y-34555228D01*
G04 #@! TO.C,R23*
X95240149Y-79496638D02*
X94906816Y-79020448D01*
X94668721Y-79496638D02*
X94668721Y-78496638D01*
X95049673Y-78496638D01*
X95144911Y-78544258D01*
X95192530Y-78591877D01*
X95240149Y-78687115D01*
X95240149Y-78829972D01*
X95192530Y-78925210D01*
X95144911Y-78972829D01*
X95049673Y-79020448D01*
X94668721Y-79020448D01*
X95621102Y-78591877D02*
X95668721Y-78544258D01*
X95763959Y-78496638D01*
X96002054Y-78496638D01*
X96097292Y-78544258D01*
X96144911Y-78591877D01*
X96192530Y-78687115D01*
X96192530Y-78782353D01*
X96144911Y-78925210D01*
X95573483Y-79496638D01*
X96192530Y-79496638D01*
X96525864Y-78496638D02*
X97144911Y-78496638D01*
X96811578Y-78877591D01*
X96954435Y-78877591D01*
X97049673Y-78925210D01*
X97097292Y-78972829D01*
X97144911Y-79068067D01*
X97144911Y-79306162D01*
X97097292Y-79401400D01*
X97049673Y-79449019D01*
X96954435Y-79496638D01*
X96668721Y-79496638D01*
X96573483Y-79449019D01*
X96525864Y-79401400D01*
G04 #@! TO.C,R37*
X83153387Y-66815115D02*
X82677197Y-67148448D01*
X83153387Y-67386543D02*
X82153387Y-67386543D01*
X82153387Y-67005591D01*
X82201007Y-66910353D01*
X82248626Y-66862734D01*
X82343864Y-66815115D01*
X82486721Y-66815115D01*
X82581959Y-66862734D01*
X82629578Y-66910353D01*
X82677197Y-67005591D01*
X82677197Y-67386543D01*
X82153387Y-66481781D02*
X82153387Y-65862734D01*
X82534340Y-66196067D01*
X82534340Y-66053210D01*
X82581959Y-65957972D01*
X82629578Y-65910353D01*
X82724816Y-65862734D01*
X82962911Y-65862734D01*
X83058149Y-65910353D01*
X83105768Y-65957972D01*
X83153387Y-66053210D01*
X83153387Y-66338924D01*
X83105768Y-66434162D01*
X83058149Y-66481781D01*
X82153387Y-65529400D02*
X82153387Y-64862734D01*
X83153387Y-65291305D01*
G04 #@! TO.C,R6*
X79335333Y-57018180D02*
X79002000Y-56541990D01*
X78763904Y-57018180D02*
X78763904Y-56018180D01*
X79144857Y-56018180D01*
X79240095Y-56065800D01*
X79287714Y-56113419D01*
X79335333Y-56208657D01*
X79335333Y-56351514D01*
X79287714Y-56446752D01*
X79240095Y-56494371D01*
X79144857Y-56541990D01*
X78763904Y-56541990D01*
X80192476Y-56018180D02*
X80002000Y-56018180D01*
X79906761Y-56065800D01*
X79859142Y-56113419D01*
X79763904Y-56256276D01*
X79716285Y-56446752D01*
X79716285Y-56827704D01*
X79763904Y-56922942D01*
X79811523Y-56970561D01*
X79906761Y-57018180D01*
X80097238Y-57018180D01*
X80192476Y-56970561D01*
X80240095Y-56922942D01*
X80287714Y-56827704D01*
X80287714Y-56589609D01*
X80240095Y-56494371D01*
X80192476Y-56446752D01*
X80097238Y-56399133D01*
X79906761Y-56399133D01*
X79811523Y-56446752D01*
X79763904Y-56494371D01*
X79716285Y-56589609D01*
G04 #@! TO.C,R7*
X74001333Y-49906180D02*
X73668000Y-49429990D01*
X73429904Y-49906180D02*
X73429904Y-48906180D01*
X73810857Y-48906180D01*
X73906095Y-48953800D01*
X73953714Y-49001419D01*
X74001333Y-49096657D01*
X74001333Y-49239514D01*
X73953714Y-49334752D01*
X73906095Y-49382371D01*
X73810857Y-49429990D01*
X73429904Y-49429990D01*
X74334666Y-48906180D02*
X75001333Y-48906180D01*
X74572761Y-49906180D01*
G04 #@! TO.C,R25*
X83485387Y-82055115D02*
X83009197Y-82388448D01*
X83485387Y-82626543D02*
X82485387Y-82626543D01*
X82485387Y-82245591D01*
X82533007Y-82150353D01*
X82580626Y-82102734D01*
X82675864Y-82055115D01*
X82818721Y-82055115D01*
X82913959Y-82102734D01*
X82961578Y-82150353D01*
X83009197Y-82245591D01*
X83009197Y-82626543D01*
X82580626Y-81674162D02*
X82533007Y-81626543D01*
X82485387Y-81531305D01*
X82485387Y-81293210D01*
X82533007Y-81197972D01*
X82580626Y-81150353D01*
X82675864Y-81102734D01*
X82771102Y-81102734D01*
X82913959Y-81150353D01*
X83485387Y-81721781D01*
X83485387Y-81102734D01*
X82485387Y-80197972D02*
X82485387Y-80674162D01*
X82961578Y-80721781D01*
X82913959Y-80674162D01*
X82866340Y-80578924D01*
X82866340Y-80340829D01*
X82913959Y-80245591D01*
X82961578Y-80197972D01*
X83056816Y-80150353D01*
X83294911Y-80150353D01*
X83390149Y-80197972D01*
X83437768Y-80245591D01*
X83485387Y-80340829D01*
X83485387Y-80578924D01*
X83437768Y-80674162D01*
X83390149Y-80721781D01*
G04 #@! TO.C,R11*
X81986380Y-35298657D02*
X81510190Y-35631990D01*
X81986380Y-35870085D02*
X80986380Y-35870085D01*
X80986380Y-35489133D01*
X81034000Y-35393895D01*
X81081619Y-35346276D01*
X81176857Y-35298657D01*
X81319714Y-35298657D01*
X81414952Y-35346276D01*
X81462571Y-35393895D01*
X81510190Y-35489133D01*
X81510190Y-35870085D01*
X81986380Y-34346276D02*
X81986380Y-34917704D01*
X81986380Y-34631990D02*
X80986380Y-34631990D01*
X81129238Y-34727228D01*
X81224476Y-34822466D01*
X81272095Y-34917704D01*
X81986380Y-33393895D02*
X81986380Y-33965323D01*
X81986380Y-33679609D02*
X80986380Y-33679609D01*
X81129238Y-33774847D01*
X81224476Y-33870085D01*
X81272095Y-33965323D01*
G04 #@! TO.C,R15*
X81986380Y-30364657D02*
X81510190Y-30697990D01*
X81986380Y-30936085D02*
X80986380Y-30936085D01*
X80986380Y-30555133D01*
X81034000Y-30459895D01*
X81081619Y-30412276D01*
X81176857Y-30364657D01*
X81319714Y-30364657D01*
X81414952Y-30412276D01*
X81462571Y-30459895D01*
X81510190Y-30555133D01*
X81510190Y-30936085D01*
X81986380Y-29412276D02*
X81986380Y-29983704D01*
X81986380Y-29697990D02*
X80986380Y-29697990D01*
X81129238Y-29793228D01*
X81224476Y-29888466D01*
X81272095Y-29983704D01*
X80986380Y-28507514D02*
X80986380Y-28983704D01*
X81462571Y-29031323D01*
X81414952Y-28983704D01*
X81367333Y-28888466D01*
X81367333Y-28650371D01*
X81414952Y-28555133D01*
X81462571Y-28507514D01*
X81557809Y-28459895D01*
X81795904Y-28459895D01*
X81891142Y-28507514D01*
X81938761Y-28555133D01*
X81986380Y-28650371D01*
X81986380Y-28888466D01*
X81938761Y-28983704D01*
X81891142Y-29031323D01*
G04 #@! TO.C,R16*
X66316380Y-29268657D02*
X65840190Y-29601990D01*
X66316380Y-29840085D02*
X65316380Y-29840085D01*
X65316380Y-29459133D01*
X65364000Y-29363895D01*
X65411619Y-29316276D01*
X65506857Y-29268657D01*
X65649714Y-29268657D01*
X65744952Y-29316276D01*
X65792571Y-29363895D01*
X65840190Y-29459133D01*
X65840190Y-29840085D01*
X66316380Y-28316276D02*
X66316380Y-28887704D01*
X66316380Y-28601990D02*
X65316380Y-28601990D01*
X65459238Y-28697228D01*
X65554476Y-28792466D01*
X65602095Y-28887704D01*
X65316380Y-27459133D02*
X65316380Y-27649609D01*
X65364000Y-27744847D01*
X65411619Y-27792466D01*
X65554476Y-27887704D01*
X65744952Y-27935323D01*
X66125904Y-27935323D01*
X66221142Y-27887704D01*
X66268761Y-27840085D01*
X66316380Y-27744847D01*
X66316380Y-27554371D01*
X66268761Y-27459133D01*
X66221142Y-27411514D01*
X66125904Y-27363895D01*
X65887809Y-27363895D01*
X65792571Y-27411514D01*
X65744952Y-27459133D01*
X65697333Y-27554371D01*
X65697333Y-27744847D01*
X65744952Y-27840085D01*
X65792571Y-27887704D01*
X65887809Y-27935323D01*
G04 #@! TO.C,R22*
X98105387Y-85357115D02*
X97629197Y-85690448D01*
X98105387Y-85928543D02*
X97105387Y-85928543D01*
X97105387Y-85547591D01*
X97153007Y-85452353D01*
X97200626Y-85404734D01*
X97295864Y-85357115D01*
X97438721Y-85357115D01*
X97533959Y-85404734D01*
X97581578Y-85452353D01*
X97629197Y-85547591D01*
X97629197Y-85928543D01*
X97200626Y-84976162D02*
X97153007Y-84928543D01*
X97105387Y-84833305D01*
X97105387Y-84595210D01*
X97153007Y-84499972D01*
X97200626Y-84452353D01*
X97295864Y-84404734D01*
X97391102Y-84404734D01*
X97533959Y-84452353D01*
X98105387Y-85023781D01*
X98105387Y-84404734D01*
X97200626Y-84023781D02*
X97153007Y-83976162D01*
X97105387Y-83880924D01*
X97105387Y-83642829D01*
X97153007Y-83547591D01*
X97200626Y-83499972D01*
X97295864Y-83452353D01*
X97391102Y-83452353D01*
X97533959Y-83499972D01*
X98105387Y-84071400D01*
X98105387Y-83452353D01*
G04 #@! TO.C,R24*
X91674149Y-78552638D02*
X91340816Y-78076448D01*
X91102721Y-78552638D02*
X91102721Y-77552638D01*
X91483673Y-77552638D01*
X91578911Y-77600258D01*
X91626530Y-77647877D01*
X91674149Y-77743115D01*
X91674149Y-77885972D01*
X91626530Y-77981210D01*
X91578911Y-78028829D01*
X91483673Y-78076448D01*
X91102721Y-78076448D01*
X92055102Y-77647877D02*
X92102721Y-77600258D01*
X92197959Y-77552638D01*
X92436054Y-77552638D01*
X92531292Y-77600258D01*
X92578911Y-77647877D01*
X92626530Y-77743115D01*
X92626530Y-77838353D01*
X92578911Y-77981210D01*
X92007483Y-78552638D01*
X92626530Y-78552638D01*
X93483673Y-77885972D02*
X93483673Y-78552638D01*
X93245578Y-77505019D02*
X93007483Y-78219305D01*
X93626530Y-78219305D01*
G04 #@! TO.C,R27*
X89715342Y-103695380D02*
X89382009Y-103219190D01*
X89143914Y-103695380D02*
X89143914Y-102695380D01*
X89524866Y-102695380D01*
X89620104Y-102743000D01*
X89667723Y-102790619D01*
X89715342Y-102885857D01*
X89715342Y-103028714D01*
X89667723Y-103123952D01*
X89620104Y-103171571D01*
X89524866Y-103219190D01*
X89143914Y-103219190D01*
X90096295Y-102790619D02*
X90143914Y-102743000D01*
X90239152Y-102695380D01*
X90477247Y-102695380D01*
X90572485Y-102743000D01*
X90620104Y-102790619D01*
X90667723Y-102885857D01*
X90667723Y-102981095D01*
X90620104Y-103123952D01*
X90048676Y-103695380D01*
X90667723Y-103695380D01*
X91001057Y-102695380D02*
X91667723Y-102695380D01*
X91239152Y-103695380D01*
G04 #@! TO.C,R28*
X87161387Y-82583115D02*
X86685197Y-82916448D01*
X87161387Y-83154543D02*
X86161387Y-83154543D01*
X86161387Y-82773591D01*
X86209007Y-82678353D01*
X86256626Y-82630734D01*
X86351864Y-82583115D01*
X86494721Y-82583115D01*
X86589959Y-82630734D01*
X86637578Y-82678353D01*
X86685197Y-82773591D01*
X86685197Y-83154543D01*
X86256626Y-82202162D02*
X86209007Y-82154543D01*
X86161387Y-82059305D01*
X86161387Y-81821210D01*
X86209007Y-81725972D01*
X86256626Y-81678353D01*
X86351864Y-81630734D01*
X86447102Y-81630734D01*
X86589959Y-81678353D01*
X87161387Y-82249781D01*
X87161387Y-81630734D01*
X86589959Y-81059305D02*
X86542340Y-81154543D01*
X86494721Y-81202162D01*
X86399483Y-81249781D01*
X86351864Y-81249781D01*
X86256626Y-81202162D01*
X86209007Y-81154543D01*
X86161387Y-81059305D01*
X86161387Y-80868829D01*
X86209007Y-80773591D01*
X86256626Y-80725972D01*
X86351864Y-80678353D01*
X86399483Y-80678353D01*
X86494721Y-80725972D01*
X86542340Y-80773591D01*
X86589959Y-80868829D01*
X86589959Y-81059305D01*
X86637578Y-81154543D01*
X86685197Y-81202162D01*
X86780435Y-81249781D01*
X86970911Y-81249781D01*
X87066149Y-81202162D01*
X87113768Y-81154543D01*
X87161387Y-81059305D01*
X87161387Y-80868829D01*
X87113768Y-80773591D01*
X87066149Y-80725972D01*
X86970911Y-80678353D01*
X86780435Y-80678353D01*
X86685197Y-80725972D01*
X86637578Y-80773591D01*
X86589959Y-80868829D01*
G04 #@! TO.C,R29*
X68340149Y-81864638D02*
X68006816Y-81388448D01*
X67768721Y-81864638D02*
X67768721Y-80864638D01*
X68149673Y-80864638D01*
X68244911Y-80912258D01*
X68292530Y-80959877D01*
X68340149Y-81055115D01*
X68340149Y-81197972D01*
X68292530Y-81293210D01*
X68244911Y-81340829D01*
X68149673Y-81388448D01*
X67768721Y-81388448D01*
X68721102Y-80959877D02*
X68768721Y-80912258D01*
X68863959Y-80864638D01*
X69102054Y-80864638D01*
X69197292Y-80912258D01*
X69244911Y-80959877D01*
X69292530Y-81055115D01*
X69292530Y-81150353D01*
X69244911Y-81293210D01*
X68673483Y-81864638D01*
X69292530Y-81864638D01*
X69768721Y-81864638D02*
X69959197Y-81864638D01*
X70054435Y-81817019D01*
X70102054Y-81769400D01*
X70197292Y-81626543D01*
X70244911Y-81436067D01*
X70244911Y-81055115D01*
X70197292Y-80959877D01*
X70149673Y-80912258D01*
X70054435Y-80864638D01*
X69863959Y-80864638D01*
X69768721Y-80912258D01*
X69721102Y-80959877D01*
X69673483Y-81055115D01*
X69673483Y-81293210D01*
X69721102Y-81388448D01*
X69768721Y-81436067D01*
X69863959Y-81483686D01*
X70054435Y-81483686D01*
X70149673Y-81436067D01*
X70197292Y-81388448D01*
X70244911Y-81293210D01*
G04 #@! TO.C,R30*
X94541342Y-103695380D02*
X94208009Y-103219190D01*
X93969914Y-103695380D02*
X93969914Y-102695380D01*
X94350866Y-102695380D01*
X94446104Y-102743000D01*
X94493723Y-102790619D01*
X94541342Y-102885857D01*
X94541342Y-103028714D01*
X94493723Y-103123952D01*
X94446104Y-103171571D01*
X94350866Y-103219190D01*
X93969914Y-103219190D01*
X94874676Y-102695380D02*
X95493723Y-102695380D01*
X95160390Y-103076333D01*
X95303247Y-103076333D01*
X95398485Y-103123952D01*
X95446104Y-103171571D01*
X95493723Y-103266809D01*
X95493723Y-103504904D01*
X95446104Y-103600142D01*
X95398485Y-103647761D01*
X95303247Y-103695380D01*
X95017533Y-103695380D01*
X94922295Y-103647761D01*
X94874676Y-103600142D01*
X96112771Y-102695380D02*
X96208009Y-102695380D01*
X96303247Y-102743000D01*
X96350866Y-102790619D01*
X96398485Y-102885857D01*
X96446104Y-103076333D01*
X96446104Y-103314428D01*
X96398485Y-103504904D01*
X96350866Y-103600142D01*
X96303247Y-103647761D01*
X96208009Y-103695380D01*
X96112771Y-103695380D01*
X96017533Y-103647761D01*
X95969914Y-103600142D01*
X95922295Y-103504904D01*
X95874676Y-103314428D01*
X95874676Y-103076333D01*
X95922295Y-102885857D01*
X95969914Y-102790619D01*
X96017533Y-102743000D01*
X96112771Y-102695380D01*
G04 #@! TO.C,R32*
X64182149Y-80848638D02*
X63848816Y-80372448D01*
X63610721Y-80848638D02*
X63610721Y-79848638D01*
X63991673Y-79848638D01*
X64086911Y-79896258D01*
X64134530Y-79943877D01*
X64182149Y-80039115D01*
X64182149Y-80181972D01*
X64134530Y-80277210D01*
X64086911Y-80324829D01*
X63991673Y-80372448D01*
X63610721Y-80372448D01*
X64515483Y-79848638D02*
X65134530Y-79848638D01*
X64801197Y-80229591D01*
X64944054Y-80229591D01*
X65039292Y-80277210D01*
X65086911Y-80324829D01*
X65134530Y-80420067D01*
X65134530Y-80658162D01*
X65086911Y-80753400D01*
X65039292Y-80801019D01*
X64944054Y-80848638D01*
X64658340Y-80848638D01*
X64563102Y-80801019D01*
X64515483Y-80753400D01*
X65515483Y-79943877D02*
X65563102Y-79896258D01*
X65658340Y-79848638D01*
X65896435Y-79848638D01*
X65991673Y-79896258D01*
X66039292Y-79943877D01*
X66086911Y-80039115D01*
X66086911Y-80134353D01*
X66039292Y-80277210D01*
X65467864Y-80848638D01*
X66086911Y-80848638D01*
G04 #@! TO.C,U2*
X74422095Y-45858180D02*
X74422095Y-46667704D01*
X74469714Y-46762942D01*
X74517333Y-46810561D01*
X74612571Y-46858180D01*
X74803047Y-46858180D01*
X74898285Y-46810561D01*
X74945904Y-46762942D01*
X74993523Y-46667704D01*
X74993523Y-45858180D01*
X75422095Y-45953419D02*
X75469714Y-45905800D01*
X75564952Y-45858180D01*
X75803047Y-45858180D01*
X75898285Y-45905800D01*
X75945904Y-45953419D01*
X75993523Y-46048657D01*
X75993523Y-46143895D01*
X75945904Y-46286752D01*
X75374476Y-46858180D01*
X75993523Y-46858180D01*
G04 #@! TO.C,C47*
X48472542Y-51874942D02*
X48424923Y-51922561D01*
X48282066Y-51970180D01*
X48186828Y-51970180D01*
X48043971Y-51922561D01*
X47948733Y-51827323D01*
X47901114Y-51732085D01*
X47853495Y-51541609D01*
X47853495Y-51398752D01*
X47901114Y-51208276D01*
X47948733Y-51113038D01*
X48043971Y-51017800D01*
X48186828Y-50970180D01*
X48282066Y-50970180D01*
X48424923Y-51017800D01*
X48472542Y-51065419D01*
X49329685Y-51303514D02*
X49329685Y-51970180D01*
X49091590Y-50922561D02*
X48853495Y-51636847D01*
X49472542Y-51636847D01*
X49758257Y-50970180D02*
X50424923Y-50970180D01*
X49996352Y-51970180D01*
X53014447Y-48833228D02*
X53776352Y-48833228D01*
X53395400Y-49214180D02*
X53395400Y-48452276D01*
G04 #@! TO.C,C45*
X48472542Y-44508942D02*
X48424923Y-44556561D01*
X48282066Y-44604180D01*
X48186828Y-44604180D01*
X48043971Y-44556561D01*
X47948733Y-44461323D01*
X47901114Y-44366085D01*
X47853495Y-44175609D01*
X47853495Y-44032752D01*
X47901114Y-43842276D01*
X47948733Y-43747038D01*
X48043971Y-43651800D01*
X48186828Y-43604180D01*
X48282066Y-43604180D01*
X48424923Y-43651800D01*
X48472542Y-43699419D01*
X49329685Y-43937514D02*
X49329685Y-44604180D01*
X49091590Y-43556561D02*
X48853495Y-44270847D01*
X49472542Y-44270847D01*
X50329685Y-43604180D02*
X49853495Y-43604180D01*
X49805876Y-44080371D01*
X49853495Y-44032752D01*
X49948733Y-43985133D01*
X50186828Y-43985133D01*
X50282066Y-44032752D01*
X50329685Y-44080371D01*
X50377304Y-44175609D01*
X50377304Y-44413704D01*
X50329685Y-44508942D01*
X50282066Y-44556561D01*
X50186828Y-44604180D01*
X49948733Y-44604180D01*
X49853495Y-44556561D01*
X49805876Y-44508942D01*
X53014447Y-41213228D02*
X53776352Y-41213228D01*
X53395400Y-41594180D02*
X53395400Y-40832276D01*
G04 #@! TO.C,C43*
X38820542Y-44254942D02*
X38772923Y-44302561D01*
X38630066Y-44350180D01*
X38534828Y-44350180D01*
X38391971Y-44302561D01*
X38296733Y-44207323D01*
X38249114Y-44112085D01*
X38201495Y-43921609D01*
X38201495Y-43778752D01*
X38249114Y-43588276D01*
X38296733Y-43493038D01*
X38391971Y-43397800D01*
X38534828Y-43350180D01*
X38630066Y-43350180D01*
X38772923Y-43397800D01*
X38820542Y-43445419D01*
X39677685Y-43683514D02*
X39677685Y-44350180D01*
X39439590Y-43302561D02*
X39201495Y-44016847D01*
X39820542Y-44016847D01*
X40106257Y-43350180D02*
X40725304Y-43350180D01*
X40391971Y-43731133D01*
X40534828Y-43731133D01*
X40630066Y-43778752D01*
X40677685Y-43826371D01*
X40725304Y-43921609D01*
X40725304Y-44159704D01*
X40677685Y-44254942D01*
X40630066Y-44302561D01*
X40534828Y-44350180D01*
X40249114Y-44350180D01*
X40153876Y-44302561D01*
X40106257Y-44254942D01*
X34802447Y-47233228D02*
X35564352Y-47233228D01*
X35183400Y-47614180D02*
X35183400Y-46852276D01*
G04 #@! TO.C,C41*
X38820542Y-51874942D02*
X38772923Y-51922561D01*
X38630066Y-51970180D01*
X38534828Y-51970180D01*
X38391971Y-51922561D01*
X38296733Y-51827323D01*
X38249114Y-51732085D01*
X38201495Y-51541609D01*
X38201495Y-51398752D01*
X38249114Y-51208276D01*
X38296733Y-51113038D01*
X38391971Y-51017800D01*
X38534828Y-50970180D01*
X38630066Y-50970180D01*
X38772923Y-51017800D01*
X38820542Y-51065419D01*
X39677685Y-51303514D02*
X39677685Y-51970180D01*
X39439590Y-50922561D02*
X39201495Y-51636847D01*
X39820542Y-51636847D01*
X40725304Y-51970180D02*
X40153876Y-51970180D01*
X40439590Y-51970180D02*
X40439590Y-50970180D01*
X40344352Y-51113038D01*
X40249114Y-51208276D01*
X40153876Y-51255895D01*
X34802447Y-54853228D02*
X35564352Y-54853228D01*
X35183400Y-55234180D02*
X35183400Y-54472276D01*
G04 #@! TO.C,D4*
X41023304Y-62158180D02*
X41023304Y-61158180D01*
X41261400Y-61158180D01*
X41404257Y-61205800D01*
X41499495Y-61301038D01*
X41547114Y-61396276D01*
X41594733Y-61586752D01*
X41594733Y-61729609D01*
X41547114Y-61920085D01*
X41499495Y-62015323D01*
X41404257Y-62110561D01*
X41261400Y-62158180D01*
X41023304Y-62158180D01*
X42451876Y-61491514D02*
X42451876Y-62158180D01*
X42213780Y-61110561D02*
X41975685Y-61824847D01*
X42594733Y-61824847D01*
G04 #@! TO.C,D5*
X41011304Y-60860180D02*
X41011304Y-59860180D01*
X41249400Y-59860180D01*
X41392257Y-59907800D01*
X41487495Y-60003038D01*
X41535114Y-60098276D01*
X41582733Y-60288752D01*
X41582733Y-60431609D01*
X41535114Y-60622085D01*
X41487495Y-60717323D01*
X41392257Y-60812561D01*
X41249400Y-60860180D01*
X41011304Y-60860180D01*
X42487495Y-59860180D02*
X42011304Y-59860180D01*
X41963685Y-60336371D01*
X42011304Y-60288752D01*
X42106542Y-60241133D01*
X42344638Y-60241133D01*
X42439876Y-60288752D01*
X42487495Y-60336371D01*
X42535114Y-60431609D01*
X42535114Y-60669704D01*
X42487495Y-60764942D01*
X42439876Y-60812561D01*
X42344638Y-60860180D01*
X42106542Y-60860180D01*
X42011304Y-60812561D01*
X41963685Y-60764942D01*
G04 #@! TO.C,U3*
X90932095Y-31436180D02*
X90932095Y-32245704D01*
X90979714Y-32340942D01*
X91027333Y-32388561D01*
X91122571Y-32436180D01*
X91313047Y-32436180D01*
X91408285Y-32388561D01*
X91455904Y-32340942D01*
X91503523Y-32245704D01*
X91503523Y-31436180D01*
X91884476Y-31436180D02*
X92503523Y-31436180D01*
X92170190Y-31817133D01*
X92313047Y-31817133D01*
X92408285Y-31864752D01*
X92455904Y-31912371D01*
X92503523Y-32007609D01*
X92503523Y-32245704D01*
X92455904Y-32340942D01*
X92408285Y-32388561D01*
X92313047Y-32436180D01*
X92027333Y-32436180D01*
X91932095Y-32388561D01*
X91884476Y-32340942D01*
G04 #@! TO.C,U7*
X27231780Y-55073704D02*
X28041304Y-55073704D01*
X28136542Y-55026085D01*
X28184161Y-54978466D01*
X28231780Y-54883228D01*
X28231780Y-54692752D01*
X28184161Y-54597514D01*
X28136542Y-54549895D01*
X28041304Y-54502276D01*
X27231780Y-54502276D01*
X27231780Y-54121323D02*
X27231780Y-53454657D01*
X28231780Y-53883228D01*
G04 #@! TO.C,U8*
X55425780Y-55073704D02*
X56235304Y-55073704D01*
X56330542Y-55026085D01*
X56378161Y-54978466D01*
X56425780Y-54883228D01*
X56425780Y-54692752D01*
X56378161Y-54597514D01*
X56330542Y-54549895D01*
X56235304Y-54502276D01*
X55425780Y-54502276D01*
X55854352Y-53883228D02*
X55806733Y-53978466D01*
X55759114Y-54026085D01*
X55663876Y-54073704D01*
X55616257Y-54073704D01*
X55521019Y-54026085D01*
X55473400Y-53978466D01*
X55425780Y-53883228D01*
X55425780Y-53692752D01*
X55473400Y-53597514D01*
X55521019Y-53549895D01*
X55616257Y-53502276D01*
X55663876Y-53502276D01*
X55759114Y-53549895D01*
X55806733Y-53597514D01*
X55854352Y-53692752D01*
X55854352Y-53883228D01*
X55901971Y-53978466D01*
X55949590Y-54026085D01*
X56044828Y-54073704D01*
X56235304Y-54073704D01*
X56330542Y-54026085D01*
X56378161Y-53978466D01*
X56425780Y-53883228D01*
X56425780Y-53692752D01*
X56378161Y-53597514D01*
X56330542Y-53549895D01*
X56235304Y-53502276D01*
X56044828Y-53502276D01*
X55949590Y-53549895D01*
X55901971Y-53597514D01*
X55854352Y-53692752D01*
G04 #@! TO.C,D1*
X67184780Y-96513495D02*
X66184780Y-96513495D01*
X66184780Y-96275400D01*
X66232400Y-96132542D01*
X66327638Y-96037304D01*
X66422876Y-95989685D01*
X66613352Y-95942066D01*
X66756209Y-95942066D01*
X66946685Y-95989685D01*
X67041923Y-96037304D01*
X67137161Y-96132542D01*
X67184780Y-96275400D01*
X67184780Y-96513495D01*
X67184780Y-94989685D02*
X67184780Y-95561114D01*
X67184780Y-95275400D02*
X66184780Y-95275400D01*
X66327638Y-95370638D01*
X66422876Y-95465876D01*
X66470495Y-95561114D01*
G04 #@! TO.C,D2*
X69004780Y-96533495D02*
X68004780Y-96533495D01*
X68004780Y-96295400D01*
X68052400Y-96152542D01*
X68147638Y-96057304D01*
X68242876Y-96009685D01*
X68433352Y-95962066D01*
X68576209Y-95962066D01*
X68766685Y-96009685D01*
X68861923Y-96057304D01*
X68957161Y-96152542D01*
X69004780Y-96295400D01*
X69004780Y-96533495D01*
X68100019Y-95581114D02*
X68052400Y-95533495D01*
X68004780Y-95438257D01*
X68004780Y-95200161D01*
X68052400Y-95104923D01*
X68100019Y-95057304D01*
X68195257Y-95009685D01*
X68290495Y-95009685D01*
X68433352Y-95057304D01*
X69004780Y-95628733D01*
X69004780Y-95009685D01*
G04 #@! TO.C,D3*
X70944780Y-96533495D02*
X69944780Y-96533495D01*
X69944780Y-96295400D01*
X69992400Y-96152542D01*
X70087638Y-96057304D01*
X70182876Y-96009685D01*
X70373352Y-95962066D01*
X70516209Y-95962066D01*
X70706685Y-96009685D01*
X70801923Y-96057304D01*
X70897161Y-96152542D01*
X70944780Y-96295400D01*
X70944780Y-96533495D01*
X69944780Y-95628733D02*
X69944780Y-95009685D01*
X70325733Y-95343019D01*
X70325733Y-95200161D01*
X70373352Y-95104923D01*
X70420971Y-95057304D01*
X70516209Y-95009685D01*
X70754304Y-95009685D01*
X70849542Y-95057304D01*
X70897161Y-95104923D01*
X70944780Y-95200161D01*
X70944780Y-95485876D01*
X70897161Y-95581114D01*
X70849542Y-95628733D01*
G04 #@! TO.C,R20*
X68166149Y-84228638D02*
X67832816Y-83752448D01*
X67594721Y-84228638D02*
X67594721Y-83228638D01*
X67975673Y-83228638D01*
X68070911Y-83276258D01*
X68118530Y-83323877D01*
X68166149Y-83419115D01*
X68166149Y-83561972D01*
X68118530Y-83657210D01*
X68070911Y-83704829D01*
X67975673Y-83752448D01*
X67594721Y-83752448D01*
X68547102Y-83323877D02*
X68594721Y-83276258D01*
X68689959Y-83228638D01*
X68928054Y-83228638D01*
X69023292Y-83276258D01*
X69070911Y-83323877D01*
X69118530Y-83419115D01*
X69118530Y-83514353D01*
X69070911Y-83657210D01*
X68499483Y-84228638D01*
X69118530Y-84228638D01*
X69737578Y-83228638D02*
X69832816Y-83228638D01*
X69928054Y-83276258D01*
X69975673Y-83323877D01*
X70023292Y-83419115D01*
X70070911Y-83609591D01*
X70070911Y-83847686D01*
X70023292Y-84038162D01*
X69975673Y-84133400D01*
X69928054Y-84181019D01*
X69832816Y-84228638D01*
X69737578Y-84228638D01*
X69642340Y-84181019D01*
X69594721Y-84133400D01*
X69547102Y-84038162D01*
X69499483Y-83847686D01*
X69499483Y-83609591D01*
X69547102Y-83419115D01*
X69594721Y-83323877D01*
X69642340Y-83276258D01*
X69737578Y-83228638D01*
G04 #@! TO.C,R33*
X68166149Y-61368638D02*
X67832816Y-60892448D01*
X67594721Y-61368638D02*
X67594721Y-60368638D01*
X67975673Y-60368638D01*
X68070911Y-60416258D01*
X68118530Y-60463877D01*
X68166149Y-60559115D01*
X68166149Y-60701972D01*
X68118530Y-60797210D01*
X68070911Y-60844829D01*
X67975673Y-60892448D01*
X67594721Y-60892448D01*
X68499483Y-60368638D02*
X69118530Y-60368638D01*
X68785197Y-60749591D01*
X68928054Y-60749591D01*
X69023292Y-60797210D01*
X69070911Y-60844829D01*
X69118530Y-60940067D01*
X69118530Y-61178162D01*
X69070911Y-61273400D01*
X69023292Y-61321019D01*
X68928054Y-61368638D01*
X68642340Y-61368638D01*
X68547102Y-61321019D01*
X68499483Y-61273400D01*
X69451864Y-60368638D02*
X70070911Y-60368638D01*
X69737578Y-60749591D01*
X69880435Y-60749591D01*
X69975673Y-60797210D01*
X70023292Y-60844829D01*
X70070911Y-60940067D01*
X70070911Y-61178162D01*
X70023292Y-61273400D01*
X69975673Y-61321019D01*
X69880435Y-61368638D01*
X69594721Y-61368638D01*
X69499483Y-61321019D01*
X69451864Y-61273400D01*
G04 #@! TO.C,R12*
X67134780Y-108838257D02*
X66658590Y-109171590D01*
X67134780Y-109409685D02*
X66134780Y-109409685D01*
X66134780Y-109028733D01*
X66182400Y-108933495D01*
X66230019Y-108885876D01*
X66325257Y-108838257D01*
X66468114Y-108838257D01*
X66563352Y-108885876D01*
X66610971Y-108933495D01*
X66658590Y-109028733D01*
X66658590Y-109409685D01*
X67134780Y-107885876D02*
X67134780Y-108457304D01*
X67134780Y-108171590D02*
X66134780Y-108171590D01*
X66277638Y-108266828D01*
X66372876Y-108362066D01*
X66420495Y-108457304D01*
X66230019Y-107504923D02*
X66182400Y-107457304D01*
X66134780Y-107362066D01*
X66134780Y-107123971D01*
X66182400Y-107028733D01*
X66230019Y-106981114D01*
X66325257Y-106933495D01*
X66420495Y-106933495D01*
X66563352Y-106981114D01*
X67134780Y-107552542D01*
X67134780Y-106933495D01*
G04 #@! TO.C,R13*
X69054780Y-108758257D02*
X68578590Y-109091590D01*
X69054780Y-109329685D02*
X68054780Y-109329685D01*
X68054780Y-108948733D01*
X68102400Y-108853495D01*
X68150019Y-108805876D01*
X68245257Y-108758257D01*
X68388114Y-108758257D01*
X68483352Y-108805876D01*
X68530971Y-108853495D01*
X68578590Y-108948733D01*
X68578590Y-109329685D01*
X69054780Y-107805876D02*
X69054780Y-108377304D01*
X69054780Y-108091590D02*
X68054780Y-108091590D01*
X68197638Y-108186828D01*
X68292876Y-108282066D01*
X68340495Y-108377304D01*
X68054780Y-107472542D02*
X68054780Y-106853495D01*
X68435733Y-107186828D01*
X68435733Y-107043971D01*
X68483352Y-106948733D01*
X68530971Y-106901114D01*
X68626209Y-106853495D01*
X68864304Y-106853495D01*
X68959542Y-106901114D01*
X69007161Y-106948733D01*
X69054780Y-107043971D01*
X69054780Y-107329685D01*
X69007161Y-107424923D01*
X68959542Y-107472542D01*
G04 #@! TO.C,R14*
X70844780Y-108808257D02*
X70368590Y-109141590D01*
X70844780Y-109379685D02*
X69844780Y-109379685D01*
X69844780Y-108998733D01*
X69892400Y-108903495D01*
X69940019Y-108855876D01*
X70035257Y-108808257D01*
X70178114Y-108808257D01*
X70273352Y-108855876D01*
X70320971Y-108903495D01*
X70368590Y-108998733D01*
X70368590Y-109379685D01*
X70844780Y-107855876D02*
X70844780Y-108427304D01*
X70844780Y-108141590D02*
X69844780Y-108141590D01*
X69987638Y-108236828D01*
X70082876Y-108332066D01*
X70130495Y-108427304D01*
X70178114Y-106998733D02*
X70844780Y-106998733D01*
X69797161Y-107236828D02*
X70511447Y-107474923D01*
X70511447Y-106855876D01*
G04 #@! TO.C,J5*
X56558380Y-22355133D02*
X57272666Y-22355133D01*
X57415523Y-22402752D01*
X57510761Y-22497990D01*
X57558380Y-22640847D01*
X57558380Y-22736085D01*
X56558380Y-21402752D02*
X56558380Y-21878942D01*
X57034571Y-21926561D01*
X56986952Y-21878942D01*
X56939333Y-21783704D01*
X56939333Y-21545609D01*
X56986952Y-21450371D01*
X57034571Y-21402752D01*
X57129809Y-21355133D01*
X57367904Y-21355133D01*
X57463142Y-21402752D01*
X57510761Y-21450371D01*
X57558380Y-21545609D01*
X57558380Y-21783704D01*
X57510761Y-21878942D01*
X57463142Y-21926561D01*
G04 #@! TO.C,J6*
X39868380Y-28715133D02*
X40582666Y-28715133D01*
X40725523Y-28762752D01*
X40820761Y-28857990D01*
X40868380Y-29000847D01*
X40868380Y-29096085D01*
X39868380Y-27810371D02*
X39868380Y-28000847D01*
X39916000Y-28096085D01*
X39963619Y-28143704D01*
X40106476Y-28238942D01*
X40296952Y-28286561D01*
X40677904Y-28286561D01*
X40773142Y-28238942D01*
X40820761Y-28191323D01*
X40868380Y-28096085D01*
X40868380Y-27905609D01*
X40820761Y-27810371D01*
X40773142Y-27762752D01*
X40677904Y-27715133D01*
X40439809Y-27715133D01*
X40344571Y-27762752D01*
X40296952Y-27810371D01*
X40249333Y-27905609D01*
X40249333Y-28096085D01*
X40296952Y-28191323D01*
X40344571Y-28238942D01*
X40439809Y-28286561D01*
G04 #@! TO.C,C8*
X63861333Y-116584942D02*
X63813714Y-116632561D01*
X63670857Y-116680180D01*
X63575619Y-116680180D01*
X63432761Y-116632561D01*
X63337523Y-116537323D01*
X63289904Y-116442085D01*
X63242285Y-116251609D01*
X63242285Y-116108752D01*
X63289904Y-115918276D01*
X63337523Y-115823038D01*
X63432761Y-115727800D01*
X63575619Y-115680180D01*
X63670857Y-115680180D01*
X63813714Y-115727800D01*
X63861333Y-115775419D01*
X64432761Y-116108752D02*
X64337523Y-116061133D01*
X64289904Y-116013514D01*
X64242285Y-115918276D01*
X64242285Y-115870657D01*
X64289904Y-115775419D01*
X64337523Y-115727800D01*
X64432761Y-115680180D01*
X64623238Y-115680180D01*
X64718476Y-115727800D01*
X64766095Y-115775419D01*
X64813714Y-115870657D01*
X64813714Y-115918276D01*
X64766095Y-116013514D01*
X64718476Y-116061133D01*
X64623238Y-116108752D01*
X64432761Y-116108752D01*
X64337523Y-116156371D01*
X64289904Y-116203990D01*
X64242285Y-116299228D01*
X64242285Y-116489704D01*
X64289904Y-116584942D01*
X64337523Y-116632561D01*
X64432761Y-116680180D01*
X64623238Y-116680180D01*
X64718476Y-116632561D01*
X64766095Y-116584942D01*
X64813714Y-116489704D01*
X64813714Y-116299228D01*
X64766095Y-116203990D01*
X64718476Y-116156371D01*
X64623238Y-116108752D01*
G04 #@! TO.C,C9*
X38773833Y-92448942D02*
X38726214Y-92496561D01*
X38583357Y-92544180D01*
X38488119Y-92544180D01*
X38345261Y-92496561D01*
X38250023Y-92401323D01*
X38202404Y-92306085D01*
X38154785Y-92115609D01*
X38154785Y-91972752D01*
X38202404Y-91782276D01*
X38250023Y-91687038D01*
X38345261Y-91591800D01*
X38488119Y-91544180D01*
X38583357Y-91544180D01*
X38726214Y-91591800D01*
X38773833Y-91639419D01*
X39250023Y-92544180D02*
X39440500Y-92544180D01*
X39535738Y-92496561D01*
X39583357Y-92448942D01*
X39678595Y-92306085D01*
X39726214Y-92115609D01*
X39726214Y-91734657D01*
X39678595Y-91639419D01*
X39630976Y-91591800D01*
X39535738Y-91544180D01*
X39345261Y-91544180D01*
X39250023Y-91591800D01*
X39202404Y-91639419D01*
X39154785Y-91734657D01*
X39154785Y-91972752D01*
X39202404Y-92067990D01*
X39250023Y-92115609D01*
X39345261Y-92163228D01*
X39535738Y-92163228D01*
X39630976Y-92115609D01*
X39678595Y-92067990D01*
X39726214Y-91972752D01*
G04 #@! TO.C,C10*
X59569642Y-97588657D02*
X59617261Y-97636276D01*
X59664880Y-97779133D01*
X59664880Y-97874371D01*
X59617261Y-98017228D01*
X59522023Y-98112466D01*
X59426785Y-98160085D01*
X59236309Y-98207704D01*
X59093452Y-98207704D01*
X58902976Y-98160085D01*
X58807738Y-98112466D01*
X58712500Y-98017228D01*
X58664880Y-97874371D01*
X58664880Y-97779133D01*
X58712500Y-97636276D01*
X58760119Y-97588657D01*
X59664880Y-96636276D02*
X59664880Y-97207704D01*
X59664880Y-96921990D02*
X58664880Y-96921990D01*
X58807738Y-97017228D01*
X58902976Y-97112466D01*
X58950595Y-97207704D01*
X58664880Y-96017228D02*
X58664880Y-95921990D01*
X58712500Y-95826752D01*
X58760119Y-95779133D01*
X58855357Y-95731514D01*
X59045833Y-95683895D01*
X59283928Y-95683895D01*
X59474404Y-95731514D01*
X59569642Y-95779133D01*
X59617261Y-95826752D01*
X59664880Y-95921990D01*
X59664880Y-96017228D01*
X59617261Y-96112466D01*
X59569642Y-96160085D01*
X59474404Y-96207704D01*
X59283928Y-96255323D01*
X59045833Y-96255323D01*
X58855357Y-96207704D01*
X58760119Y-96160085D01*
X58712500Y-96112466D01*
X58664880Y-96017228D01*
G04 #@! TO.C,C29*
X38424642Y-66731442D02*
X38377023Y-66779061D01*
X38234166Y-66826680D01*
X38138928Y-66826680D01*
X37996071Y-66779061D01*
X37900833Y-66683823D01*
X37853214Y-66588585D01*
X37805595Y-66398109D01*
X37805595Y-66255252D01*
X37853214Y-66064776D01*
X37900833Y-65969538D01*
X37996071Y-65874300D01*
X38138928Y-65826680D01*
X38234166Y-65826680D01*
X38377023Y-65874300D01*
X38424642Y-65921919D01*
X38805595Y-65921919D02*
X38853214Y-65874300D01*
X38948452Y-65826680D01*
X39186547Y-65826680D01*
X39281785Y-65874300D01*
X39329404Y-65921919D01*
X39377023Y-66017157D01*
X39377023Y-66112395D01*
X39329404Y-66255252D01*
X38757976Y-66826680D01*
X39377023Y-66826680D01*
X39853214Y-66826680D02*
X40043690Y-66826680D01*
X40138928Y-66779061D01*
X40186547Y-66731442D01*
X40281785Y-66588585D01*
X40329404Y-66398109D01*
X40329404Y-66017157D01*
X40281785Y-65921919D01*
X40234166Y-65874300D01*
X40138928Y-65826680D01*
X39948452Y-65826680D01*
X39853214Y-65874300D01*
X39805595Y-65921919D01*
X39757976Y-66017157D01*
X39757976Y-66255252D01*
X39805595Y-66350490D01*
X39853214Y-66398109D01*
X39948452Y-66445728D01*
X40138928Y-66445728D01*
X40234166Y-66398109D01*
X40281785Y-66350490D01*
X40329404Y-66255252D01*
G04 #@! TO.C,C31*
X57784142Y-65140157D02*
X57831761Y-65187776D01*
X57879380Y-65330633D01*
X57879380Y-65425871D01*
X57831761Y-65568728D01*
X57736523Y-65663966D01*
X57641285Y-65711585D01*
X57450809Y-65759204D01*
X57307952Y-65759204D01*
X57117476Y-65711585D01*
X57022238Y-65663966D01*
X56927000Y-65568728D01*
X56879380Y-65425871D01*
X56879380Y-65330633D01*
X56927000Y-65187776D01*
X56974619Y-65140157D01*
X56879380Y-64806823D02*
X56879380Y-64187776D01*
X57260333Y-64521109D01*
X57260333Y-64378252D01*
X57307952Y-64283014D01*
X57355571Y-64235395D01*
X57450809Y-64187776D01*
X57688904Y-64187776D01*
X57784142Y-64235395D01*
X57831761Y-64283014D01*
X57879380Y-64378252D01*
X57879380Y-64663966D01*
X57831761Y-64759204D01*
X57784142Y-64806823D01*
X57879380Y-63235395D02*
X57879380Y-63806823D01*
X57879380Y-63521109D02*
X56879380Y-63521109D01*
X57022238Y-63616347D01*
X57117476Y-63711585D01*
X57165095Y-63806823D01*
G04 #@! TO.C,C32*
X43560142Y-65140157D02*
X43607761Y-65187776D01*
X43655380Y-65330633D01*
X43655380Y-65425871D01*
X43607761Y-65568728D01*
X43512523Y-65663966D01*
X43417285Y-65711585D01*
X43226809Y-65759204D01*
X43083952Y-65759204D01*
X42893476Y-65711585D01*
X42798238Y-65663966D01*
X42703000Y-65568728D01*
X42655380Y-65425871D01*
X42655380Y-65330633D01*
X42703000Y-65187776D01*
X42750619Y-65140157D01*
X42655380Y-64806823D02*
X42655380Y-64187776D01*
X43036333Y-64521109D01*
X43036333Y-64378252D01*
X43083952Y-64283014D01*
X43131571Y-64235395D01*
X43226809Y-64187776D01*
X43464904Y-64187776D01*
X43560142Y-64235395D01*
X43607761Y-64283014D01*
X43655380Y-64378252D01*
X43655380Y-64663966D01*
X43607761Y-64759204D01*
X43560142Y-64806823D01*
X42750619Y-63806823D02*
X42703000Y-63759204D01*
X42655380Y-63663966D01*
X42655380Y-63425871D01*
X42703000Y-63330633D01*
X42750619Y-63283014D01*
X42845857Y-63235395D01*
X42941095Y-63235395D01*
X43083952Y-63283014D01*
X43655380Y-63854442D01*
X43655380Y-63235395D01*
G04 #@! TO.C,J7*
X74850666Y-100080380D02*
X74850666Y-100794666D01*
X74803047Y-100937523D01*
X74707809Y-101032761D01*
X74564952Y-101080380D01*
X74469714Y-101080380D01*
X75231619Y-100080380D02*
X75898285Y-100080380D01*
X75469714Y-101080380D01*
G04 #@! TO.C,R3*
X64128380Y-98816466D02*
X63652190Y-99149800D01*
X64128380Y-99387895D02*
X63128380Y-99387895D01*
X63128380Y-99006942D01*
X63176000Y-98911704D01*
X63223619Y-98864085D01*
X63318857Y-98816466D01*
X63461714Y-98816466D01*
X63556952Y-98864085D01*
X63604571Y-98911704D01*
X63652190Y-99006942D01*
X63652190Y-99387895D01*
X63128380Y-98483133D02*
X63128380Y-97864085D01*
X63509333Y-98197419D01*
X63509333Y-98054561D01*
X63556952Y-97959323D01*
X63604571Y-97911704D01*
X63699809Y-97864085D01*
X63937904Y-97864085D01*
X64033142Y-97911704D01*
X64080761Y-97959323D01*
X64128380Y-98054561D01*
X64128380Y-98340276D01*
X64080761Y-98435514D01*
X64033142Y-98483133D01*
G04 #@! TO.C,R17*
X26463780Y-69658457D02*
X25987590Y-69991790D01*
X26463780Y-70229885D02*
X25463780Y-70229885D01*
X25463780Y-69848933D01*
X25511400Y-69753695D01*
X25559019Y-69706076D01*
X25654257Y-69658457D01*
X25797114Y-69658457D01*
X25892352Y-69706076D01*
X25939971Y-69753695D01*
X25987590Y-69848933D01*
X25987590Y-70229885D01*
X26463780Y-68706076D02*
X26463780Y-69277504D01*
X26463780Y-68991790D02*
X25463780Y-68991790D01*
X25606638Y-69087028D01*
X25701876Y-69182266D01*
X25749495Y-69277504D01*
X25463780Y-68372742D02*
X25463780Y-67706076D01*
X26463780Y-68134647D01*
G04 #@! TO.C,R18*
X70888380Y-92594657D02*
X70412190Y-92927990D01*
X70888380Y-93166085D02*
X69888380Y-93166085D01*
X69888380Y-92785133D01*
X69936000Y-92689895D01*
X69983619Y-92642276D01*
X70078857Y-92594657D01*
X70221714Y-92594657D01*
X70316952Y-92642276D01*
X70364571Y-92689895D01*
X70412190Y-92785133D01*
X70412190Y-93166085D01*
X70888380Y-91642276D02*
X70888380Y-92213704D01*
X70888380Y-91927990D02*
X69888380Y-91927990D01*
X70031238Y-92023228D01*
X70126476Y-92118466D01*
X70174095Y-92213704D01*
X70316952Y-91070847D02*
X70269333Y-91166085D01*
X70221714Y-91213704D01*
X70126476Y-91261323D01*
X70078857Y-91261323D01*
X69983619Y-91213704D01*
X69936000Y-91166085D01*
X69888380Y-91070847D01*
X69888380Y-90880371D01*
X69936000Y-90785133D01*
X69983619Y-90737514D01*
X70078857Y-90689895D01*
X70126476Y-90689895D01*
X70221714Y-90737514D01*
X70269333Y-90785133D01*
X70316952Y-90880371D01*
X70316952Y-91070847D01*
X70364571Y-91166085D01*
X70412190Y-91213704D01*
X70507428Y-91261323D01*
X70697904Y-91261323D01*
X70793142Y-91213704D01*
X70840761Y-91166085D01*
X70888380Y-91070847D01*
X70888380Y-90880371D01*
X70840761Y-90785133D01*
X70793142Y-90737514D01*
X70697904Y-90689895D01*
X70507428Y-90689895D01*
X70412190Y-90737514D01*
X70364571Y-90785133D01*
X70316952Y-90880371D01*
G04 #@! TO.C,R19*
X31640542Y-76196980D02*
X31307209Y-75720790D01*
X31069114Y-76196980D02*
X31069114Y-75196980D01*
X31450066Y-75196980D01*
X31545304Y-75244600D01*
X31592923Y-75292219D01*
X31640542Y-75387457D01*
X31640542Y-75530314D01*
X31592923Y-75625552D01*
X31545304Y-75673171D01*
X31450066Y-75720790D01*
X31069114Y-75720790D01*
X32592923Y-76196980D02*
X32021495Y-76196980D01*
X32307209Y-76196980D02*
X32307209Y-75196980D01*
X32211971Y-75339838D01*
X32116733Y-75435076D01*
X32021495Y-75482695D01*
X33069114Y-76196980D02*
X33259590Y-76196980D01*
X33354828Y-76149361D01*
X33402447Y-76101742D01*
X33497685Y-75958885D01*
X33545304Y-75768409D01*
X33545304Y-75387457D01*
X33497685Y-75292219D01*
X33450066Y-75244600D01*
X33354828Y-75196980D01*
X33164352Y-75196980D01*
X33069114Y-75244600D01*
X33021495Y-75292219D01*
X32973876Y-75387457D01*
X32973876Y-75625552D01*
X33021495Y-75720790D01*
X33069114Y-75768409D01*
X33164352Y-75816028D01*
X33354828Y-75816028D01*
X33450066Y-75768409D01*
X33497685Y-75720790D01*
X33545304Y-75625552D01*
G04 #@! TO.C,R21*
X46638380Y-106374657D02*
X46162190Y-106707990D01*
X46638380Y-106946085D02*
X45638380Y-106946085D01*
X45638380Y-106565133D01*
X45686000Y-106469895D01*
X45733619Y-106422276D01*
X45828857Y-106374657D01*
X45971714Y-106374657D01*
X46066952Y-106422276D01*
X46114571Y-106469895D01*
X46162190Y-106565133D01*
X46162190Y-106946085D01*
X45733619Y-105993704D02*
X45686000Y-105946085D01*
X45638380Y-105850847D01*
X45638380Y-105612752D01*
X45686000Y-105517514D01*
X45733619Y-105469895D01*
X45828857Y-105422276D01*
X45924095Y-105422276D01*
X46066952Y-105469895D01*
X46638380Y-106041323D01*
X46638380Y-105422276D01*
X46638380Y-104469895D02*
X46638380Y-105041323D01*
X46638380Y-104755609D02*
X45638380Y-104755609D01*
X45781238Y-104850847D01*
X45876476Y-104946085D01*
X45924095Y-105041323D01*
G04 #@! TO.C,SW1*
X29204161Y-72149733D02*
X29251780Y-72006876D01*
X29251780Y-71768780D01*
X29204161Y-71673542D01*
X29156542Y-71625923D01*
X29061304Y-71578304D01*
X28966066Y-71578304D01*
X28870828Y-71625923D01*
X28823209Y-71673542D01*
X28775590Y-71768780D01*
X28727971Y-71959257D01*
X28680352Y-72054495D01*
X28632733Y-72102114D01*
X28537495Y-72149733D01*
X28442257Y-72149733D01*
X28347019Y-72102114D01*
X28299400Y-72054495D01*
X28251780Y-71959257D01*
X28251780Y-71721161D01*
X28299400Y-71578304D01*
X28251780Y-71244971D02*
X29251780Y-71006876D01*
X28537495Y-70816400D01*
X29251780Y-70625923D01*
X28251780Y-70387828D01*
X29251780Y-69483066D02*
X29251780Y-70054495D01*
X29251780Y-69768780D02*
X28251780Y-69768780D01*
X28394638Y-69864019D01*
X28489876Y-69959257D01*
X28537495Y-70054495D01*
G04 #@! TO.C,SW2*
X43135261Y-72169133D02*
X43182880Y-72026276D01*
X43182880Y-71788180D01*
X43135261Y-71692942D01*
X43087642Y-71645323D01*
X42992404Y-71597704D01*
X42897166Y-71597704D01*
X42801928Y-71645323D01*
X42754309Y-71692942D01*
X42706690Y-71788180D01*
X42659071Y-71978657D01*
X42611452Y-72073895D01*
X42563833Y-72121514D01*
X42468595Y-72169133D01*
X42373357Y-72169133D01*
X42278119Y-72121514D01*
X42230500Y-72073895D01*
X42182880Y-71978657D01*
X42182880Y-71740561D01*
X42230500Y-71597704D01*
X42182880Y-71264371D02*
X43182880Y-71026276D01*
X42468595Y-70835800D01*
X43182880Y-70645323D01*
X42182880Y-70407228D01*
X42278119Y-70073895D02*
X42230500Y-70026276D01*
X42182880Y-69931038D01*
X42182880Y-69692942D01*
X42230500Y-69597704D01*
X42278119Y-69550085D01*
X42373357Y-69502466D01*
X42468595Y-69502466D01*
X42611452Y-69550085D01*
X43182880Y-70121514D01*
X43182880Y-69502466D01*
G04 #@! TO.C,U5*
X92352295Y-100167380D02*
X92352295Y-100976904D01*
X92399914Y-101072142D01*
X92447533Y-101119761D01*
X92542771Y-101167380D01*
X92733247Y-101167380D01*
X92828485Y-101119761D01*
X92876104Y-101072142D01*
X92923723Y-100976904D01*
X92923723Y-100167380D01*
X93876104Y-100167380D02*
X93399914Y-100167380D01*
X93352295Y-100643571D01*
X93399914Y-100595952D01*
X93495152Y-100548333D01*
X93733247Y-100548333D01*
X93828485Y-100595952D01*
X93876104Y-100643571D01*
X93923723Y-100738809D01*
X93923723Y-100976904D01*
X93876104Y-101072142D01*
X93828485Y-101119761D01*
X93733247Y-101167380D01*
X93495152Y-101167380D01*
X93399914Y-101119761D01*
X93352295Y-101072142D01*
G04 #@! TO.C,U6*
X77511102Y-78687638D02*
X77511102Y-79497162D01*
X77558721Y-79592400D01*
X77606340Y-79640019D01*
X77701578Y-79687638D01*
X77892054Y-79687638D01*
X77987292Y-79640019D01*
X78034911Y-79592400D01*
X78082530Y-79497162D01*
X78082530Y-78687638D01*
X78987292Y-78687638D02*
X78796816Y-78687638D01*
X78701578Y-78735258D01*
X78653959Y-78782877D01*
X78558721Y-78925734D01*
X78511102Y-79116210D01*
X78511102Y-79497162D01*
X78558721Y-79592400D01*
X78606340Y-79640019D01*
X78701578Y-79687638D01*
X78892054Y-79687638D01*
X78987292Y-79640019D01*
X79034911Y-79592400D01*
X79082530Y-79497162D01*
X79082530Y-79259067D01*
X79034911Y-79163829D01*
X78987292Y-79116210D01*
X78892054Y-79068591D01*
X78701578Y-79068591D01*
X78606340Y-79116210D01*
X78558721Y-79163829D01*
X78511102Y-79259067D01*
G04 #@! TO.C,Y1*
X71827190Y-49829990D02*
X72303380Y-49829990D01*
X71303380Y-50163323D02*
X71827190Y-49829990D01*
X71303380Y-49496657D01*
X72303380Y-48639514D02*
X72303380Y-49210942D01*
X72303380Y-48925228D02*
X71303380Y-48925228D01*
X71446238Y-49020466D01*
X71541476Y-49115704D01*
X71589095Y-49210942D01*
G04 #@! TO.C,Y2*
X51688809Y-68506490D02*
X51688809Y-68982680D01*
X51355476Y-67982680D02*
X51688809Y-68506490D01*
X52022142Y-67982680D01*
X52307857Y-68077919D02*
X52355476Y-68030300D01*
X52450714Y-67982680D01*
X52688809Y-67982680D01*
X52784047Y-68030300D01*
X52831666Y-68077919D01*
X52879285Y-68173157D01*
X52879285Y-68268395D01*
X52831666Y-68411252D01*
X52260238Y-68982680D01*
X52879285Y-68982680D01*
G04 #@! TO.C,J4*
X64888380Y-110515133D02*
X65602666Y-110515133D01*
X65745523Y-110562752D01*
X65840761Y-110657990D01*
X65888380Y-110800847D01*
X65888380Y-110896085D01*
X65221714Y-109610371D02*
X65888380Y-109610371D01*
X64840761Y-109848466D02*
X65555047Y-110086561D01*
X65555047Y-109467514D01*
G04 #@! TO.C,J1*
X71802666Y-120113180D02*
X71802666Y-120827466D01*
X71755047Y-120970323D01*
X71659809Y-121065561D01*
X71516952Y-121113180D01*
X71421714Y-121113180D01*
X72802666Y-121113180D02*
X72231238Y-121113180D01*
X72516952Y-121113180D02*
X72516952Y-120113180D01*
X72421714Y-120256038D01*
X72326476Y-120351276D01*
X72231238Y-120398895D01*
G04 #@! TD*
M02*
