G04 #@! TF.GenerationSoftware,KiCad,Pcbnew,(5.0.1)-3*
G04 #@! TF.CreationDate,2018-12-03T23:59:26+01:00*
G04 #@! TF.ProjectId,antennaanalyzernx,616E74656E6E61616E616C797A65726E,rev?*
G04 #@! TF.SameCoordinates,Original*
G04 #@! TF.FileFunction,Legend,Bot*
G04 #@! TF.FilePolarity,Positive*
%FSLAX46Y46*%
G04 Gerber Fmt 4.6, Leading zero omitted, Abs format (unit mm)*
G04 Created by KiCad (PCBNEW (5.0.1)-3) date 2018-12-03 23:59:26*
%MOMM*%
%LPD*%
G01*
G04 APERTURE LIST*
%ADD10C,0.150000*%
%ADD11C,0.120000*%
G04 APERTURE END LIST*
D10*
X21336000Y-119811800D02*
X21336000Y-19989800D01*
X107696000Y-119781800D02*
X21336000Y-119811800D01*
X107696000Y-19989800D02*
X107696000Y-119781800D01*
X21336000Y-19989800D02*
X107696000Y-19989800D01*
D11*
G04 #@! TO.C,C12*
X49437000Y-83178300D02*
X49437000Y-82178300D01*
X51137000Y-82178300D02*
X51137000Y-83178300D01*
G04 #@! TO.C,C13*
X65110500Y-78061800D02*
X66110500Y-78061800D01*
X66110500Y-79761800D02*
X65110500Y-79761800D01*
G04 #@! TO.C,C14*
X50438500Y-70771800D02*
X50438500Y-71771800D01*
X48738500Y-71771800D02*
X48738500Y-70771800D01*
G04 #@! TO.C,C15*
X53691500Y-71684800D02*
X53691500Y-70684800D01*
X55391500Y-70684800D02*
X55391500Y-71684800D01*
G04 #@! TO.C,C16*
X46655622Y-71842588D02*
X46655622Y-70842588D01*
X48355622Y-70842588D02*
X48355622Y-71842588D01*
G04 #@! TO.C,C17*
X38440500Y-91523800D02*
X39440500Y-91523800D01*
X39440500Y-93223800D02*
X38440500Y-93223800D01*
G04 #@! TO.C,C21*
X46323622Y-70842588D02*
X46323622Y-71842588D01*
X44623622Y-71842588D02*
X44623622Y-70842588D01*
G04 #@! TO.C,C22*
X60344500Y-96465800D02*
X60344500Y-97465800D01*
X58644500Y-97465800D02*
X58644500Y-96465800D01*
G04 #@! TO.C,C23*
X69920500Y-87381800D02*
X68920500Y-87381800D01*
X68920500Y-85681800D02*
X69920500Y-85681800D01*
G04 #@! TO.C,C24*
X68865501Y-83635799D02*
X69865501Y-83635799D01*
X69865501Y-85335799D02*
X68865501Y-85335799D01*
G04 #@! TO.C,C25*
X49295500Y-82178300D02*
X49295500Y-83178300D01*
X47595500Y-83178300D02*
X47595500Y-82178300D01*
G04 #@! TO.C,C26*
X38146500Y-79077800D02*
X39146500Y-79077800D01*
X39146500Y-80777800D02*
X38146500Y-80777800D01*
G04 #@! TO.C,R8*
X49366000Y-87981800D02*
X49366000Y-86781800D01*
X47606000Y-86781800D02*
X47606000Y-87981800D01*
G04 #@! TO.C,R9*
X53755400Y-84417600D02*
X53755400Y-85617600D01*
X55515400Y-85617600D02*
X55515400Y-84417600D01*
G04 #@! TD*
G04 #@! TO.C,C12*
D10*
X48894142Y-82035442D02*
X48941761Y-81987823D01*
X48989380Y-81844966D01*
X48989380Y-81749728D01*
X48941761Y-81606871D01*
X48846523Y-81511633D01*
X48751285Y-81464014D01*
X48560809Y-81416395D01*
X48417952Y-81416395D01*
X48227476Y-81464014D01*
X48132238Y-81511633D01*
X48037000Y-81606871D01*
X47989380Y-81749728D01*
X47989380Y-81844966D01*
X48037000Y-81987823D01*
X48084619Y-82035442D01*
X48989380Y-82987823D02*
X48989380Y-82416395D01*
X48989380Y-82702109D02*
X47989380Y-82702109D01*
X48132238Y-82606871D01*
X48227476Y-82511633D01*
X48275095Y-82416395D01*
X48084619Y-83368776D02*
X48037000Y-83416395D01*
X47989380Y-83511633D01*
X47989380Y-83749728D01*
X48037000Y-83844966D01*
X48084619Y-83892585D01*
X48179857Y-83940204D01*
X48275095Y-83940204D01*
X48417952Y-83892585D01*
X48989380Y-83321157D01*
X48989380Y-83940204D01*
G04 #@! TO.C,C13*
X66253357Y-81018942D02*
X66300976Y-81066561D01*
X66443833Y-81114180D01*
X66539071Y-81114180D01*
X66681928Y-81066561D01*
X66777166Y-80971323D01*
X66824785Y-80876085D01*
X66872404Y-80685609D01*
X66872404Y-80542752D01*
X66824785Y-80352276D01*
X66777166Y-80257038D01*
X66681928Y-80161800D01*
X66539071Y-80114180D01*
X66443833Y-80114180D01*
X66300976Y-80161800D01*
X66253357Y-80209419D01*
X65300976Y-81114180D02*
X65872404Y-81114180D01*
X65586690Y-81114180D02*
X65586690Y-80114180D01*
X65681928Y-80257038D01*
X65777166Y-80352276D01*
X65872404Y-80399895D01*
X64967642Y-80114180D02*
X64348595Y-80114180D01*
X64681928Y-80495133D01*
X64539071Y-80495133D01*
X64443833Y-80542752D01*
X64396214Y-80590371D01*
X64348595Y-80685609D01*
X64348595Y-80923704D01*
X64396214Y-81018942D01*
X64443833Y-81066561D01*
X64539071Y-81114180D01*
X64824785Y-81114180D01*
X64920023Y-81066561D01*
X64967642Y-81018942D01*
G04 #@! TO.C,C14*
X51695642Y-70628942D02*
X51743261Y-70581323D01*
X51790880Y-70438466D01*
X51790880Y-70343228D01*
X51743261Y-70200371D01*
X51648023Y-70105133D01*
X51552785Y-70057514D01*
X51362309Y-70009895D01*
X51219452Y-70009895D01*
X51028976Y-70057514D01*
X50933738Y-70105133D01*
X50838500Y-70200371D01*
X50790880Y-70343228D01*
X50790880Y-70438466D01*
X50838500Y-70581323D01*
X50886119Y-70628942D01*
X51790880Y-71581323D02*
X51790880Y-71009895D01*
X51790880Y-71295609D02*
X50790880Y-71295609D01*
X50933738Y-71200371D01*
X51028976Y-71105133D01*
X51076595Y-71009895D01*
X51124214Y-72438466D02*
X51790880Y-72438466D01*
X50743261Y-72200371D02*
X51457547Y-71962276D01*
X51457547Y-72581323D01*
G04 #@! TO.C,C15*
X56648642Y-70541942D02*
X56696261Y-70494323D01*
X56743880Y-70351466D01*
X56743880Y-70256228D01*
X56696261Y-70113371D01*
X56601023Y-70018133D01*
X56505785Y-69970514D01*
X56315309Y-69922895D01*
X56172452Y-69922895D01*
X55981976Y-69970514D01*
X55886738Y-70018133D01*
X55791500Y-70113371D01*
X55743880Y-70256228D01*
X55743880Y-70351466D01*
X55791500Y-70494323D01*
X55839119Y-70541942D01*
X56743880Y-71494323D02*
X56743880Y-70922895D01*
X56743880Y-71208609D02*
X55743880Y-71208609D01*
X55886738Y-71113371D01*
X55981976Y-71018133D01*
X56029595Y-70922895D01*
X55743880Y-72399085D02*
X55743880Y-71922895D01*
X56220071Y-71875276D01*
X56172452Y-71922895D01*
X56124833Y-72018133D01*
X56124833Y-72256228D01*
X56172452Y-72351466D01*
X56220071Y-72399085D01*
X56315309Y-72446704D01*
X56553404Y-72446704D01*
X56648642Y-72399085D01*
X56696261Y-72351466D01*
X56743880Y-72256228D01*
X56743880Y-72018133D01*
X56696261Y-71922895D01*
X56648642Y-71875276D01*
G04 #@! TO.C,C16*
X49612764Y-70699730D02*
X49660383Y-70652111D01*
X49708002Y-70509254D01*
X49708002Y-70414016D01*
X49660383Y-70271159D01*
X49565145Y-70175921D01*
X49469907Y-70128302D01*
X49279431Y-70080683D01*
X49136574Y-70080683D01*
X48946098Y-70128302D01*
X48850860Y-70175921D01*
X48755622Y-70271159D01*
X48708002Y-70414016D01*
X48708002Y-70509254D01*
X48755622Y-70652111D01*
X48803241Y-70699730D01*
X49708002Y-71652111D02*
X49708002Y-71080683D01*
X49708002Y-71366397D02*
X48708002Y-71366397D01*
X48850860Y-71271159D01*
X48946098Y-71175921D01*
X48993717Y-71080683D01*
X48708002Y-72509254D02*
X48708002Y-72318778D01*
X48755622Y-72223540D01*
X48803241Y-72175921D01*
X48946098Y-72080683D01*
X49136574Y-72033064D01*
X49517526Y-72033064D01*
X49612764Y-72080683D01*
X49660383Y-72128302D01*
X49708002Y-72223540D01*
X49708002Y-72414016D01*
X49660383Y-72509254D01*
X49612764Y-72556873D01*
X49517526Y-72604492D01*
X49279431Y-72604492D01*
X49184193Y-72556873D01*
X49136574Y-72509254D01*
X49088955Y-72414016D01*
X49088955Y-72223540D01*
X49136574Y-72128302D01*
X49184193Y-72080683D01*
X49279431Y-72033064D01*
G04 #@! TO.C,C17*
X39583357Y-90980942D02*
X39630976Y-91028561D01*
X39773833Y-91076180D01*
X39869071Y-91076180D01*
X40011928Y-91028561D01*
X40107166Y-90933323D01*
X40154785Y-90838085D01*
X40202404Y-90647609D01*
X40202404Y-90504752D01*
X40154785Y-90314276D01*
X40107166Y-90219038D01*
X40011928Y-90123800D01*
X39869071Y-90076180D01*
X39773833Y-90076180D01*
X39630976Y-90123800D01*
X39583357Y-90171419D01*
X38630976Y-91076180D02*
X39202404Y-91076180D01*
X38916690Y-91076180D02*
X38916690Y-90076180D01*
X39011928Y-90219038D01*
X39107166Y-90314276D01*
X39202404Y-90361895D01*
X38297642Y-90076180D02*
X37630976Y-90076180D01*
X38059547Y-91076180D01*
G04 #@! TO.C,C21*
X47580764Y-70699730D02*
X47628383Y-70652111D01*
X47676002Y-70509254D01*
X47676002Y-70414016D01*
X47628383Y-70271159D01*
X47533145Y-70175921D01*
X47437907Y-70128302D01*
X47247431Y-70080683D01*
X47104574Y-70080683D01*
X46914098Y-70128302D01*
X46818860Y-70175921D01*
X46723622Y-70271159D01*
X46676002Y-70414016D01*
X46676002Y-70509254D01*
X46723622Y-70652111D01*
X46771241Y-70699730D01*
X46771241Y-71080683D02*
X46723622Y-71128302D01*
X46676002Y-71223540D01*
X46676002Y-71461635D01*
X46723622Y-71556873D01*
X46771241Y-71604492D01*
X46866479Y-71652111D01*
X46961717Y-71652111D01*
X47104574Y-71604492D01*
X47676002Y-71033064D01*
X47676002Y-71652111D01*
X47676002Y-72604492D02*
X47676002Y-72033064D01*
X47676002Y-72318778D02*
X46676002Y-72318778D01*
X46818860Y-72223540D01*
X46914098Y-72128302D01*
X46961717Y-72033064D01*
G04 #@! TO.C,C22*
X58101642Y-96322942D02*
X58149261Y-96275323D01*
X58196880Y-96132466D01*
X58196880Y-96037228D01*
X58149261Y-95894371D01*
X58054023Y-95799133D01*
X57958785Y-95751514D01*
X57768309Y-95703895D01*
X57625452Y-95703895D01*
X57434976Y-95751514D01*
X57339738Y-95799133D01*
X57244500Y-95894371D01*
X57196880Y-96037228D01*
X57196880Y-96132466D01*
X57244500Y-96275323D01*
X57292119Y-96322942D01*
X57292119Y-96703895D02*
X57244500Y-96751514D01*
X57196880Y-96846752D01*
X57196880Y-97084847D01*
X57244500Y-97180085D01*
X57292119Y-97227704D01*
X57387357Y-97275323D01*
X57482595Y-97275323D01*
X57625452Y-97227704D01*
X58196880Y-96656276D01*
X58196880Y-97275323D01*
X57292119Y-97656276D02*
X57244500Y-97703895D01*
X57196880Y-97799133D01*
X57196880Y-98037228D01*
X57244500Y-98132466D01*
X57292119Y-98180085D01*
X57387357Y-98227704D01*
X57482595Y-98227704D01*
X57625452Y-98180085D01*
X58196880Y-97608657D01*
X58196880Y-98227704D01*
G04 #@! TO.C,C23*
X70063357Y-88638942D02*
X70110976Y-88686561D01*
X70253833Y-88734180D01*
X70349071Y-88734180D01*
X70491928Y-88686561D01*
X70587166Y-88591323D01*
X70634785Y-88496085D01*
X70682404Y-88305609D01*
X70682404Y-88162752D01*
X70634785Y-87972276D01*
X70587166Y-87877038D01*
X70491928Y-87781800D01*
X70349071Y-87734180D01*
X70253833Y-87734180D01*
X70110976Y-87781800D01*
X70063357Y-87829419D01*
X69682404Y-87829419D02*
X69634785Y-87781800D01*
X69539547Y-87734180D01*
X69301452Y-87734180D01*
X69206214Y-87781800D01*
X69158595Y-87829419D01*
X69110976Y-87924657D01*
X69110976Y-88019895D01*
X69158595Y-88162752D01*
X69730023Y-88734180D01*
X69110976Y-88734180D01*
X68777642Y-87734180D02*
X68158595Y-87734180D01*
X68491928Y-88115133D01*
X68349071Y-88115133D01*
X68253833Y-88162752D01*
X68206214Y-88210371D01*
X68158595Y-88305609D01*
X68158595Y-88543704D01*
X68206214Y-88638942D01*
X68253833Y-88686561D01*
X68349071Y-88734180D01*
X68634785Y-88734180D01*
X68730023Y-88686561D01*
X68777642Y-88638942D01*
G04 #@! TO.C,C24*
X70008358Y-86592941D02*
X70055977Y-86640560D01*
X70198834Y-86688179D01*
X70294072Y-86688179D01*
X70436929Y-86640560D01*
X70532167Y-86545322D01*
X70579786Y-86450084D01*
X70627405Y-86259608D01*
X70627405Y-86116751D01*
X70579786Y-85926275D01*
X70532167Y-85831037D01*
X70436929Y-85735799D01*
X70294072Y-85688179D01*
X70198834Y-85688179D01*
X70055977Y-85735799D01*
X70008358Y-85783418D01*
X69627405Y-85783418D02*
X69579786Y-85735799D01*
X69484548Y-85688179D01*
X69246453Y-85688179D01*
X69151215Y-85735799D01*
X69103596Y-85783418D01*
X69055977Y-85878656D01*
X69055977Y-85973894D01*
X69103596Y-86116751D01*
X69675024Y-86688179D01*
X69055977Y-86688179D01*
X68198834Y-86021513D02*
X68198834Y-86688179D01*
X68436929Y-85640560D02*
X68675024Y-86354846D01*
X68055977Y-86354846D01*
G04 #@! TO.C,C25*
X47052642Y-82035442D02*
X47100261Y-81987823D01*
X47147880Y-81844966D01*
X47147880Y-81749728D01*
X47100261Y-81606871D01*
X47005023Y-81511633D01*
X46909785Y-81464014D01*
X46719309Y-81416395D01*
X46576452Y-81416395D01*
X46385976Y-81464014D01*
X46290738Y-81511633D01*
X46195500Y-81606871D01*
X46147880Y-81749728D01*
X46147880Y-81844966D01*
X46195500Y-81987823D01*
X46243119Y-82035442D01*
X46243119Y-82416395D02*
X46195500Y-82464014D01*
X46147880Y-82559252D01*
X46147880Y-82797347D01*
X46195500Y-82892585D01*
X46243119Y-82940204D01*
X46338357Y-82987823D01*
X46433595Y-82987823D01*
X46576452Y-82940204D01*
X47147880Y-82368776D01*
X47147880Y-82987823D01*
X46147880Y-83892585D02*
X46147880Y-83416395D01*
X46624071Y-83368776D01*
X46576452Y-83416395D01*
X46528833Y-83511633D01*
X46528833Y-83749728D01*
X46576452Y-83844966D01*
X46624071Y-83892585D01*
X46719309Y-83940204D01*
X46957404Y-83940204D01*
X47052642Y-83892585D01*
X47100261Y-83844966D01*
X47147880Y-83749728D01*
X47147880Y-83511633D01*
X47100261Y-83416395D01*
X47052642Y-83368776D01*
G04 #@! TO.C,C26*
X39289357Y-78534942D02*
X39336976Y-78582561D01*
X39479833Y-78630180D01*
X39575071Y-78630180D01*
X39717928Y-78582561D01*
X39813166Y-78487323D01*
X39860785Y-78392085D01*
X39908404Y-78201609D01*
X39908404Y-78058752D01*
X39860785Y-77868276D01*
X39813166Y-77773038D01*
X39717928Y-77677800D01*
X39575071Y-77630180D01*
X39479833Y-77630180D01*
X39336976Y-77677800D01*
X39289357Y-77725419D01*
X38908404Y-77725419D02*
X38860785Y-77677800D01*
X38765547Y-77630180D01*
X38527452Y-77630180D01*
X38432214Y-77677800D01*
X38384595Y-77725419D01*
X38336976Y-77820657D01*
X38336976Y-77915895D01*
X38384595Y-78058752D01*
X38956023Y-78630180D01*
X38336976Y-78630180D01*
X37479833Y-77630180D02*
X37670309Y-77630180D01*
X37765547Y-77677800D01*
X37813166Y-77725419D01*
X37908404Y-77868276D01*
X37956023Y-78058752D01*
X37956023Y-78439704D01*
X37908404Y-78534942D01*
X37860785Y-78582561D01*
X37765547Y-78630180D01*
X37575071Y-78630180D01*
X37479833Y-78582561D01*
X37432214Y-78534942D01*
X37384595Y-78439704D01*
X37384595Y-78201609D01*
X37432214Y-78106371D01*
X37479833Y-78058752D01*
X37575071Y-78011133D01*
X37765547Y-78011133D01*
X37860785Y-78058752D01*
X37908404Y-78106371D01*
X37956023Y-78201609D01*
G04 #@! TO.C,R8*
X50638380Y-87215133D02*
X50162190Y-86881800D01*
X50638380Y-86643704D02*
X49638380Y-86643704D01*
X49638380Y-87024657D01*
X49686000Y-87119895D01*
X49733619Y-87167514D01*
X49828857Y-87215133D01*
X49971714Y-87215133D01*
X50066952Y-87167514D01*
X50114571Y-87119895D01*
X50162190Y-87024657D01*
X50162190Y-86643704D01*
X50066952Y-87786561D02*
X50019333Y-87691323D01*
X49971714Y-87643704D01*
X49876476Y-87596085D01*
X49828857Y-87596085D01*
X49733619Y-87643704D01*
X49686000Y-87691323D01*
X49638380Y-87786561D01*
X49638380Y-87977038D01*
X49686000Y-88072276D01*
X49733619Y-88119895D01*
X49828857Y-88167514D01*
X49876476Y-88167514D01*
X49971714Y-88119895D01*
X50019333Y-88072276D01*
X50066952Y-87977038D01*
X50066952Y-87786561D01*
X50114571Y-87691323D01*
X50162190Y-87643704D01*
X50257428Y-87596085D01*
X50447904Y-87596085D01*
X50543142Y-87643704D01*
X50590761Y-87691323D01*
X50638380Y-87786561D01*
X50638380Y-87977038D01*
X50590761Y-88072276D01*
X50543142Y-88119895D01*
X50447904Y-88167514D01*
X50257428Y-88167514D01*
X50162190Y-88119895D01*
X50114571Y-88072276D01*
X50066952Y-87977038D01*
G04 #@! TO.C,R9*
X53387780Y-84850933D02*
X52911590Y-84517600D01*
X53387780Y-84279504D02*
X52387780Y-84279504D01*
X52387780Y-84660457D01*
X52435400Y-84755695D01*
X52483019Y-84803314D01*
X52578257Y-84850933D01*
X52721114Y-84850933D01*
X52816352Y-84803314D01*
X52863971Y-84755695D01*
X52911590Y-84660457D01*
X52911590Y-84279504D01*
X53387780Y-85327123D02*
X53387780Y-85517600D01*
X53340161Y-85612838D01*
X53292542Y-85660457D01*
X53149685Y-85755695D01*
X52959209Y-85803314D01*
X52578257Y-85803314D01*
X52483019Y-85755695D01*
X52435400Y-85708076D01*
X52387780Y-85612838D01*
X52387780Y-85422361D01*
X52435400Y-85327123D01*
X52483019Y-85279504D01*
X52578257Y-85231885D01*
X52816352Y-85231885D01*
X52911590Y-85279504D01*
X52959209Y-85327123D01*
X53006828Y-85422361D01*
X53006828Y-85612838D01*
X52959209Y-85708076D01*
X52911590Y-85755695D01*
X52816352Y-85803314D01*
G04 #@! TD*
M02*
