G04 #@! TF.GenerationSoftware,KiCad,Pcbnew,(5.0.1)-3*
G04 #@! TF.CreationDate,2018-12-03T23:59:26+01:00*
G04 #@! TF.ProjectId,antennaanalyzernx,616E74656E6E61616E616C797A65726E,rev?*
G04 #@! TF.SameCoordinates,Original*
G04 #@! TF.FileFunction,Soldermask,Bot*
G04 #@! TF.FilePolarity,Negative*
%FSLAX46Y46*%
G04 Gerber Fmt 4.6, Leading zero omitted, Abs format (unit mm)*
G04 Created by KiCad (PCBNEW (5.0.1)-3) date 2018-12-03 23:59:26*
%MOMM*%
%LPD*%
G01*
G04 APERTURE LIST*
%ADD10C,0.150000*%
%ADD11C,0.100000*%
G04 APERTURE END LIST*
D10*
X21336000Y-119811800D02*
X21336000Y-19989800D01*
X107696000Y-119781800D02*
X21336000Y-119811800D01*
X107696000Y-19989800D02*
X107696000Y-119781800D01*
X21336000Y-19989800D02*
X107696000Y-19989800D01*
D11*
G36*
X74300590Y-114667845D02*
X74371429Y-114681936D01*
X74471523Y-114723397D01*
X74561607Y-114783589D01*
X74638211Y-114860193D01*
X74638213Y-114860196D01*
X74698403Y-114950277D01*
X74739864Y-115050371D01*
X74761000Y-115156630D01*
X74761000Y-115264970D01*
X74739864Y-115371229D01*
X74698403Y-115471323D01*
X74638211Y-115561407D01*
X74561607Y-115638011D01*
X74561604Y-115638013D01*
X74471523Y-115698203D01*
X74371429Y-115739664D01*
X74300590Y-115753755D01*
X74265171Y-115760800D01*
X74156829Y-115760800D01*
X74121410Y-115753755D01*
X74050571Y-115739664D01*
X73950477Y-115698203D01*
X73860396Y-115638013D01*
X73860393Y-115638011D01*
X73783789Y-115561407D01*
X73723597Y-115471323D01*
X73682136Y-115371229D01*
X73661000Y-115264970D01*
X73661000Y-115156630D01*
X73682136Y-115050371D01*
X73723597Y-114950277D01*
X73783787Y-114860196D01*
X73783789Y-114860193D01*
X73860393Y-114783589D01*
X73950477Y-114723397D01*
X74050571Y-114681936D01*
X74121410Y-114667845D01*
X74156829Y-114660800D01*
X74265171Y-114660800D01*
X74300590Y-114667845D01*
X74300590Y-114667845D01*
G37*
G36*
X70150590Y-114667845D02*
X70221429Y-114681936D01*
X70321523Y-114723397D01*
X70411607Y-114783589D01*
X70488211Y-114860193D01*
X70488213Y-114860196D01*
X70548403Y-114950277D01*
X70589864Y-115050371D01*
X70611000Y-115156630D01*
X70611000Y-115264970D01*
X70589864Y-115371229D01*
X70548403Y-115471323D01*
X70488211Y-115561407D01*
X70411607Y-115638011D01*
X70411604Y-115638013D01*
X70321523Y-115698203D01*
X70221429Y-115739664D01*
X70150590Y-115753755D01*
X70115171Y-115760800D01*
X70006829Y-115760800D01*
X69971410Y-115753755D01*
X69900571Y-115739664D01*
X69800477Y-115698203D01*
X69710396Y-115638013D01*
X69710393Y-115638011D01*
X69633789Y-115561407D01*
X69573597Y-115471323D01*
X69532136Y-115371229D01*
X69511000Y-115264970D01*
X69511000Y-115156630D01*
X69532136Y-115050371D01*
X69573597Y-114950277D01*
X69633787Y-114860196D01*
X69633789Y-114860193D01*
X69710393Y-114783589D01*
X69800477Y-114723397D01*
X69900571Y-114681936D01*
X69971410Y-114667845D01*
X70006829Y-114660800D01*
X70115171Y-114660800D01*
X70150590Y-114667845D01*
X70150590Y-114667845D01*
G37*
G36*
X58154707Y-109139396D02*
X58231836Y-109146993D01*
X58363787Y-109187020D01*
X58429763Y-109207033D01*
X58612172Y-109304533D01*
X58772054Y-109435746D01*
X58903267Y-109595628D01*
X59000767Y-109778037D01*
X59000767Y-109778038D01*
X59060807Y-109975964D01*
X59081080Y-110181800D01*
X59060807Y-110387636D01*
X59020780Y-110519587D01*
X59000767Y-110585563D01*
X58903267Y-110767972D01*
X58772054Y-110927854D01*
X58612172Y-111059067D01*
X58429763Y-111156567D01*
X58363787Y-111176580D01*
X58231836Y-111216607D01*
X58154707Y-111224204D01*
X58077580Y-111231800D01*
X57974420Y-111231800D01*
X57897293Y-111224204D01*
X57820164Y-111216607D01*
X57688213Y-111176580D01*
X57622237Y-111156567D01*
X57439828Y-111059067D01*
X57279946Y-110927854D01*
X57148733Y-110767972D01*
X57051233Y-110585563D01*
X57031220Y-110519587D01*
X56991193Y-110387636D01*
X56970920Y-110181800D01*
X56991193Y-109975964D01*
X57051233Y-109778038D01*
X57051233Y-109778037D01*
X57148733Y-109595628D01*
X57279946Y-109435746D01*
X57439828Y-109304533D01*
X57622237Y-109207033D01*
X57688213Y-109187020D01*
X57820164Y-109146993D01*
X57897293Y-109139396D01*
X57974420Y-109131800D01*
X58077580Y-109131800D01*
X58154707Y-109139396D01*
X58154707Y-109139396D01*
G37*
G36*
X32754707Y-109139396D02*
X32831836Y-109146993D01*
X32963787Y-109187020D01*
X33029763Y-109207033D01*
X33212172Y-109304533D01*
X33372054Y-109435746D01*
X33503267Y-109595628D01*
X33600767Y-109778037D01*
X33600767Y-109778038D01*
X33660807Y-109975964D01*
X33681080Y-110181800D01*
X33660807Y-110387636D01*
X33620780Y-110519587D01*
X33600767Y-110585563D01*
X33503267Y-110767972D01*
X33372054Y-110927854D01*
X33212172Y-111059067D01*
X33029763Y-111156567D01*
X32963787Y-111176580D01*
X32831836Y-111216607D01*
X32754707Y-111224204D01*
X32677580Y-111231800D01*
X32574420Y-111231800D01*
X32497293Y-111224204D01*
X32420164Y-111216607D01*
X32288213Y-111176580D01*
X32222237Y-111156567D01*
X32039828Y-111059067D01*
X31879946Y-110927854D01*
X31748733Y-110767972D01*
X31651233Y-110585563D01*
X31631220Y-110519587D01*
X31591193Y-110387636D01*
X31570920Y-110181800D01*
X31591193Y-109975964D01*
X31651233Y-109778038D01*
X31651233Y-109778037D01*
X31748733Y-109595628D01*
X31879946Y-109435746D01*
X32039828Y-109304533D01*
X32222237Y-109207033D01*
X32288213Y-109187020D01*
X32420164Y-109146993D01*
X32497293Y-109139396D01*
X32574420Y-109131800D01*
X32677580Y-109131800D01*
X32754707Y-109139396D01*
X32754707Y-109139396D01*
G37*
G36*
X35294707Y-109139396D02*
X35371836Y-109146993D01*
X35503787Y-109187020D01*
X35569763Y-109207033D01*
X35752172Y-109304533D01*
X35912054Y-109435746D01*
X36043267Y-109595628D01*
X36140767Y-109778037D01*
X36140767Y-109778038D01*
X36200807Y-109975964D01*
X36221080Y-110181800D01*
X36200807Y-110387636D01*
X36160780Y-110519587D01*
X36140767Y-110585563D01*
X36043267Y-110767972D01*
X35912054Y-110927854D01*
X35752172Y-111059067D01*
X35569763Y-111156567D01*
X35503787Y-111176580D01*
X35371836Y-111216607D01*
X35294707Y-111224204D01*
X35217580Y-111231800D01*
X35114420Y-111231800D01*
X35037293Y-111224204D01*
X34960164Y-111216607D01*
X34828213Y-111176580D01*
X34762237Y-111156567D01*
X34579828Y-111059067D01*
X34419946Y-110927854D01*
X34288733Y-110767972D01*
X34191233Y-110585563D01*
X34171220Y-110519587D01*
X34131193Y-110387636D01*
X34110920Y-110181800D01*
X34131193Y-109975964D01*
X34191233Y-109778038D01*
X34191233Y-109778037D01*
X34288733Y-109595628D01*
X34419946Y-109435746D01*
X34579828Y-109304533D01*
X34762237Y-109207033D01*
X34828213Y-109187020D01*
X34960164Y-109146993D01*
X35037293Y-109139396D01*
X35114420Y-109131800D01*
X35217580Y-109131800D01*
X35294707Y-109139396D01*
X35294707Y-109139396D01*
G37*
G36*
X37834707Y-109139396D02*
X37911836Y-109146993D01*
X38043787Y-109187020D01*
X38109763Y-109207033D01*
X38292172Y-109304533D01*
X38452054Y-109435746D01*
X38583267Y-109595628D01*
X38680767Y-109778037D01*
X38680767Y-109778038D01*
X38740807Y-109975964D01*
X38761080Y-110181800D01*
X38740807Y-110387636D01*
X38700780Y-110519587D01*
X38680767Y-110585563D01*
X38583267Y-110767972D01*
X38452054Y-110927854D01*
X38292172Y-111059067D01*
X38109763Y-111156567D01*
X38043787Y-111176580D01*
X37911836Y-111216607D01*
X37834707Y-111224204D01*
X37757580Y-111231800D01*
X37654420Y-111231800D01*
X37577293Y-111224204D01*
X37500164Y-111216607D01*
X37368213Y-111176580D01*
X37302237Y-111156567D01*
X37119828Y-111059067D01*
X36959946Y-110927854D01*
X36828733Y-110767972D01*
X36731233Y-110585563D01*
X36711220Y-110519587D01*
X36671193Y-110387636D01*
X36650920Y-110181800D01*
X36671193Y-109975964D01*
X36731233Y-109778038D01*
X36731233Y-109778037D01*
X36828733Y-109595628D01*
X36959946Y-109435746D01*
X37119828Y-109304533D01*
X37302237Y-109207033D01*
X37368213Y-109187020D01*
X37500164Y-109146993D01*
X37577293Y-109139396D01*
X37654420Y-109131800D01*
X37757580Y-109131800D01*
X37834707Y-109139396D01*
X37834707Y-109139396D01*
G37*
G36*
X40374707Y-109139396D02*
X40451836Y-109146993D01*
X40583787Y-109187020D01*
X40649763Y-109207033D01*
X40832172Y-109304533D01*
X40992054Y-109435746D01*
X41123267Y-109595628D01*
X41220767Y-109778037D01*
X41220767Y-109778038D01*
X41280807Y-109975964D01*
X41301080Y-110181800D01*
X41280807Y-110387636D01*
X41240780Y-110519587D01*
X41220767Y-110585563D01*
X41123267Y-110767972D01*
X40992054Y-110927854D01*
X40832172Y-111059067D01*
X40649763Y-111156567D01*
X40583787Y-111176580D01*
X40451836Y-111216607D01*
X40374707Y-111224204D01*
X40297580Y-111231800D01*
X40194420Y-111231800D01*
X40117293Y-111224204D01*
X40040164Y-111216607D01*
X39908213Y-111176580D01*
X39842237Y-111156567D01*
X39659828Y-111059067D01*
X39499946Y-110927854D01*
X39368733Y-110767972D01*
X39271233Y-110585563D01*
X39251220Y-110519587D01*
X39211193Y-110387636D01*
X39190920Y-110181800D01*
X39211193Y-109975964D01*
X39271233Y-109778038D01*
X39271233Y-109778037D01*
X39368733Y-109595628D01*
X39499946Y-109435746D01*
X39659828Y-109304533D01*
X39842237Y-109207033D01*
X39908213Y-109187020D01*
X40040164Y-109146993D01*
X40117293Y-109139396D01*
X40194420Y-109131800D01*
X40297580Y-109131800D01*
X40374707Y-109139396D01*
X40374707Y-109139396D01*
G37*
G36*
X42914707Y-109139396D02*
X42991836Y-109146993D01*
X43123787Y-109187020D01*
X43189763Y-109207033D01*
X43372172Y-109304533D01*
X43532054Y-109435746D01*
X43663267Y-109595628D01*
X43760767Y-109778037D01*
X43760767Y-109778038D01*
X43820807Y-109975964D01*
X43841080Y-110181800D01*
X43820807Y-110387636D01*
X43780780Y-110519587D01*
X43760767Y-110585563D01*
X43663267Y-110767972D01*
X43532054Y-110927854D01*
X43372172Y-111059067D01*
X43189763Y-111156567D01*
X43123787Y-111176580D01*
X42991836Y-111216607D01*
X42914707Y-111224204D01*
X42837580Y-111231800D01*
X42734420Y-111231800D01*
X42657293Y-111224204D01*
X42580164Y-111216607D01*
X42448213Y-111176580D01*
X42382237Y-111156567D01*
X42199828Y-111059067D01*
X42039946Y-110927854D01*
X41908733Y-110767972D01*
X41811233Y-110585563D01*
X41791220Y-110519587D01*
X41751193Y-110387636D01*
X41730920Y-110181800D01*
X41751193Y-109975964D01*
X41811233Y-109778038D01*
X41811233Y-109778037D01*
X41908733Y-109595628D01*
X42039946Y-109435746D01*
X42199828Y-109304533D01*
X42382237Y-109207033D01*
X42448213Y-109187020D01*
X42580164Y-109146993D01*
X42657293Y-109139396D01*
X42734420Y-109131800D01*
X42837580Y-109131800D01*
X42914707Y-109139396D01*
X42914707Y-109139396D01*
G37*
G36*
X45454707Y-109139396D02*
X45531836Y-109146993D01*
X45663787Y-109187020D01*
X45729763Y-109207033D01*
X45912172Y-109304533D01*
X46072054Y-109435746D01*
X46203267Y-109595628D01*
X46300767Y-109778037D01*
X46300767Y-109778038D01*
X46360807Y-109975964D01*
X46381080Y-110181800D01*
X46360807Y-110387636D01*
X46320780Y-110519587D01*
X46300767Y-110585563D01*
X46203267Y-110767972D01*
X46072054Y-110927854D01*
X45912172Y-111059067D01*
X45729763Y-111156567D01*
X45663787Y-111176580D01*
X45531836Y-111216607D01*
X45454707Y-111224204D01*
X45377580Y-111231800D01*
X45274420Y-111231800D01*
X45197293Y-111224204D01*
X45120164Y-111216607D01*
X44988213Y-111176580D01*
X44922237Y-111156567D01*
X44739828Y-111059067D01*
X44579946Y-110927854D01*
X44448733Y-110767972D01*
X44351233Y-110585563D01*
X44331220Y-110519587D01*
X44291193Y-110387636D01*
X44270920Y-110181800D01*
X44291193Y-109975964D01*
X44351233Y-109778038D01*
X44351233Y-109778037D01*
X44448733Y-109595628D01*
X44579946Y-109435746D01*
X44739828Y-109304533D01*
X44922237Y-109207033D01*
X44988213Y-109187020D01*
X45120164Y-109146993D01*
X45197293Y-109139396D01*
X45274420Y-109131800D01*
X45377580Y-109131800D01*
X45454707Y-109139396D01*
X45454707Y-109139396D01*
G37*
G36*
X47994707Y-109139396D02*
X48071836Y-109146993D01*
X48203787Y-109187020D01*
X48269763Y-109207033D01*
X48452172Y-109304533D01*
X48612054Y-109435746D01*
X48743267Y-109595628D01*
X48840767Y-109778037D01*
X48840767Y-109778038D01*
X48900807Y-109975964D01*
X48921080Y-110181800D01*
X48900807Y-110387636D01*
X48860780Y-110519587D01*
X48840767Y-110585563D01*
X48743267Y-110767972D01*
X48612054Y-110927854D01*
X48452172Y-111059067D01*
X48269763Y-111156567D01*
X48203787Y-111176580D01*
X48071836Y-111216607D01*
X47994707Y-111224204D01*
X47917580Y-111231800D01*
X47814420Y-111231800D01*
X47737293Y-111224204D01*
X47660164Y-111216607D01*
X47528213Y-111176580D01*
X47462237Y-111156567D01*
X47279828Y-111059067D01*
X47119946Y-110927854D01*
X46988733Y-110767972D01*
X46891233Y-110585563D01*
X46871220Y-110519587D01*
X46831193Y-110387636D01*
X46810920Y-110181800D01*
X46831193Y-109975964D01*
X46891233Y-109778038D01*
X46891233Y-109778037D01*
X46988733Y-109595628D01*
X47119946Y-109435746D01*
X47279828Y-109304533D01*
X47462237Y-109207033D01*
X47528213Y-109187020D01*
X47660164Y-109146993D01*
X47737293Y-109139396D01*
X47814420Y-109131800D01*
X47917580Y-109131800D01*
X47994707Y-109139396D01*
X47994707Y-109139396D01*
G37*
G36*
X50534707Y-109139396D02*
X50611836Y-109146993D01*
X50743787Y-109187020D01*
X50809763Y-109207033D01*
X50992172Y-109304533D01*
X51152054Y-109435746D01*
X51283267Y-109595628D01*
X51380767Y-109778037D01*
X51380767Y-109778038D01*
X51440807Y-109975964D01*
X51461080Y-110181800D01*
X51440807Y-110387636D01*
X51400780Y-110519587D01*
X51380767Y-110585563D01*
X51283267Y-110767972D01*
X51152054Y-110927854D01*
X50992172Y-111059067D01*
X50809763Y-111156567D01*
X50743787Y-111176580D01*
X50611836Y-111216607D01*
X50534707Y-111224204D01*
X50457580Y-111231800D01*
X50354420Y-111231800D01*
X50277293Y-111224204D01*
X50200164Y-111216607D01*
X50068213Y-111176580D01*
X50002237Y-111156567D01*
X49819828Y-111059067D01*
X49659946Y-110927854D01*
X49528733Y-110767972D01*
X49431233Y-110585563D01*
X49411220Y-110519587D01*
X49371193Y-110387636D01*
X49350920Y-110181800D01*
X49371193Y-109975964D01*
X49431233Y-109778038D01*
X49431233Y-109778037D01*
X49528733Y-109595628D01*
X49659946Y-109435746D01*
X49819828Y-109304533D01*
X50002237Y-109207033D01*
X50068213Y-109187020D01*
X50200164Y-109146993D01*
X50277293Y-109139396D01*
X50354420Y-109131800D01*
X50457580Y-109131800D01*
X50534707Y-109139396D01*
X50534707Y-109139396D01*
G37*
G36*
X53074707Y-109139396D02*
X53151836Y-109146993D01*
X53283787Y-109187020D01*
X53349763Y-109207033D01*
X53532172Y-109304533D01*
X53692054Y-109435746D01*
X53823267Y-109595628D01*
X53920767Y-109778037D01*
X53920767Y-109778038D01*
X53980807Y-109975964D01*
X54001080Y-110181800D01*
X53980807Y-110387636D01*
X53940780Y-110519587D01*
X53920767Y-110585563D01*
X53823267Y-110767972D01*
X53692054Y-110927854D01*
X53532172Y-111059067D01*
X53349763Y-111156567D01*
X53283787Y-111176580D01*
X53151836Y-111216607D01*
X53074707Y-111224204D01*
X52997580Y-111231800D01*
X52894420Y-111231800D01*
X52817293Y-111224204D01*
X52740164Y-111216607D01*
X52608213Y-111176580D01*
X52542237Y-111156567D01*
X52359828Y-111059067D01*
X52199946Y-110927854D01*
X52068733Y-110767972D01*
X51971233Y-110585563D01*
X51951220Y-110519587D01*
X51911193Y-110387636D01*
X51890920Y-110181800D01*
X51911193Y-109975964D01*
X51971233Y-109778038D01*
X51971233Y-109778037D01*
X52068733Y-109595628D01*
X52199946Y-109435746D01*
X52359828Y-109304533D01*
X52542237Y-109207033D01*
X52608213Y-109187020D01*
X52740164Y-109146993D01*
X52817293Y-109139396D01*
X52894420Y-109131800D01*
X52997580Y-109131800D01*
X53074707Y-109139396D01*
X53074707Y-109139396D01*
G37*
G36*
X55614707Y-109139396D02*
X55691836Y-109146993D01*
X55823787Y-109187020D01*
X55889763Y-109207033D01*
X56072172Y-109304533D01*
X56232054Y-109435746D01*
X56363267Y-109595628D01*
X56460767Y-109778037D01*
X56460767Y-109778038D01*
X56520807Y-109975964D01*
X56541080Y-110181800D01*
X56520807Y-110387636D01*
X56480780Y-110519587D01*
X56460767Y-110585563D01*
X56363267Y-110767972D01*
X56232054Y-110927854D01*
X56072172Y-111059067D01*
X55889763Y-111156567D01*
X55823787Y-111176580D01*
X55691836Y-111216607D01*
X55614707Y-111224204D01*
X55537580Y-111231800D01*
X55434420Y-111231800D01*
X55357293Y-111224204D01*
X55280164Y-111216607D01*
X55148213Y-111176580D01*
X55082237Y-111156567D01*
X54899828Y-111059067D01*
X54739946Y-110927854D01*
X54608733Y-110767972D01*
X54511233Y-110585563D01*
X54491220Y-110519587D01*
X54451193Y-110387636D01*
X54430920Y-110181800D01*
X54451193Y-109975964D01*
X54511233Y-109778038D01*
X54511233Y-109778037D01*
X54608733Y-109595628D01*
X54739946Y-109435746D01*
X54899828Y-109304533D01*
X55082237Y-109207033D01*
X55148213Y-109187020D01*
X55280164Y-109146993D01*
X55357293Y-109139396D01*
X55434420Y-109131800D01*
X55537580Y-109131800D01*
X55614707Y-109139396D01*
X55614707Y-109139396D01*
G37*
G36*
X60694707Y-109139396D02*
X60771836Y-109146993D01*
X60903787Y-109187020D01*
X60969763Y-109207033D01*
X61152172Y-109304533D01*
X61312054Y-109435746D01*
X61443267Y-109595628D01*
X61540767Y-109778037D01*
X61540767Y-109778038D01*
X61600807Y-109975964D01*
X61621080Y-110181800D01*
X61600807Y-110387636D01*
X61560780Y-110519587D01*
X61540767Y-110585563D01*
X61443267Y-110767972D01*
X61312054Y-110927854D01*
X61152172Y-111059067D01*
X60969763Y-111156567D01*
X60903787Y-111176580D01*
X60771836Y-111216607D01*
X60694707Y-111224204D01*
X60617580Y-111231800D01*
X60514420Y-111231800D01*
X60437293Y-111224204D01*
X60360164Y-111216607D01*
X60228213Y-111176580D01*
X60162237Y-111156567D01*
X59979828Y-111059067D01*
X59819946Y-110927854D01*
X59688733Y-110767972D01*
X59591233Y-110585563D01*
X59571220Y-110519587D01*
X59531193Y-110387636D01*
X59510920Y-110181800D01*
X59531193Y-109975964D01*
X59591233Y-109778038D01*
X59591233Y-109778037D01*
X59688733Y-109595628D01*
X59819946Y-109435746D01*
X59979828Y-109304533D01*
X60162237Y-109207033D01*
X60228213Y-109187020D01*
X60360164Y-109146993D01*
X60437293Y-109139396D01*
X60514420Y-109131800D01*
X60617580Y-109131800D01*
X60694707Y-109139396D01*
X60694707Y-109139396D01*
G37*
G36*
X64156000Y-111231800D02*
X62056000Y-111231800D01*
X62056000Y-109131800D01*
X64156000Y-109131800D01*
X64156000Y-111231800D01*
X64156000Y-111231800D01*
G37*
G36*
X30214707Y-109139396D02*
X30291836Y-109146993D01*
X30423787Y-109187020D01*
X30489763Y-109207033D01*
X30672172Y-109304533D01*
X30832054Y-109435746D01*
X30963267Y-109595628D01*
X31060767Y-109778037D01*
X31060767Y-109778038D01*
X31120807Y-109975964D01*
X31141080Y-110181800D01*
X31120807Y-110387636D01*
X31080780Y-110519587D01*
X31060767Y-110585563D01*
X30963267Y-110767972D01*
X30832054Y-110927854D01*
X30672172Y-111059067D01*
X30489763Y-111156567D01*
X30423787Y-111176580D01*
X30291836Y-111216607D01*
X30214707Y-111224204D01*
X30137580Y-111231800D01*
X30034420Y-111231800D01*
X29957293Y-111224204D01*
X29880164Y-111216607D01*
X29748213Y-111176580D01*
X29682237Y-111156567D01*
X29499828Y-111059067D01*
X29339946Y-110927854D01*
X29208733Y-110767972D01*
X29111233Y-110585563D01*
X29091220Y-110519587D01*
X29051193Y-110387636D01*
X29030920Y-110181800D01*
X29051193Y-109975964D01*
X29111233Y-109778038D01*
X29111233Y-109778037D01*
X29208733Y-109595628D01*
X29339946Y-109435746D01*
X29499828Y-109304533D01*
X29682237Y-109207033D01*
X29748213Y-109187020D01*
X29880164Y-109146993D01*
X29957293Y-109139396D01*
X30034420Y-109131800D01*
X30137580Y-109131800D01*
X30214707Y-109139396D01*
X30214707Y-109139396D01*
G37*
G36*
X76234000Y-99348000D02*
X74134000Y-99348000D01*
X74134000Y-97248000D01*
X76234000Y-97248000D01*
X76234000Y-99348000D01*
X76234000Y-99348000D01*
G37*
G36*
X60319500Y-99165800D02*
X58669500Y-99165800D01*
X58669500Y-97265800D01*
X60319500Y-97265800D01*
X60319500Y-99165800D01*
X60319500Y-99165800D01*
G37*
G36*
X75312707Y-94715597D02*
X75389836Y-94723193D01*
X75521787Y-94763220D01*
X75587763Y-94783233D01*
X75770172Y-94880733D01*
X75930054Y-95011946D01*
X76061267Y-95171828D01*
X76158767Y-95354237D01*
X76158767Y-95354238D01*
X76218807Y-95552164D01*
X76239080Y-95758000D01*
X76218807Y-95963836D01*
X76178780Y-96095787D01*
X76158767Y-96161763D01*
X76061267Y-96344172D01*
X75930054Y-96504054D01*
X75770172Y-96635267D01*
X75587763Y-96732767D01*
X75521787Y-96752780D01*
X75389836Y-96792807D01*
X75312707Y-96800403D01*
X75235580Y-96808000D01*
X75132420Y-96808000D01*
X75055293Y-96800403D01*
X74978164Y-96792807D01*
X74846213Y-96752780D01*
X74780237Y-96732767D01*
X74597828Y-96635267D01*
X74437946Y-96504054D01*
X74306733Y-96344172D01*
X74209233Y-96161763D01*
X74189220Y-96095787D01*
X74149193Y-95963836D01*
X74128920Y-95758000D01*
X74149193Y-95552164D01*
X74209233Y-95354238D01*
X74209233Y-95354237D01*
X74306733Y-95171828D01*
X74437946Y-95011946D01*
X74597828Y-94880733D01*
X74780237Y-94783233D01*
X74846213Y-94763220D01*
X74978164Y-94723193D01*
X75055293Y-94715597D01*
X75132420Y-94708000D01*
X75235580Y-94708000D01*
X75312707Y-94715597D01*
X75312707Y-94715597D01*
G37*
G36*
X60319500Y-96665800D02*
X58669500Y-96665800D01*
X58669500Y-94765800D01*
X60319500Y-94765800D01*
X60319500Y-96665800D01*
X60319500Y-96665800D01*
G37*
G36*
X75312707Y-92175596D02*
X75389836Y-92183193D01*
X75521787Y-92223220D01*
X75587763Y-92243233D01*
X75770172Y-92340733D01*
X75930054Y-92471946D01*
X76061267Y-92631828D01*
X76158767Y-92814237D01*
X76158767Y-92814238D01*
X76218807Y-93012164D01*
X76239080Y-93218000D01*
X76218807Y-93423836D01*
X76178780Y-93555787D01*
X76158767Y-93621763D01*
X76061267Y-93804172D01*
X75930054Y-93964054D01*
X75770172Y-94095267D01*
X75587763Y-94192767D01*
X75521787Y-94212780D01*
X75389836Y-94252807D01*
X75312707Y-94260403D01*
X75235580Y-94268000D01*
X75132420Y-94268000D01*
X75055293Y-94260403D01*
X74978164Y-94252807D01*
X74846213Y-94212780D01*
X74780237Y-94192767D01*
X74597828Y-94095267D01*
X74437946Y-93964054D01*
X74306733Y-93804172D01*
X74209233Y-93621763D01*
X74189220Y-93555787D01*
X74149193Y-93423836D01*
X74128920Y-93218000D01*
X74149193Y-93012164D01*
X74209233Y-92814238D01*
X74209233Y-92814237D01*
X74306733Y-92631828D01*
X74437946Y-92471946D01*
X74597828Y-92340733D01*
X74780237Y-92243233D01*
X74846213Y-92223220D01*
X74978164Y-92183193D01*
X75055293Y-92175596D01*
X75132420Y-92168000D01*
X75235580Y-92168000D01*
X75312707Y-92175596D01*
X75312707Y-92175596D01*
G37*
G36*
X41140500Y-93198800D02*
X39240500Y-93198800D01*
X39240500Y-91548800D01*
X41140500Y-91548800D01*
X41140500Y-93198800D01*
X41140500Y-93198800D01*
G37*
G36*
X38640500Y-93198800D02*
X36740500Y-93198800D01*
X36740500Y-91548800D01*
X38640500Y-91548800D01*
X38640500Y-93198800D01*
X38640500Y-93198800D01*
G37*
G36*
X49336000Y-89681800D02*
X47636000Y-89681800D01*
X47636000Y-87781800D01*
X49336000Y-87781800D01*
X49336000Y-89681800D01*
X49336000Y-89681800D01*
G37*
G36*
X69120500Y-87356800D02*
X67220500Y-87356800D01*
X67220500Y-85706800D01*
X69120500Y-85706800D01*
X69120500Y-87356800D01*
X69120500Y-87356800D01*
G37*
G36*
X71620500Y-87356800D02*
X69720500Y-87356800D01*
X69720500Y-85706800D01*
X71620500Y-85706800D01*
X71620500Y-87356800D01*
X71620500Y-87356800D01*
G37*
G36*
X55485400Y-87317600D02*
X53785400Y-87317600D01*
X53785400Y-85417600D01*
X55485400Y-85417600D01*
X55485400Y-87317600D01*
X55485400Y-87317600D01*
G37*
G36*
X51112000Y-84878300D02*
X49461000Y-84878300D01*
X49436614Y-84880702D01*
X49413165Y-84887815D01*
X49391554Y-84899366D01*
X49372612Y-84914912D01*
X49357066Y-84933854D01*
X49345515Y-84955465D01*
X49338402Y-84978914D01*
X49336000Y-85003300D01*
X49336000Y-86981800D01*
X47636000Y-86981800D01*
X47636000Y-85003300D01*
X47633598Y-84978914D01*
X47626485Y-84955465D01*
X47620500Y-84944268D01*
X47620500Y-82978300D01*
X51112000Y-82978300D01*
X51112000Y-84878300D01*
X51112000Y-84878300D01*
G37*
G36*
X71565501Y-85310799D02*
X69665501Y-85310799D01*
X69665501Y-83660799D01*
X71565501Y-83660799D01*
X71565501Y-85310799D01*
X71565501Y-85310799D01*
G37*
G36*
X69065501Y-85310799D02*
X67165501Y-85310799D01*
X67165501Y-83660799D01*
X69065501Y-83660799D01*
X69065501Y-85310799D01*
X69065501Y-85310799D01*
G37*
G36*
X55485400Y-84617600D02*
X53785400Y-84617600D01*
X53785400Y-82717600D01*
X55485400Y-82717600D01*
X55485400Y-84617600D01*
X55485400Y-84617600D01*
G37*
G36*
X51112000Y-82378300D02*
X47620500Y-82378300D01*
X47620500Y-80478300D01*
X51112000Y-80478300D01*
X51112000Y-82378300D01*
X51112000Y-82378300D01*
G37*
G36*
X38346500Y-80752800D02*
X36446500Y-80752800D01*
X36446500Y-79102800D01*
X38346500Y-79102800D01*
X38346500Y-80752800D01*
X38346500Y-80752800D01*
G37*
G36*
X40846500Y-80752800D02*
X38946500Y-80752800D01*
X38946500Y-79102800D01*
X40846500Y-79102800D01*
X40846500Y-80752800D01*
X40846500Y-80752800D01*
G37*
G36*
X65310500Y-79736800D02*
X63410500Y-79736800D01*
X63410500Y-78086800D01*
X65310500Y-78086800D01*
X65310500Y-79736800D01*
X65310500Y-79736800D01*
G37*
G36*
X67810500Y-79736800D02*
X65910500Y-79736800D01*
X65910500Y-78086800D01*
X67810500Y-78086800D01*
X67810500Y-79736800D01*
X67810500Y-79736800D01*
G37*
G36*
X46298622Y-73542588D02*
X44648622Y-73542588D01*
X44648622Y-71642588D01*
X46298622Y-71642588D01*
X46298622Y-73542588D01*
X46298622Y-73542588D01*
G37*
G36*
X48330622Y-73542588D02*
X46680622Y-73542588D01*
X46680622Y-71642588D01*
X48330622Y-71642588D01*
X48330622Y-73542588D01*
X48330622Y-73542588D01*
G37*
G36*
X50413500Y-73471800D02*
X48763500Y-73471800D01*
X48763500Y-71571800D01*
X50413500Y-71571800D01*
X50413500Y-73471800D01*
X50413500Y-73471800D01*
G37*
G36*
X55366500Y-73384800D02*
X53716500Y-73384800D01*
X53716500Y-71484800D01*
X55366500Y-71484800D01*
X55366500Y-73384800D01*
X55366500Y-73384800D01*
G37*
G36*
X48330622Y-71042588D02*
X46680622Y-71042588D01*
X46680622Y-69142588D01*
X48330622Y-69142588D01*
X48330622Y-71042588D01*
X48330622Y-71042588D01*
G37*
G36*
X46298622Y-71042588D02*
X44648622Y-71042588D01*
X44648622Y-69142588D01*
X46298622Y-69142588D01*
X46298622Y-71042588D01*
X46298622Y-71042588D01*
G37*
G36*
X50413500Y-70971800D02*
X48763500Y-70971800D01*
X48763500Y-69071800D01*
X50413500Y-69071800D01*
X50413500Y-70971800D01*
X50413500Y-70971800D01*
G37*
G36*
X55366500Y-70884800D02*
X53716500Y-70884800D01*
X53716500Y-68984800D01*
X55366500Y-68984800D01*
X55366500Y-70884800D01*
X55366500Y-70884800D01*
G37*
G36*
X54744451Y-64064427D02*
X54882105Y-64091808D01*
X55054994Y-64163421D01*
X55210590Y-64267387D01*
X55342913Y-64399710D01*
X55446879Y-64555306D01*
X55518492Y-64728195D01*
X55555000Y-64911733D01*
X55555000Y-65098867D01*
X55518492Y-65282405D01*
X55446879Y-65455294D01*
X55342913Y-65610890D01*
X55210590Y-65743213D01*
X55054994Y-65847179D01*
X54882105Y-65918792D01*
X54744452Y-65946173D01*
X54698568Y-65955300D01*
X54511432Y-65955300D01*
X54465548Y-65946173D01*
X54327895Y-65918792D01*
X54155006Y-65847179D01*
X53999410Y-65743213D01*
X53867087Y-65610890D01*
X53763121Y-65455294D01*
X53691508Y-65282405D01*
X53655000Y-65098867D01*
X53655000Y-64911733D01*
X53691508Y-64728195D01*
X53763121Y-64555306D01*
X53867087Y-64399710D01*
X53999410Y-64267387D01*
X54155006Y-64163421D01*
X54327895Y-64091808D01*
X54465549Y-64064427D01*
X54511432Y-64055300D01*
X54698568Y-64055300D01*
X54744451Y-64064427D01*
X54744451Y-64064427D01*
G37*
G36*
X49864451Y-64064427D02*
X50002105Y-64091808D01*
X50174994Y-64163421D01*
X50330590Y-64267387D01*
X50462913Y-64399710D01*
X50566879Y-64555306D01*
X50638492Y-64728195D01*
X50675000Y-64911733D01*
X50675000Y-65098867D01*
X50638492Y-65282405D01*
X50566879Y-65455294D01*
X50462913Y-65610890D01*
X50330590Y-65743213D01*
X50174994Y-65847179D01*
X50002105Y-65918792D01*
X49864452Y-65946173D01*
X49818568Y-65955300D01*
X49631432Y-65955300D01*
X49585548Y-65946173D01*
X49447895Y-65918792D01*
X49275006Y-65847179D01*
X49119410Y-65743213D01*
X48987087Y-65610890D01*
X48883121Y-65455294D01*
X48811508Y-65282405D01*
X48775000Y-65098867D01*
X48775000Y-64911733D01*
X48811508Y-64728195D01*
X48883121Y-64555306D01*
X48987087Y-64399710D01*
X49119410Y-64267387D01*
X49275006Y-64163421D01*
X49447895Y-64091808D01*
X49585549Y-64064427D01*
X49631432Y-64055300D01*
X49818568Y-64055300D01*
X49864451Y-64064427D01*
X49864451Y-64064427D01*
G37*
G36*
X68465452Y-50852927D02*
X68603105Y-50880308D01*
X68775994Y-50951921D01*
X68931590Y-51055887D01*
X69063913Y-51188210D01*
X69167879Y-51343806D01*
X69239492Y-51516695D01*
X69276000Y-51700233D01*
X69276000Y-51887367D01*
X69239492Y-52070905D01*
X69167879Y-52243794D01*
X69063913Y-52399390D01*
X68931590Y-52531713D01*
X68775994Y-52635679D01*
X68603105Y-52707292D01*
X68465452Y-52734673D01*
X68419568Y-52743800D01*
X68232432Y-52743800D01*
X68186548Y-52734673D01*
X68048895Y-52707292D01*
X67876006Y-52635679D01*
X67720410Y-52531713D01*
X67588087Y-52399390D01*
X67484121Y-52243794D01*
X67412508Y-52070905D01*
X67376000Y-51887367D01*
X67376000Y-51700233D01*
X67412508Y-51516695D01*
X67484121Y-51343806D01*
X67588087Y-51188210D01*
X67720410Y-51055887D01*
X67876006Y-50951921D01*
X68048895Y-50880308D01*
X68186548Y-50852927D01*
X68232432Y-50843800D01*
X68419568Y-50843800D01*
X68465452Y-50852927D01*
X68465452Y-50852927D01*
G37*
G36*
X68465451Y-45972927D02*
X68603105Y-46000308D01*
X68775994Y-46071921D01*
X68931590Y-46175887D01*
X69063913Y-46308210D01*
X69167879Y-46463806D01*
X69239492Y-46636695D01*
X69276000Y-46820233D01*
X69276000Y-47007367D01*
X69239492Y-47190905D01*
X69167879Y-47363794D01*
X69063913Y-47519390D01*
X68931590Y-47651713D01*
X68775994Y-47755679D01*
X68603105Y-47827292D01*
X68465452Y-47854673D01*
X68419568Y-47863800D01*
X68232432Y-47863800D01*
X68186548Y-47854673D01*
X68048895Y-47827292D01*
X67876006Y-47755679D01*
X67720410Y-47651713D01*
X67588087Y-47519390D01*
X67484121Y-47363794D01*
X67412508Y-47190905D01*
X67376000Y-47007367D01*
X67376000Y-46820233D01*
X67412508Y-46636695D01*
X67484121Y-46463806D01*
X67588087Y-46308210D01*
X67720410Y-46175887D01*
X67876006Y-46071921D01*
X68048895Y-46000308D01*
X68186549Y-45972927D01*
X68232432Y-45963800D01*
X68419568Y-45963800D01*
X68465451Y-45972927D01*
X68465451Y-45972927D01*
G37*
G36*
X71662000Y-33485800D02*
X69562000Y-33485800D01*
X69562000Y-31385800D01*
X71662000Y-31385800D01*
X71662000Y-33485800D01*
X71662000Y-33485800D01*
G37*
G36*
X74550707Y-31393396D02*
X74627836Y-31400993D01*
X74759787Y-31441020D01*
X74825763Y-31461033D01*
X75008172Y-31558533D01*
X75168054Y-31689746D01*
X75299267Y-31849628D01*
X75396767Y-32032037D01*
X75396767Y-32032038D01*
X75456807Y-32229964D01*
X75477080Y-32435800D01*
X75456807Y-32641636D01*
X75416780Y-32773587D01*
X75396767Y-32839563D01*
X75299267Y-33021972D01*
X75168054Y-33181854D01*
X75008172Y-33313067D01*
X74825763Y-33410567D01*
X74759787Y-33430580D01*
X74627836Y-33470607D01*
X74550707Y-33478203D01*
X74473580Y-33485800D01*
X74370420Y-33485800D01*
X74293293Y-33478203D01*
X74216164Y-33470607D01*
X74084213Y-33430580D01*
X74018237Y-33410567D01*
X73835828Y-33313067D01*
X73675946Y-33181854D01*
X73544733Y-33021972D01*
X73447233Y-32839563D01*
X73427220Y-32773587D01*
X73387193Y-32641636D01*
X73366920Y-32435800D01*
X73387193Y-32229964D01*
X73447233Y-32032038D01*
X73447233Y-32032037D01*
X73544733Y-31849628D01*
X73675946Y-31689746D01*
X73835828Y-31558533D01*
X74018237Y-31461033D01*
X74084213Y-31441020D01*
X74216164Y-31400993D01*
X74293293Y-31393396D01*
X74370420Y-31385800D01*
X74473580Y-31385800D01*
X74550707Y-31393396D01*
X74550707Y-31393396D01*
G37*
G36*
X75472000Y-30945800D02*
X73372000Y-30945800D01*
X73372000Y-28845800D01*
X75472000Y-28845800D01*
X75472000Y-30945800D01*
X75472000Y-30945800D01*
G37*
G36*
X70740707Y-28853397D02*
X70817836Y-28860993D01*
X70949787Y-28901020D01*
X71015763Y-28921033D01*
X71198172Y-29018533D01*
X71358054Y-29149746D01*
X71489267Y-29309628D01*
X71586767Y-29492037D01*
X71586767Y-29492038D01*
X71646807Y-29689964D01*
X71667080Y-29895800D01*
X71646807Y-30101636D01*
X71606780Y-30233587D01*
X71586767Y-30299563D01*
X71489267Y-30481972D01*
X71358054Y-30641854D01*
X71198172Y-30773067D01*
X71015763Y-30870567D01*
X70949787Y-30890580D01*
X70817836Y-30930607D01*
X70740707Y-30938203D01*
X70663580Y-30945800D01*
X70560420Y-30945800D01*
X70483293Y-30938203D01*
X70406164Y-30930607D01*
X70274213Y-30890580D01*
X70208237Y-30870567D01*
X70025828Y-30773067D01*
X69865946Y-30641854D01*
X69734733Y-30481972D01*
X69637233Y-30299563D01*
X69617220Y-30233587D01*
X69577193Y-30101636D01*
X69556920Y-29895800D01*
X69577193Y-29689964D01*
X69637233Y-29492038D01*
X69637233Y-29492037D01*
X69734733Y-29309628D01*
X69865946Y-29149746D01*
X70025828Y-29018533D01*
X70208237Y-28921033D01*
X70274213Y-28901020D01*
X70406164Y-28860993D01*
X70483293Y-28853397D01*
X70560420Y-28845800D01*
X70663580Y-28845800D01*
X70740707Y-28853397D01*
X70740707Y-28853397D01*
G37*
G36*
X45414707Y-27339397D02*
X45491836Y-27346993D01*
X45623787Y-27387020D01*
X45689763Y-27407033D01*
X45872172Y-27504533D01*
X46032054Y-27635746D01*
X46163267Y-27795628D01*
X46260767Y-27978037D01*
X46260767Y-27978038D01*
X46320807Y-28175964D01*
X46341080Y-28381800D01*
X46320807Y-28587636D01*
X46280780Y-28719587D01*
X46260767Y-28785563D01*
X46163267Y-28967972D01*
X46032054Y-29127854D01*
X45872172Y-29259067D01*
X45689763Y-29356567D01*
X45623787Y-29376580D01*
X45491836Y-29416607D01*
X45414707Y-29424204D01*
X45337580Y-29431800D01*
X45234420Y-29431800D01*
X45157293Y-29424204D01*
X45080164Y-29416607D01*
X44948213Y-29376580D01*
X44882237Y-29356567D01*
X44699828Y-29259067D01*
X44539946Y-29127854D01*
X44408733Y-28967972D01*
X44311233Y-28785563D01*
X44291220Y-28719587D01*
X44251193Y-28587636D01*
X44230920Y-28381800D01*
X44251193Y-28175964D01*
X44311233Y-27978038D01*
X44311233Y-27978037D01*
X44408733Y-27795628D01*
X44539946Y-27635746D01*
X44699828Y-27504533D01*
X44882237Y-27407033D01*
X44948213Y-27387020D01*
X45080164Y-27346993D01*
X45157293Y-27339397D01*
X45234420Y-27331800D01*
X45337580Y-27331800D01*
X45414707Y-27339397D01*
X45414707Y-27339397D01*
G37*
G36*
X47954707Y-27339397D02*
X48031836Y-27346993D01*
X48163787Y-27387020D01*
X48229763Y-27407033D01*
X48412172Y-27504533D01*
X48572054Y-27635746D01*
X48703267Y-27795628D01*
X48800767Y-27978037D01*
X48800767Y-27978038D01*
X48860807Y-28175964D01*
X48881080Y-28381800D01*
X48860807Y-28587636D01*
X48820780Y-28719587D01*
X48800767Y-28785563D01*
X48703267Y-28967972D01*
X48572054Y-29127854D01*
X48412172Y-29259067D01*
X48229763Y-29356567D01*
X48163787Y-29376580D01*
X48031836Y-29416607D01*
X47954707Y-29424204D01*
X47877580Y-29431800D01*
X47774420Y-29431800D01*
X47697293Y-29424204D01*
X47620164Y-29416607D01*
X47488213Y-29376580D01*
X47422237Y-29356567D01*
X47239828Y-29259067D01*
X47079946Y-29127854D01*
X46948733Y-28967972D01*
X46851233Y-28785563D01*
X46831220Y-28719587D01*
X46791193Y-28587636D01*
X46770920Y-28381800D01*
X46791193Y-28175964D01*
X46851233Y-27978038D01*
X46851233Y-27978037D01*
X46948733Y-27795628D01*
X47079946Y-27635746D01*
X47239828Y-27504533D01*
X47422237Y-27407033D01*
X47488213Y-27387020D01*
X47620164Y-27346993D01*
X47697293Y-27339397D01*
X47774420Y-27331800D01*
X47877580Y-27331800D01*
X47954707Y-27339397D01*
X47954707Y-27339397D01*
G37*
G36*
X50494707Y-27339397D02*
X50571836Y-27346993D01*
X50703787Y-27387020D01*
X50769763Y-27407033D01*
X50952172Y-27504533D01*
X51112054Y-27635746D01*
X51243267Y-27795628D01*
X51340767Y-27978037D01*
X51340767Y-27978038D01*
X51400807Y-28175964D01*
X51421080Y-28381800D01*
X51400807Y-28587636D01*
X51360780Y-28719587D01*
X51340767Y-28785563D01*
X51243267Y-28967972D01*
X51112054Y-29127854D01*
X50952172Y-29259067D01*
X50769763Y-29356567D01*
X50703787Y-29376580D01*
X50571836Y-29416607D01*
X50494707Y-29424204D01*
X50417580Y-29431800D01*
X50314420Y-29431800D01*
X50237293Y-29424204D01*
X50160164Y-29416607D01*
X50028213Y-29376580D01*
X49962237Y-29356567D01*
X49779828Y-29259067D01*
X49619946Y-29127854D01*
X49488733Y-28967972D01*
X49391233Y-28785563D01*
X49371220Y-28719587D01*
X49331193Y-28587636D01*
X49310920Y-28381800D01*
X49331193Y-28175964D01*
X49391233Y-27978038D01*
X49391233Y-27978037D01*
X49488733Y-27795628D01*
X49619946Y-27635746D01*
X49779828Y-27504533D01*
X49962237Y-27407033D01*
X50028213Y-27387020D01*
X50160164Y-27346993D01*
X50237293Y-27339397D01*
X50314420Y-27331800D01*
X50417580Y-27331800D01*
X50494707Y-27339397D01*
X50494707Y-27339397D01*
G37*
G36*
X43796000Y-29431800D02*
X41696000Y-29431800D01*
X41696000Y-27331800D01*
X43796000Y-27331800D01*
X43796000Y-29431800D01*
X43796000Y-29431800D01*
G37*
G36*
X72336000Y-24507800D02*
X70412000Y-24507800D01*
X70412000Y-20043800D01*
X72336000Y-20043800D01*
X72336000Y-24507800D01*
X72336000Y-24507800D01*
G37*
G36*
X77416000Y-24507800D02*
X75492000Y-24507800D01*
X75492000Y-20043800D01*
X77416000Y-20043800D01*
X77416000Y-24507800D01*
X77416000Y-24507800D01*
G37*
G36*
X62104707Y-20979397D02*
X62181836Y-20986993D01*
X62313787Y-21027020D01*
X62379763Y-21047033D01*
X62562172Y-21144533D01*
X62722054Y-21275746D01*
X62853267Y-21435628D01*
X62950767Y-21618037D01*
X62950767Y-21618038D01*
X63010807Y-21815964D01*
X63031080Y-22021800D01*
X63010807Y-22227636D01*
X62970780Y-22359587D01*
X62950767Y-22425563D01*
X62853267Y-22607972D01*
X62722054Y-22767854D01*
X62562172Y-22899067D01*
X62379763Y-22996567D01*
X62313787Y-23016580D01*
X62181836Y-23056607D01*
X62104707Y-23064204D01*
X62027580Y-23071800D01*
X61924420Y-23071800D01*
X61847293Y-23064204D01*
X61770164Y-23056607D01*
X61638213Y-23016580D01*
X61572237Y-22996567D01*
X61389828Y-22899067D01*
X61229946Y-22767854D01*
X61098733Y-22607972D01*
X61001233Y-22425563D01*
X60981220Y-22359587D01*
X60941193Y-22227636D01*
X60920920Y-22021800D01*
X60941193Y-21815964D01*
X61001233Y-21618038D01*
X61001233Y-21618037D01*
X61098733Y-21435628D01*
X61229946Y-21275746D01*
X61389828Y-21144533D01*
X61572237Y-21047033D01*
X61638213Y-21027020D01*
X61770164Y-20986993D01*
X61847293Y-20979397D01*
X61924420Y-20971800D01*
X62027580Y-20971800D01*
X62104707Y-20979397D01*
X62104707Y-20979397D01*
G37*
G36*
X60486000Y-23071800D02*
X58386000Y-23071800D01*
X58386000Y-20971800D01*
X60486000Y-20971800D01*
X60486000Y-23071800D01*
X60486000Y-23071800D01*
G37*
M02*
